<svg width="1440" height="583" viewBox="0 0 1440 583" fill="none" xmlns="http://www.w3.org/2000/svg">
<path opacity="0.3" d="M44.5261 408.044C51.8475 408.044 57.7826 401.993 57.7826 394.528C57.7826 387.063 51.8475 381.011 44.5261 381.011C37.2047 381.011 31.2695 387.063 31.2695 394.528C31.2695 401.993 37.2047 408.044 44.5261 408.044Z" fill="#CCCCCC"/>
<path d="M44.5262 402.178C48.6704 402.178 52.0299 398.753 52.0299 394.528C52.0299 390.302 48.6704 386.877 44.5262 386.877C40.382 386.877 37.0225 390.302 37.0225 394.528C37.0225 398.753 40.382 402.178 44.5262 402.178Z" fill="#6C63FF"/>
<path d="M44.7764 416.974L0 416.205L0.00851862 415.695L44.2762 416.456V394.528H44.7764V416.974Z" fill="#2F2E41"/>
<path opacity="0.3" d="M1380.49 570.501C1385.19 564.783 1384.44 556.266 1378.81 551.477C1373.19 546.688 1364.82 547.441 1360.12 553.159C1355.43 558.876 1356.18 567.394 1361.8 572.183C1367.43 576.972 1375.79 576.219 1380.49 570.501Z" fill="#CCCCCC"/>
<path d="M1376.07 566.738C1378.73 563.502 1378.3 558.681 1375.12 555.97C1371.94 553.259 1367.2 553.686 1364.54 556.922C1361.88 560.158 1362.31 564.979 1365.49 567.69C1368.68 570.401 1373.41 569.975 1376.07 566.738Z" fill="#6C63FF"/>
<path d="M1441.25 523.971L1393.27 582.376L1369.83 562.416L1370.15 562.025L1393.21 581.658L1440.86 523.644L1441.25 523.971Z" fill="#2F2E41"/>
<path opacity="0.3" d="M1327.55 211.044C1334.87 211.044 1340.81 204.993 1340.81 197.528C1340.81 190.063 1334.87 184.011 1327.55 184.011C1320.23 184.011 1314.29 190.063 1314.29 197.528C1314.29 204.993 1320.23 211.044 1327.55 211.044Z" fill="#CCCCCC"/>
<path d="M1327.55 205.178C1331.69 205.178 1335.05 201.753 1335.05 197.528C1335.05 193.302 1331.69 189.877 1327.55 189.877C1323.4 189.877 1320.04 193.302 1320.04 197.528C1320.04 201.753 1323.4 205.178 1327.55 205.178Z" fill="#6C63FF"/>
<path d="M1440.1 225.58H1327.3V197.783H1327.8V225.07H1440.1V225.58Z" fill="#2F2E41"/>
<path opacity="0.3" d="M60.1013 135.044C67.4227 135.044 73.3579 128.993 73.3579 121.528C73.3579 114.063 67.4227 108.011 60.1013 108.011C52.7799 108.011 46.8447 114.063 46.8447 121.528C46.8447 128.993 52.7799 135.044 60.1013 135.044Z" fill="#CCCCCC"/>
<path d="M60.1019 129.178C64.246 129.178 67.6056 125.753 67.6056 121.528C67.6056 117.302 64.246 113.877 60.1019 113.877C55.9577 113.877 52.5981 117.302 52.5981 121.528C52.5981 125.753 55.9577 129.178 60.1019 129.178Z" fill="#6C63FF"/>
<path d="M-0.697952 179.007L-1.15967 178.81L22.4162 121.273H60.1014V121.783H22.7494L-0.697952 179.007Z" fill="#2F2E41"/>
</svg>
