<svg width="74" height="25" viewBox="0 0 74 25" fill="none" xmlns="http://www.w3.org/2000/svg">
<path d="M11.18 25C10.82 25 10.54 24.88 10.34 24.64C10.14 24.4 10.04 24.1 10.04 23.74V12.52C10.04 10.92 9.34 10.12 7.94 10.12H5.78C4.22 10.12 3.44 10.88 3.44 12.4V23.74C3.44 24.1 3.34 24.4 3.14 24.64C2.94 24.88 2.66 25 2.3 25H1.88C1.48 25 1.18 24.86 0.98 24.58C0.82 24.3 0.74 24.02 0.74 23.74V8.56C0.74 8.32 0.82 8.06 0.98 7.78C1.18 7.5 1.48 7.36 1.88 7.36H2.3C2.78 7.36 3.12 7.54 3.32 7.9C3.92 7.54 4.74 7.36 5.78 7.36H7.94C9.42 7.36 10.6 7.84 11.48 8.8C12.36 9.72 12.8 10.96 12.8 12.52V23.74C12.8 24.1 12.7 24.4 12.5 24.64C12.3 24.88 12 25 11.6 25H11.18ZM20.7673 25C19.2473 25 18.0473 24.54 17.1673 23.62C16.3273 22.66 15.9073 21.4 15.9073 19.84V12.52C15.9073 10.96 16.3273 9.72 17.1673 8.8C18.0473 7.84 19.2473 7.36 20.7673 7.36H23.2873C24.7673 7.36 25.9473 7.84 26.8273 8.8C27.7073 9.72 28.1473 10.96 28.1473 12.52V19.84C28.1473 21.4 27.7073 22.66 26.8273 23.62C25.9473 24.54 24.7673 25 23.2873 25H20.7673ZM25.3873 12.52C25.3873 10.92 24.6873 10.12 23.2873 10.12H20.7673C19.3273 10.12 18.6073 10.92 18.6073 12.52V19.78C18.6073 21.42 19.3273 22.24 20.7673 22.24H23.2873C24.6873 22.24 25.3873 21.42 25.3873 19.78V12.52ZM37.9175 25C36.4775 25 35.2975 24.54 34.3775 23.62C33.4575 22.66 32.9975 21.4 32.9975 19.84V9.88H31.8575C31.5775 9.88 31.3175 9.78 31.0775 9.58C30.8375 9.38 30.7175 9.08 30.7175 8.68V8.26C30.7175 7.94 30.8175 7.66 31.0175 7.42C31.2175 7.18 31.4975 7.06 31.8575 7.06H32.9975V5.32C32.9975 5.04 33.0975 4.76 33.2975 4.48C33.4975 4.16 33.7975 4 34.1975 4H34.6175C35.0575 4 35.3375 4.18 35.4575 4.54C35.6175 4.86 35.6975 5.12 35.6975 5.32V7.06H38.6375C39.0375 7.06 39.3175 7.18 39.4775 7.42C39.6775 7.66 39.7775 7.94 39.7775 8.26V8.68C39.7775 9.08 39.6575 9.38 39.4175 9.58C39.1775 9.78 38.9175 9.88 38.6375 9.88H35.6975V19.84C35.6975 21.4 36.4375 22.18 37.9175 22.18H38.9375C39.2975 22.18 39.5775 22.3 39.7775 22.54C39.9775 22.78 40.0775 23.06 40.0775 23.38V23.8C40.0775 24.2 39.9575 24.5 39.7175 24.7C39.4775 24.9 39.2175 25 38.9375 25H37.9175ZM43.8917 25C43.4917 25 43.1917 24.86 42.9917 24.58C42.8317 24.26 42.7517 23.98 42.7517 23.74V1.96C42.7517 1.68 42.8317 1.4 42.9917 1.12C43.1917 0.839998 43.4917 0.699998 43.8917 0.699998H44.3117C45.1117 0.699998 45.5117 1.12 45.5117 1.96V23.74C45.5117 24.58 45.1117 25 44.3117 25H43.8917ZM49.9686 5.86C49.8486 5.86 49.7286 5.72 49.6086 5.44C49.5286 5.16 49.4886 4.88 49.4886 4.6V2.02C49.4886 1.7 49.5286 1.42 49.6086 1.18C49.7286 0.899999 49.8486 0.759999 49.9686 0.759999H51.6486C51.8086 0.759999 51.9286 0.899999 52.0086 1.18C52.1286 1.42 52.1886 1.7 52.1886 2.02V4.6C52.1886 4.88 52.1286 5.16 52.0086 5.44C51.9286 5.72 51.8086 5.86 51.6486 5.86H49.9686ZM49.9686 25C49.8486 25 49.7286 24.86 49.6086 24.58C49.5286 24.3 49.4886 24.02 49.4886 23.74V8.08C49.4886 7.76 49.5286 7.48 49.6086 7.24C49.7286 6.96 49.8486 6.82 49.9686 6.82H51.6486C51.8086 6.82 51.9286 6.96 52.0086 7.24C52.1286 7.48 52.1886 7.76 52.1886 8.08V23.74C52.1886 24.02 52.1286 24.3 52.0086 24.58C51.9286 24.86 51.8086 25 51.6486 25H49.9686ZM66.0753 25C65.5553 25 65.2153 24.82 65.0553 24.46C64.2553 24.82 63.4353 25 62.5953 25H60.4353C58.9153 25 57.7153 24.54 56.8353 23.62C55.9953 22.66 55.5753 21.4 55.5753 19.84V12.52C55.5753 10.96 55.9953 9.72 56.8353 8.8C57.7153 7.84 58.9153 7.36 60.4353 7.36H66.4353C66.8353 7.36 67.1353 7.48 67.3353 7.72C67.5353 7.96 67.6353 8.24 67.6353 8.56V23.74C67.6353 24.1 67.5353 24.4 67.3353 24.64C67.1353 24.88 66.8353 25 66.4353 25H66.0753ZM64.9953 11.98C64.9953 11.62 64.9753 11.42 64.9353 11.38V11.02C64.9753 10.86 64.9353 10.68 64.8153 10.48C64.7353 10.28 64.4553 10.16 63.9753 10.12C63.9353 10.08 63.8353 10.06 63.6753 10.06C63.5553 10.06 63.4753 10.08 63.4353 10.12C63.2753 10.12 62.9753 10.14 62.5353 10.18C62.1353 10.18 61.4353 10.16 60.4353 10.12C58.9953 10.12 58.2753 10.92 58.2753 12.52V19.78C58.2753 21.42 58.9953 22.24 60.4353 22.24H62.5353C64.1353 22.24 64.9353 21.48 64.9353 19.96C64.9353 17.4 64.9353 15.54 64.9353 14.38C64.9753 13.22 64.9953 12.42 64.9953 11.98ZM72.3683 25C71.9683 25 71.6683 24.86 71.4683 24.58C71.3083 24.26 71.2283 23.98 71.2283 23.74V1.96C71.2283 1.68 71.3083 1.4 71.4683 1.12C71.6683 0.839998 71.9683 0.699998 72.3683 0.699998H72.7883C73.5883 0.699998 73.9883 1.12 73.9883 1.96V23.74C73.9883 24.58 73.5883 25 72.7883 25H72.3683Z" fill="#6C63FF"/>
</svg>
