<svg width="790" height="477" viewBox="0 0 790 477" fill="none" xmlns="http://www.w3.org/2000/svg">
<path d="M412.281 450.743C481.952 450.743 538.432 447.032 538.432 442.453C538.432 437.874 481.952 434.163 412.281 434.163C342.61 434.163 286.13 437.874 286.13 442.453C286.13 447.032 342.61 450.743 412.281 450.743Z" fill="#F2F2F2"/>
<path d="M198.986 477C231.53 477 257.912 475.266 257.912 473.127C257.912 470.989 231.53 469.255 198.986 469.255C166.442 469.255 140.06 470.989 140.06 473.127C140.06 475.266 166.442 477 198.986 477Z" fill="#F2F2F2"/>
<path d="M662.923 431.675C732.594 431.675 789.074 427.964 789.074 423.385C789.074 418.806 732.594 415.095 662.923 415.095C593.252 415.095 536.772 418.806 536.772 423.385C536.772 427.964 593.252 431.675 662.923 431.675Z" fill="#F2F2F2"/>
<path d="M5.60986 410.12H758.104" stroke="#2F2E41" stroke-width="2" stroke-miterlimit="10"/>
<path d="M757.951 0.988647H152.094V409.706H757.951V0.988647Z" fill="#3F3D56"/>
<path d="M152.094 30.8831H757.951" stroke="#2F2E41" stroke-width="2" stroke-miterlimit="10"/>
<path d="M170.768 23.3728C174.894 23.3728 178.238 20.0322 178.238 15.9114C178.238 11.7906 174.894 8.45001 170.768 8.45001C166.643 8.45001 163.299 11.7906 163.299 15.9114C163.299 20.0322 166.643 23.3728 170.768 23.3728Z" fill="#6C63FF"/>
<path d="M193.177 23.7873C197.302 23.7873 200.646 20.4467 200.646 16.3259C200.646 12.2051 197.302 8.86453 193.177 8.86453C189.051 8.86453 185.707 12.2051 185.707 16.3259C185.707 20.4467 189.051 23.7873 193.177 23.7873Z" fill="#6C63FF"/>
<path d="M215.585 24.2018C219.71 24.2018 223.054 20.8612 223.054 16.7404C223.054 12.6196 219.71 9.27905 215.585 9.27905C211.459 9.27905 208.115 12.6196 208.115 16.7404C208.115 20.8612 211.459 24.2018 215.585 24.2018Z" fill="#6C63FF"/>
<path opacity="0.3" d="M701.1 58.607H189.856V158.092H701.1V58.607Z" fill="#6C63FF"/>
<path opacity="0.3" d="M189.856 158.092L701.1 58.607" stroke="#6C63FF" stroke-width="2" stroke-miterlimit="10"/>
<path opacity="0.3" d="M701.1 158.092L189.856 58.607" stroke="#6C63FF" stroke-width="2" stroke-miterlimit="10"/>
<path opacity="0.3" d="M311.858 221.099H189.856V381.104H311.858V221.099Z" fill="#6C63FF"/>
<path opacity="0.3" d="M701.101 221.099H579.099V381.104H701.101V221.099Z" fill="#6C63FF"/>
<path opacity="0.3" d="M506.479 221.099H384.478V381.104H506.479V221.099Z" fill="#6C63FF"/>
<path opacity="0.3" d="M189.856 221.099L311.858 381.104" stroke="#6C63FF" stroke-width="2" stroke-miterlimit="10"/>
<path opacity="0.3" d="M311.858 221.099L189.856 381.104" stroke="#6C63FF" stroke-width="2" stroke-miterlimit="10"/>
<path opacity="0.3" d="M384.893 221.099L506.894 381.104" stroke="#6C63FF" stroke-width="2" stroke-miterlimit="10"/>
<path opacity="0.3" d="M506.894 221.099L384.893 381.104" stroke="#6C63FF" stroke-width="2" stroke-miterlimit="10"/>
<path opacity="0.3" d="M579.099 221.099L701.101 381.104" stroke="#6C63FF" stroke-width="2" stroke-miterlimit="10"/>
<path opacity="0.3" d="M701.101 221.099L579.099 381.104" stroke="#6C63FF" stroke-width="2" stroke-miterlimit="10"/>
<path d="M769.156 58.607H257.912V158.092H769.156V58.607Z" fill="#6C63FF"/>
<path d="M724.339 259.235H602.337V419.24H724.339V259.235Z" fill="#6C63FF"/>
<path d="M706.495 280.375H620.181V290.324H706.495V280.375Z" fill="#3F3D56"/>
<path d="M706.495 301.931H620.181V311.879H706.495V301.931Z" fill="#3F3D56"/>
<path d="M706.495 323.486H620.181V333.434H706.495V323.486Z" fill="#3F3D56"/>
<path d="M706.495 345.041H620.181V354.989H706.495V345.041Z" fill="#3F3D56"/>
<path d="M706.495 366.596H620.181V376.544H706.495V366.596Z" fill="#3F3D56"/>
<path d="M706.495 388.151H620.181V398.099H706.495V388.151Z" fill="#3F3D56"/>
<path d="M341.736 242.654H219.734V402.659H341.736V242.654Z" fill="#6C63FF"/>
<path d="M323.892 296.127H237.578V306.076H323.892V296.127Z" fill="#3F3D56"/>
<path d="M323.892 317.682H237.578V327.631H323.892V317.682Z" fill="#3F3D56"/>
<path d="M323.892 339.237H237.578V349.186H323.892V339.237Z" fill="#3F3D56"/>
<path d="M538.294 116.946C538.294 135.573 527.209 142.077 513.534 142.077C513.217 142.077 512.901 142.074 512.585 142.067C511.951 142.053 511.324 142.023 510.704 141.981C498.362 141.108 488.773 134.27 488.773 116.946C488.773 99.0177 511.708 76.3954 513.431 74.7212L513.434 74.7182C513.501 74.6534 513.534 74.6218 513.534 74.6218C513.534 74.6218 538.294 98.3185 538.294 116.946Z" fill="#3F3D56"/>
<path d="M512.632 139.228L521.688 126.587L512.609 140.615L512.585 142.067C511.951 142.053 511.324 142.023 510.704 141.981L511.68 123.344L511.672 123.2L511.689 123.173L511.781 121.412L502.68 107.35L511.81 120.092L511.831 120.466L512.568 106.385L504.777 91.8536L512.663 103.914L513.431 74.7212L513.434 74.6217V74.7181L513.306 97.7382L521.063 88.6121L513.275 99.7214L513.069 112.329L520.312 100.229L513.039 114.184L512.925 121.192L523.439 104.352L512.885 123.638L512.632 139.228Z" fill="#6C63FF"/>
<path d="M68.2471 155.67C78.9878 155.67 87.6948 146.972 87.6948 136.243C87.6948 125.514 78.9878 116.816 68.2471 116.816C57.5064 116.816 48.7993 125.514 48.7993 136.243C48.7993 146.972 57.5064 155.67 68.2471 155.67Z" fill="#2F2E41"/>
<path d="M58.0076 149.176C58.0076 149.176 58.3004 161.168 57.1292 161.46C55.9581 161.753 73.2329 166.432 73.2329 166.432L74.9896 150.054L58.0076 149.176Z" fill="#A0616A"/>
<path d="M194.449 251.543C194.449 251.543 207.332 251.543 207.625 250.08C207.918 248.618 210.553 262.072 210.553 262.072L205.283 263.827C205.283 263.827 195.328 259.44 194.449 259.44C193.571 259.44 194.449 251.543 194.449 251.543Z" fill="#A0616A"/>
<path d="M208.504 256.807C208.504 256.807 206.161 248.911 203.233 248.618C203.233 248.618 213.188 242.184 213.481 240.136C213.774 238.089 217.288 232.824 218.751 234.579C220.215 236.334 220.215 264.119 217.58 267.044C214.945 269.969 203.233 262.933 203.233 262.933C203.233 262.933 210.553 259.732 208.504 256.807Z" fill="#2F2E41"/>
<path d="M49.5169 368.826L47.1748 381.402L58.008 383.157V368.826H49.5169Z" fill="#A0616A"/>
<path d="M49.5164 379.94C49.5164 379.94 47.7596 374.383 46.5885 375.26C45.4173 376.138 43.6605 381.695 43.9533 383.157C44.2461 384.619 46.2957 396.026 45.4173 398.073C44.5389 400.121 49.8092 410.65 56.5435 409.772C63.2778 408.895 62.6921 403.045 62.6921 403.045L60.3498 393.979L59.4714 379.647C59.4714 379.647 51.8587 378.477 49.5164 379.94Z" fill="#2F2E41"/>
<path d="M61.4438 123.835C65.8883 123.835 69.4912 120.236 69.4912 115.797C69.4912 111.357 65.8883 107.758 61.4438 107.758C56.9994 107.758 53.3965 111.357 53.3965 115.797C53.3965 120.236 56.9994 123.835 61.4438 123.835Z" fill="#2F2E41"/>
<path d="M50.7141 111.442C50.7142 109.455 51.451 107.539 52.7822 106.063C54.1135 104.586 55.9449 103.654 57.9232 103.447C57.6447 103.418 57.3649 103.404 57.085 103.404C54.9507 103.404 52.9038 104.251 51.3946 105.758C49.8854 107.266 49.0376 109.31 49.0376 111.442C49.0376 113.574 49.8854 115.619 51.3946 117.127C52.9038 118.634 54.9507 119.481 57.085 119.481C57.3649 119.481 57.6447 119.467 57.9232 119.438C55.9449 119.23 54.1135 118.299 52.7822 116.822C51.451 115.346 50.7142 113.429 50.7141 111.442Z" fill="#2F2E41"/>
<path d="M68.2553 157.366C75.047 157.366 80.5527 151.866 80.5527 145.082C80.5527 138.297 75.047 132.798 68.2553 132.798C61.4637 132.798 55.958 138.297 55.958 145.082C55.958 151.866 61.4637 157.366 68.2553 157.366Z" fill="#A0616A"/>
<path d="M43.9536 230.485C43.9536 230.485 44.5392 245.108 46.8816 252.713C49.2239 260.317 57.6686 314.474 55.9119 318.568C54.1551 322.663 45.1248 367.948 47.1743 370.581C49.2239 373.213 58.8861 372.335 58.8861 372.335L72.0155 317.398C72.0155 317.398 69.4267 256.807 91.0934 255.345C112.76 253.883 148.188 253.005 148.188 253.005C148.188 253.005 171.026 259.732 181.274 259.44C191.522 259.147 197.377 262.072 197.377 262.072L199.134 250.08L153.751 240.136C153.751 240.136 112.175 225.805 89.3366 229.607C66.4987 233.409 43.9536 230.485 43.9536 230.485Z" fill="#2F2E41"/>
<path d="M60.3502 157.658C60.3502 157.658 56.8366 155.611 55.9583 157.658C55.0799 159.705 48.9312 161.46 46.5889 159.705C44.2465 157.951 38.3907 160.29 38.3907 160.29L31.9492 179.301C31.9492 179.301 35.1699 195.68 38.0979 204.747C41.0258 213.813 42.197 232.532 41.0258 234.287C39.8547 236.042 64.4493 243.061 76.4538 238.674C88.4583 234.287 91.0935 229.315 91.0935 229.315C91.0935 229.315 77.9178 210.596 82.3097 201.822C86.7016 193.048 83.188 183.103 83.188 183.103L84.9448 173.159L74.9898 167.602C74.9898 167.602 74.4043 162.338 72.0619 162.338C69.7196 162.338 60.3502 157.658 60.3502 157.658Z" fill="#D0CDE1"/>
<path d="M80.5526 173.452H84.9445C86.1628 174.591 87.0708 176.02 87.583 177.607C88.0953 179.193 88.1949 180.883 87.8724 182.519C86.7012 188.076 81.4193 206.499 81.4193 206.499L77.0391 195.095L80.5526 173.452Z" fill="#D0CDE1"/>
<path d="M93.1645 220.422C93.1645 220.422 101.927 229.9 95.4853 234.872C89.0438 239.844 87.4565 223.465 87.4565 223.465L93.1645 220.422Z" fill="#A0616A"/>
<path d="M80.553 200.652L82.6025 208.841L86.116 215.276C86.116 215.276 98.1205 223.173 98.1205 226.097C98.1205 226.097 92.8503 219.371 86.116 226.097L80.1138 211.62L80.553 200.652Z" fill="#D0CDE1"/>
<path d="M70.5094 140.163C77.9168 140.163 83.9217 136.564 83.9217 132.124C83.9217 127.685 77.9168 124.086 70.5094 124.086C63.102 124.086 57.0972 127.685 57.0972 132.124C57.0972 136.564 63.102 140.163 70.5094 140.163Z" fill="#2F2E41"/>
<path d="M43.9536 132.798C43.9536 132.798 53.323 127.533 57.1293 131.335C60.9356 135.137 45.7104 140.987 45.7104 140.987L43.9536 132.798Z" fill="#A0616A"/>
<path d="M40.44 161.753L38.3904 160.29C38.3904 160.29 36.0481 156.781 33.9985 157.951C31.949 159.12 19.9444 153.563 19.9444 153.563C19.9444 153.563 24.3363 155.611 24.3363 152.101C24.3363 148.591 24.9219 149.176 27.8498 149.176C30.7778 149.176 30.7778 150.639 31.9489 148.591C33.1201 146.544 32.5345 145.374 34.5841 146.544C36.6336 147.714 38.976 146.836 39.5616 145.959C40.1471 145.082 50.6877 143.619 50.6877 143.619C50.6877 143.619 46.5887 131.628 45.7103 130.75C44.8318 129.873 22.2868 139.817 22.2868 139.817C22.2868 139.817 -6.11414 147.714 1.2057 156.781C8.52554 165.847 34.8769 179.594 34.8769 179.594L40.44 161.753Z" fill="#D0CDE1"/>
<path d="M479.506 282.448H357.505V442.453H479.506V282.448Z" fill="#6C63FF"/>
<path d="M445.894 307.734H391.118V362.451H445.894V307.734Z" fill="#3F3D56"/>
<path d="M466.642 374.057H370.369V380.689H466.642V374.057Z" fill="#3F3D56"/>
<path d="M466.642 392.296H370.369V398.928H466.642V392.296Z" fill="#3F3D56"/>
<path d="M466.642 410.535H370.369V417.167H466.642V410.535Z" fill="#3F3D56"/>
<path d="M217.969 456.077C217.969 468.165 210.776 472.386 201.901 472.386C201.696 472.386 201.49 472.383 201.285 472.379C200.874 472.37 200.467 472.35 200.065 472.323C192.055 471.757 185.833 467.319 185.833 456.077C185.833 444.442 200.717 429.762 201.835 428.675L201.837 428.673C201.88 428.631 201.901 428.611 201.901 428.611C201.901 428.611 217.969 443.989 217.969 456.077Z" fill="#6C63FF"/>
<path d="M201.316 470.536L207.193 462.334L201.301 471.437L201.285 472.379C200.874 472.37 200.467 472.351 200.065 472.323L200.698 460.229L200.693 460.135L200.704 460.118L200.764 458.975L194.857 449.849L200.782 458.119L200.796 458.361L201.275 449.224L196.218 439.793L201.336 447.62L201.835 428.675L201.837 428.611V428.673L201.753 443.612L206.787 437.69L201.733 444.899L201.6 453.08L206.3 445.229L201.58 454.284L201.506 458.833L208.329 447.904L201.48 460.42L201.316 470.536Z" fill="#3F3D56"/>
</svg>
