<svg width="1440" height="556" viewBox="0 0 1440 556" fill="none" xmlns="http://www.w3.org/2000/svg">
<path opacity="0.3" d="M20.3299 401.044C27.7834 401.044 33.8257 394.993 33.8257 387.528C33.8257 380.063 27.7834 374.011 20.3299 374.011C12.8763 374.011 6.83398 380.063 6.83398 387.528C6.83398 394.993 12.8763 401.044 20.3299 401.044Z" fill="#CCCCCC"/>
<path d="M20.3306 395.178C24.5496 395.178 27.9698 391.753 27.9698 387.528C27.9698 383.302 24.5496 379.877 20.3306 379.877C16.1116 379.877 12.6914 383.302 12.6914 387.528C12.6914 391.753 16.1116 395.178 20.3306 395.178Z" fill="#6C63FF"/>
<path d="M20.5847 409.974L-25 409.205L-24.9913 408.695L20.0755 409.456V387.528H20.5847V409.974Z" fill="#2F2E41"/>
<path opacity="0.3" d="M1379.39 543.501C1384.18 537.783 1383.41 529.266 1377.68 524.477C1371.96 519.688 1363.44 520.441 1358.66 526.159C1353.88 531.876 1354.64 540.394 1360.37 545.183C1366.09 549.972 1374.61 549.219 1379.39 543.501Z" fill="#CCCCCC"/>
<path d="M1374.89 539.738C1377.6 536.502 1377.17 531.681 1373.93 528.97C1370.68 526.259 1365.86 526.686 1363.16 529.922C1360.45 533.158 1360.88 537.979 1364.12 540.69C1367.37 543.401 1372.19 542.975 1374.89 539.738Z" fill="#6C63D7"/>
<path d="M1441.25 496.971L1392.4 555.376L1368.54 535.416L1368.86 535.025L1392.34 554.658L1440.85 496.644L1441.25 496.971Z" fill="#2F2E41"/>
<path opacity="0.3" d="M1325.5 194.044C1332.95 194.044 1338.99 187.993 1338.99 180.528C1338.99 173.063 1332.95 167.011 1325.5 167.011C1318.04 167.011 1312 173.063 1312 180.528C1312 187.993 1318.04 194.044 1325.5 194.044Z" fill="#CCCCCC"/>
<path d="M1325.49 188.178C1329.71 188.178 1333.13 184.753 1333.13 180.528C1333.13 176.302 1329.71 172.877 1325.49 172.877C1321.28 172.877 1317.86 176.302 1317.86 180.528C1317.86 184.753 1321.28 188.178 1325.49 188.178Z" fill="#6C63D7"/>
<path d="M1440.08 208.58H1325.24V180.783H1325.75V208.07H1440.08V208.58Z" fill="#2F2E41"/>
<path opacity="0.3" d="M43.367 27.044C50.8205 27.044 56.8629 20.9925 56.8629 13.5277C56.8629 6.06282 50.8205 0.0113525 43.367 0.0113525C35.9134 0.0113525 29.8711 6.06282 29.8711 13.5277C29.8711 20.9925 35.9134 27.044 43.367 27.044Z" fill="#CCCCCC"/>
<path d="M43.3677 21.1785C47.5867 21.1785 51.0069 17.7531 51.0069 13.5277C51.0069 9.30231 47.5867 5.87695 43.3677 5.87695C39.1487 5.87695 35.7285 9.30231 35.7285 13.5277C35.7285 17.7531 39.1487 21.1785 43.3677 21.1785Z" fill="#6C63D7"/>
<path d="M-18.5299 71.0068L-19 70.8099L5.00152 13.2726H43.367V13.7827H5.34071L-18.5299 71.0068Z" fill="#2F2E41"/>
</svg>
