<svg width="290" height="168" viewBox="0 0 290 168" fill="none" xmlns="http://www.w3.org/2000/svg">
<g clip-path="url(#clip0)">
<path d="M62.8351 148.67C71.1644 148.67 77.9167 141.883 77.9167 133.511C77.9167 125.139 71.1644 118.351 62.8351 118.351C54.5057 118.351 47.7534 125.139 47.7534 133.511C47.7534 141.883 54.5057 148.67 62.8351 148.67Z" fill="#F2F2F2"/>
<path d="M65.2872 146.452C73.6166 146.452 80.3688 139.665 80.3688 131.292C80.3688 122.92 73.6166 116.133 65.2872 116.133C56.9578 116.133 50.2056 122.92 50.2056 131.292C50.2056 139.665 56.9578 146.452 65.2872 146.452Z" fill="#6C66DD"/>
<path d="M264.034 114.519H77.4331V115.031H264.034V114.519Z" fill="#3F3D56"/>
<path d="M174.074 4.77276H107.842V3.40063H77.8104V4.77276H11.3058C10.7174 4.77276 10.1349 4.88924 9.59131 5.11554C9.04776 5.34185 8.55388 5.67355 8.13787 6.09171C7.72185 6.50987 7.39185 7.00629 7.16671 7.55264C6.94156 8.09899 6.82568 8.68456 6.82568 9.27593V100.435C6.82568 101.629 7.29769 102.775 8.13786 103.619C8.97804 104.464 10.1176 104.938 11.3058 104.938H174.074C175.262 104.938 176.402 104.464 177.242 103.619C178.082 102.775 178.554 101.629 178.554 100.435V9.27593C178.554 8.68456 178.438 8.09899 178.213 7.55264C177.988 7.00629 177.658 6.50987 177.242 6.09171C176.826 5.67355 176.332 5.34185 175.789 5.11554C175.245 4.88924 174.662 4.77276 174.074 4.77276V4.77276Z" fill="#3F3D56"/>
<path d="M172.548 12.7311H12.832V103.292H172.548V12.7311Z" fill="#6C66DD"/>
<path d="M92.5532 10.2613C93.4579 10.2613 94.1913 9.52412 94.1913 8.61475C94.1913 7.70539 93.4579 6.9682 92.5532 6.9682C91.6484 6.9682 90.915 7.70539 90.915 8.61475C90.915 9.52412 91.6484 10.2613 92.5532 10.2613Z" fill="#6C66DD"/>
<path opacity="0.1" d="M126.872 103.292H12.832V12.7312L126.872 103.292Z" fill="black"/>
<path d="M37.8226 96.5148C46.3015 96.5148 53.175 89.6059 53.175 81.0834C53.175 72.5608 46.3015 65.6519 37.8226 65.6519C29.3437 65.6519 22.4702 72.5608 22.4702 81.0834C22.4702 89.6059 29.3437 96.5148 37.8226 96.5148Z" fill="#F2F2F2"/>
<path d="M144.739 61.571H129.819V64.7046H144.739V61.571Z" fill="#3F3D56"/>
<path d="M162.775 37.1744H111.783V38.5174H162.775V37.1744Z" fill="#3F3D56"/>
<path d="M162.775 41.4271H111.783V42.77H162.775V41.4271Z" fill="#3F3D56"/>
<path d="M162.775 45.6797H111.783V47.0226H162.775V45.6797Z" fill="#3F3D56"/>
<path d="M162.775 49.9323H111.783V51.2753H162.775V49.9323Z" fill="#3F3D56"/>
<path d="M162.775 54.1849H111.783V55.5279H162.775V54.1849Z" fill="#3F3D56"/>
<path d="M162.775 14.5684H156.54V20.8354H162.775V14.5684Z" fill="#F2F2F2"/>
<path d="M165.67 23.7451H158.099V16.1351H165.67V23.7451ZM158.428 23.4142H165.341V16.466H158.428V23.4142Z" fill="#3F3D56"/>
<path d="M183.038 101.645H167.451V100.516C167.451 100.487 167.445 100.458 167.434 100.43C167.423 100.403 167.407 100.379 167.386 100.358C167.365 100.337 167.341 100.321 167.314 100.309C167.287 100.298 167.258 100.292 167.229 100.292H161.884C161.855 100.292 161.826 100.298 161.799 100.309C161.772 100.321 161.748 100.337 161.727 100.358C161.706 100.379 161.69 100.403 161.679 100.43C161.667 100.458 161.662 100.487 161.662 100.516V101.645H158.322V100.516C158.322 100.487 158.316 100.458 158.305 100.43C158.293 100.403 158.277 100.379 158.256 100.358C158.236 100.337 158.211 100.321 158.184 100.309C158.157 100.298 158.128 100.292 158.099 100.292H152.755C152.725 100.292 152.696 100.298 152.669 100.309C152.642 100.321 152.618 100.337 152.597 100.358C152.577 100.379 152.56 100.403 152.549 100.43C152.538 100.458 152.532 100.487 152.532 100.516V101.645H149.192V100.516C149.192 100.487 149.186 100.458 149.175 100.43C149.164 100.403 149.147 100.379 149.127 100.358C149.106 100.337 149.081 100.321 149.054 100.309C149.027 100.298 148.998 100.292 148.969 100.292H143.625C143.596 100.292 143.567 100.298 143.54 100.309C143.513 100.321 143.488 100.337 143.468 100.358C143.447 100.379 143.431 100.403 143.419 100.43C143.408 100.458 143.402 100.487 143.402 100.516V101.645H140.062V100.516C140.062 100.487 140.057 100.458 140.045 100.43C140.034 100.403 140.018 100.379 139.997 100.358C139.976 100.337 139.952 100.321 139.925 100.309C139.898 100.298 139.869 100.292 139.84 100.292H134.495C134.466 100.292 134.437 100.298 134.41 100.309C134.383 100.321 134.359 100.337 134.338 100.358C134.317 100.379 134.301 100.403 134.29 100.43C134.278 100.458 134.273 100.487 134.273 100.516V101.645H130.933V100.516C130.933 100.487 130.927 100.458 130.916 100.43C130.904 100.403 130.888 100.379 130.867 100.358C130.847 100.337 130.822 100.321 130.795 100.309C130.768 100.298 130.739 100.292 130.71 100.292H125.366C125.336 100.292 125.308 100.298 125.281 100.309C125.254 100.321 125.229 100.337 125.208 100.358C125.188 100.379 125.171 100.403 125.16 100.43C125.149 100.458 125.143 100.487 125.143 100.516V101.645H121.803V100.516C121.803 100.487 121.797 100.458 121.786 100.43C121.775 100.403 121.758 100.379 121.738 100.358C121.717 100.337 121.693 100.321 121.665 100.309C121.638 100.298 121.61 100.292 121.58 100.292H116.236C116.207 100.292 116.178 100.298 116.151 100.309C116.124 100.321 116.099 100.337 116.079 100.358C116.058 100.379 116.042 100.403 116.03 100.43C116.019 100.458 116.013 100.487 116.013 100.516V101.645H112.673V100.516C112.673 100.487 112.668 100.458 112.656 100.43C112.645 100.403 112.629 100.379 112.608 100.358C112.587 100.337 112.563 100.321 112.536 100.309C112.509 100.298 112.48 100.292 112.451 100.292H70.5878C70.5586 100.292 70.5296 100.298 70.5026 100.309C70.4756 100.321 70.451 100.337 70.4304 100.358C70.4097 100.379 70.3933 100.403 70.3821 100.43C70.3709 100.458 70.3651 100.487 70.3651 100.516V101.645H67.025V100.516C67.025 100.487 67.0193 100.458 67.0081 100.43C66.9969 100.403 66.9805 100.379 66.9598 100.358C66.9391 100.337 66.9146 100.321 66.8876 100.309C66.8605 100.298 66.8316 100.292 66.8023 100.292H61.4582C61.4289 100.292 61.4 100.298 61.3729 100.309C61.3459 100.321 61.3214 100.337 61.3007 100.358C61.28 100.379 61.2636 100.403 61.2524 100.43C61.2412 100.458 61.2355 100.487 61.2355 100.516V101.645H57.8954V100.516C57.8954 100.487 57.8896 100.458 57.8784 100.43C57.8672 100.403 57.8508 100.379 57.8301 100.358C57.8095 100.337 57.7849 100.321 57.7579 100.309C57.7309 100.298 57.7019 100.292 57.6727 100.292H52.3285C52.2993 100.292 52.2703 100.298 52.2433 100.309C52.2163 100.321 52.1917 100.337 52.171 100.358C52.1504 100.379 52.134 100.403 52.1228 100.43C52.1116 100.458 52.1058 100.487 52.1058 100.516V101.645H48.7657V100.516C48.7657 100.487 48.76 100.458 48.7488 100.43C48.7376 100.403 48.7212 100.379 48.7005 100.358C48.6798 100.337 48.6553 100.321 48.6283 100.309C48.6012 100.298 48.5723 100.292 48.543 100.292H43.1988C43.1696 100.292 43.1407 100.298 43.1136 100.309C43.0866 100.321 43.0621 100.337 43.0414 100.358C43.0207 100.379 43.0043 100.403 42.9931 100.43C42.9819 100.458 42.9762 100.487 42.9762 100.516V101.645H39.6361V100.516C39.6361 100.487 39.6303 100.458 39.6191 100.43C39.6079 100.403 39.5915 100.379 39.5709 100.358C39.5502 100.337 39.5256 100.321 39.4986 100.309C39.4716 100.298 39.4426 100.292 39.4134 100.292H34.0692C34.04 100.292 34.011 100.298 33.984 100.309C33.957 100.321 33.9324 100.337 33.9117 100.358C33.8911 100.379 33.8747 100.403 33.8635 100.43C33.8523 100.458 33.8465 100.487 33.8465 100.516V101.645H30.5064V100.516C30.5064 100.487 30.5007 100.458 30.4895 100.43C30.4783 100.403 30.4619 100.379 30.4412 100.358C30.4205 100.337 30.396 100.321 30.3689 100.309C30.3419 100.298 30.313 100.292 30.2837 100.292H24.9395C24.9103 100.292 24.8813 100.298 24.8543 100.309C24.8273 100.321 24.8028 100.337 24.7821 100.358C24.7614 100.379 24.745 100.403 24.7338 100.43C24.7226 100.458 24.7169 100.487 24.7169 100.516V101.645H21.3768V100.516C21.3768 100.487 21.371 100.458 21.3598 100.43C21.3486 100.403 21.3322 100.379 21.3115 100.358C21.2909 100.337 21.2663 100.321 21.2393 100.309C21.2123 100.298 21.1833 100.292 21.1541 100.292H15.8099C15.7806 100.292 15.7517 100.298 15.7247 100.309C15.6977 100.321 15.6731 100.337 15.6524 100.358C15.6318 100.379 15.6154 100.403 15.6042 100.43C15.593 100.458 15.5872 100.487 15.5872 100.516V101.645H5.34419C3.92682 101.645 2.56751 102.211 1.56528 103.218C0.563049 104.226 1.35033e-06 105.592 0 107.017V109.446C4.05098e-06 110.87 0.563053 112.237 1.56528 113.244C2.56751 114.251 3.92682 114.817 5.34419 114.817H183.038C184.456 114.817 185.815 114.251 186.817 113.244C187.82 112.237 188.383 110.87 188.383 109.446V107.017C188.383 105.592 187.82 104.226 186.817 103.218C185.815 102.211 184.456 101.645 183.038 101.645Z" fill="#3F3D56"/>
<path d="M41.5388 90.7216C37.7123 90.7216 33.9716 89.5811 30.79 87.4442C27.6083 85.3073 25.1285 82.2701 23.6641 78.7166C22.1998 75.1631 21.8166 71.253 22.5632 67.4806C23.3097 63.7082 25.1524 60.2431 27.8581 57.5233C30.5639 54.8036 34.0113 52.9514 37.7643 52.2011C41.5174 51.4507 45.4075 51.8358 48.9427 53.3077C52.478 54.7796 55.4997 57.2722 57.6256 60.4703C59.7515 63.6683 60.8862 67.4282 60.8862 71.2745C60.8804 76.4304 58.8402 81.3735 55.2131 85.0193C51.586 88.6651 46.6683 90.7158 41.5388 90.7216ZM41.5388 52.3392C37.813 52.3392 34.1708 53.4497 31.0728 55.5304C27.9749 57.611 25.5604 60.5683 24.1345 64.0283C22.7087 67.4883 22.3357 71.2955 23.0625 74.9686C23.7894 78.6417 25.5836 82.0157 28.2182 84.6639C30.8527 87.312 34.2094 89.1154 37.8637 89.846C41.5179 90.5767 45.3057 90.2017 48.7479 88.7685C52.1901 87.3353 55.1323 84.9084 57.2023 81.7945C59.2722 78.6805 60.3771 75.0196 60.3771 71.2745C60.3714 66.2543 58.3849 61.4413 54.8532 57.8915C51.3216 54.3416 46.5333 52.3448 41.5388 52.3392V52.3392Z" fill="#3F3D56"/>
<path d="M214.138 8.32727H149.222V8.83904H214.138V8.32727Z" fill="#3F3D56"/>
<path d="M290 143.434H103.399V143.945H290V143.434Z" fill="#3F3D56"/>
<path d="M113.964 166.975H49.0488V167.487H113.964V166.975Z" fill="#3F3D56"/>
<path d="M127.031 140.736H119.903V147.901H127.031V140.736Z" fill="#6C66DD"/>
<path d="M131.359 143.806H122.703V135.106H131.359V143.806ZM123.079 143.428H130.982V135.485H123.079V143.428Z" fill="#3F3D56"/>
<path d="M209.767 5.62946H202.639V12.7942H209.767V5.62946Z" fill="#6C66DD"/>
<path d="M214.094 8.70003H205.439V0H214.094V8.70003ZM205.815 8.32177H213.718V0.378263H205.815V8.32177Z" fill="#3F3D56"/>
<path d="M281.556 140.736H274.428V147.901H281.556V140.736Z" fill="#6C66DD"/>
<path d="M285.883 143.806H277.228V135.106H285.883V143.806ZM277.604 143.428H285.507V135.485H277.604V143.428Z" fill="#3F3D56"/>
<path d="M269.125 59.3542H268.52V42.6805C268.52 41.4132 268.272 40.1583 267.789 38.9874C267.307 37.8166 266.599 36.7528 265.708 35.8567C264.816 34.9605 263.758 34.2497 262.593 33.7647C261.428 33.2798 260.18 33.0301 258.919 33.0302H223.775C222.514 33.0301 221.265 33.2798 220.101 33.7647C218.936 34.2497 217.877 34.9605 216.986 35.8567C216.094 36.7528 215.387 37.8166 214.905 38.9874C214.422 40.1583 214.174 41.4132 214.174 42.6805V134.154C214.174 135.421 214.422 136.676 214.905 137.847C215.387 139.018 216.094 140.082 216.986 140.978C217.877 141.874 218.936 142.585 220.101 143.07C221.265 143.555 222.514 143.804 223.775 143.804H258.919C260.18 143.804 261.428 143.555 262.593 143.07C263.758 142.585 264.816 141.874 265.708 140.978C266.599 140.082 267.307 139.018 267.789 137.847C268.272 136.676 268.52 135.421 268.52 134.154V71.2229H269.125V59.3542Z" fill="#3F3D56"/>
<path d="M266.475 43.2477V134.588C266.476 136.499 265.721 138.332 264.376 139.684C263.032 141.036 261.208 141.796 259.307 141.796H223.992C222.091 141.796 220.267 141.036 218.923 139.684C217.578 138.332 216.823 136.499 216.824 134.588V43.2477C216.824 41.3367 217.579 39.504 218.924 38.1527C220.268 36.8014 222.091 36.0422 223.992 36.042H228.277C228.066 36.5618 227.986 37.1258 228.043 37.6843C228.1 38.2428 228.293 38.7785 228.604 39.2444C228.916 39.7103 229.337 40.0921 229.83 40.356C230.323 40.6199 230.873 40.758 231.431 40.7579H251.565C252.124 40.758 252.674 40.6199 253.167 40.356C253.659 40.0921 254.08 39.7104 254.392 39.2445C254.704 38.7785 254.896 38.2428 254.953 37.6843C255.01 37.1258 254.93 36.5618 254.719 36.042H259.307C261.208 36.0422 263.031 36.8014 264.375 38.1527C265.72 39.504 266.475 41.3367 266.475 43.2477V43.2477Z" fill="#6C66DD"/>
<path d="M246.909 96.2678H236.39V99.4013H246.909V96.2678Z" fill="#3F3D56"/>
<path d="M259.628 71.8712H223.672V73.2141H259.628V71.8712Z" fill="#3F3D56"/>
<path d="M259.628 76.1238H223.672V77.4667H259.628V76.1238Z" fill="#3F3D56"/>
<path d="M259.628 80.3765H223.672V81.7194H259.628V80.3765Z" fill="#3F3D56"/>
<path d="M259.628 84.629H223.672V85.972H259.628V84.629Z" fill="#3F3D56"/>
<path d="M259.628 88.8817H223.672V90.2246H259.628V88.8817Z" fill="#3F3D56"/>
<path d="M242.905 54.0371H236.67V60.3041H242.905V54.0371Z" fill="#F2F2F2"/>
<path d="M239.057 55.6042V63.2142H246.628V55.6042H239.057ZM246.3 62.8841H239.386V55.9343H246.3V62.8841Z" fill="#3F3D56"/>
<path opacity="0.1" d="M266.475 124.833V134.588C266.476 136.499 265.721 138.332 264.376 139.684C263.032 141.036 261.208 141.796 259.307 141.796H223.992C222.091 141.796 220.267 141.036 218.923 139.684C217.578 138.332 216.823 136.499 216.824 134.588V85.4044L246.575 109.03L247.085 109.434L252.619 113.828L253.136 114.24L266.475 124.833Z" fill="black"/>
<path d="M238.595 138.836C244.762 138.836 249.762 133.81 249.762 127.611C249.762 121.411 244.762 116.386 238.595 116.386C232.427 116.386 227.427 121.411 227.427 127.611C227.427 133.81 232.427 138.836 238.595 138.836Z" fill="#F2F2F2"/>
<path d="M81.5066 167.487C77.1262 167.487 72.8442 166.181 69.202 163.735C65.5598 161.289 62.7211 157.812 61.0448 153.744C59.3685 149.676 58.9299 145.2 59.7845 140.882C60.639 136.563 62.7484 132.597 65.8458 129.483C68.9432 126.37 72.8896 124.25 77.1858 123.391C81.482 122.532 85.9352 122.973 89.9822 124.658C94.0291 126.342 97.4881 129.196 99.9217 132.857C102.355 136.518 103.654 140.822 103.654 145.225C103.648 151.127 101.312 156.785 97.1601 160.959C93.008 165.132 87.3785 167.48 81.5066 167.487ZM81.5066 123.475C77.2269 123.475 73.0433 124.75 69.4849 127.14C65.9264 129.53 63.153 132.927 61.5152 136.901C59.8774 140.876 59.4489 145.249 60.2838 149.468C61.1187 153.687 63.1796 157.563 66.2058 160.604C69.232 163.646 73.0877 165.718 77.2851 166.557C81.4826 167.396 85.8334 166.965 89.7873 165.319C93.7412 163.673 97.1207 160.885 99.4984 157.309C101.876 153.732 103.145 149.527 103.145 145.225C103.139 139.458 100.857 133.93 96.8002 129.852C92.7436 125.775 87.2435 123.481 81.5066 123.475V123.475Z" fill="#3F3D56"/>
<path d="M241.886 136.269C239.117 136.269 236.41 135.443 234.107 133.897C231.805 132.351 230.01 130.153 228.951 127.581C227.891 125.009 227.614 122.18 228.154 119.45C228.694 116.72 230.028 114.212 231.986 112.244C233.944 110.276 236.439 108.935 239.155 108.392C241.871 107.849 244.686 108.128 247.244 109.193C249.803 110.258 251.989 112.062 253.528 114.376C255.066 116.691 255.888 119.412 255.888 122.195C255.883 125.927 254.407 129.504 251.782 132.142C249.157 134.781 245.598 136.265 241.886 136.269V136.269ZM241.886 108.633C239.218 108.633 236.609 109.429 234.39 110.919C232.171 112.409 230.442 114.527 229.421 117.005C228.4 119.483 228.133 122.21 228.653 124.841C229.174 127.472 230.459 129.888 232.346 131.785C234.233 133.682 236.637 134.973 239.254 135.496C241.871 136.02 244.584 135.751 247.049 134.725C249.515 133.698 251.622 131.96 253.105 129.73C254.587 127.5 255.378 124.878 255.378 122.195C255.374 118.6 253.952 115.153 251.422 112.61C248.893 110.068 245.463 108.638 241.886 108.633Z" fill="#3F3D56"/>
</g>
<defs>
<clipPath id="clip0">
<rect width="290" height="167.487" fill="white"/>
</clipPath>
</defs>
</svg>
