<svg width="120" height="78" viewBox="0 0 120 78" fill="none" xmlns="http://www.w3.org/2000/svg">
<g clip-path="url(#clip0)">
<path d="M110.748 62.7657L111.596 59.3919C113.098 58.7492 114.635 58.1924 116.199 57.7244L116.306 59.2924L116.74 57.565C118.68 57.0056 120 56.7593 120 56.7593C120 56.7593 118.217 63.6039 114.478 68.8367L110.121 69.6094L113.506 70.1021C113.035 70.6737 112.529 71.2147 111.992 71.7221C106.552 76.8198 100.493 79.1587 98.4589 76.9461C96.4246 74.7335 99.1853 68.8074 104.625 63.7097C106.311 62.1294 108.43 60.8612 110.55 59.8631L110.748 62.7657Z" fill="#E6E6E6"/>
<path d="M102.691 59.102L101.688 55.7717C102.645 54.4375 103.676 53.1588 104.776 51.9417L105.67 53.2281L105.157 51.5231C106.531 50.0318 107.535 49.1321 107.535 49.1321C107.535 49.1321 109.513 55.9218 108.991 62.3527L105.657 65.288L108.807 63.9434C108.697 64.6782 108.541 65.4053 108.34 66.1203C106.294 73.3229 102.304 78.4869 99.4303 77.6545C96.5561 76.822 95.8853 70.3083 97.932 63.1056C98.5665 60.8728 99.7306 58.6816 101.035 56.7205L102.691 59.102Z" fill="#E6E6E6"/>
<path d="M9.37502 66.2776L7.47555 65.0721C7.38224 64.0042 7.34867 62.9319 7.375 61.8601L8.35806 62.1073L7.38552 61.4901C7.43111 60.1652 7.54438 59.2908 7.54438 59.2908C7.54438 59.2908 11.3852 61.7764 13.8455 65.1622L13.4466 68.0408L14.4269 66.0234C14.6831 66.4321 14.9137 66.8566 15.1171 67.2945C17.154 71.7162 17.3748 75.9724 15.6103 76.8009C13.8458 77.6293 10.7642 74.7164 8.7274 70.2947C8.09596 68.9239 7.7425 67.3456 7.55511 65.82L9.37502 66.2776Z" fill="#E6E6E6"/>
<path d="M5.51373 70.5811L3.27051 70.5405C2.64389 69.675 2.06611 68.7745 1.53993 67.8433L2.50804 67.5419L1.35951 67.5211C0.720204 66.3631 0.369461 65.5554 0.369461 65.5554C0.369461 65.5554 4.92994 65.6788 8.76958 67.2933L9.90196 69.9657L9.70822 67.7272C10.1368 67.9433 10.5515 68.1864 10.9499 68.455C14.9574 71.1773 17.3255 74.7055 16.2392 76.3355C15.1529 77.9655 11.0235 77.0801 7.01604 74.3579C5.77368 73.514 4.66301 72.3473 3.72152 71.1391L5.51373 70.5811Z" fill="#E6E6E6"/>
<path d="M0.182152 77.6448H119.727V77.9493H0.182152V77.6448Z" fill="#3F3D56"/>
<path d="M85.789 8.40316L86.0986 8.24634L86.9374 9.93423L86.6278 10.0911L85.789 8.40316Z" fill="white"/>
<path d="M87.5732 50.641L87.6758 50.6531L87.6112 51.2122L87.5087 51.2002L87.5732 50.641Z" fill="#3F3D56"/>
<path d="M86.9606 55.5757L86.9932 55.4768L87.5224 55.6541L87.4898 55.753L86.9606 55.5757Z" fill="white"/>
<path d="M87.4404 52.6771L87.5435 52.6833L87.51 53.2453L87.4069 53.239L87.4404 52.6771Z" fill="white"/>
<path d="M87.9218 49.5958L88.0249 49.6021L87.9914 50.1639L87.8884 50.1577L87.9218 49.5958Z" fill="white"/>
<path d="M80.5565 51.894L80.5952 51.7974L81.1122 52.0082L81.0735 52.1049L80.5565 51.894Z" fill="#FF6584"/>
<path d="M86.6522 51.7296L86.752 51.7026L86.8963 52.2464L86.7965 52.2734L86.6522 51.7296Z" fill="#FF6584"/>
<path d="M81.1081 9.59668H81.4336V11.3714H81.1081V9.59668Z" fill="#3F3D56"/>
<path d="M81.3034 13.8691H81.6289V15.6439H81.3034V13.8691Z" fill="white"/>
<path d="M81.55 50.9609L81.6187 50.8916L81.9892 51.2657L81.9206 51.335L81.55 50.9609Z" fill="white"/>
<path d="M80.5754 56.6276L80.644 56.5583L81.0146 56.9325L80.946 57.0017L80.5754 56.6276Z" fill="white"/>
<path d="M81.3526 54.2788L81.4463 54.2534L81.5819 54.7644L81.4882 54.7898L81.3526 54.2788Z" fill="#FF6584"/>
<path d="M81.1106 52.3464L81.1792 52.2771L81.5497 52.6512L81.4811 52.7205L81.1106 52.3464Z" fill="#FF6584"/>
<path d="M82.601 52.2826C82.5176 52.1983 82.4706 52.084 82.4706 51.9648C82.4706 51.8456 82.5176 51.7313 82.601 51.647C82.6845 51.5627 82.7978 51.5154 82.9158 51.5154C83.0339 51.5154 83.1471 51.5627 83.2306 51.647L97.4355 65.9883C97.519 66.0726 97.5659 66.1869 97.5659 66.3061C97.5659 66.4253 97.519 66.5397 97.4355 66.6239C97.352 66.7082 97.2388 66.7556 97.1207 66.7556C97.0027 66.7556 96.8894 66.7082 96.806 66.6239L82.6925 52.3749" fill="#3F3D56"/>
<path d="M81.1488 50.4727C82.1835 49.4293 83.5282 48.7568 84.9773 48.5581C86.4264 48.3593 87.9001 48.6453 89.1729 49.3722C90.4458 50.0991 91.4478 51.2269 92.0257 52.5832C92.6035 53.9395 92.7255 55.4496 92.3728 56.8824C92.0201 58.3153 91.2123 59.5921 90.0728 60.5175C88.9334 61.443 87.525 61.9661 86.0632 62.0069C84.6014 62.0478 83.1665 61.604 81.9781 60.7436C80.7897 59.8832 79.9132 58.6535 79.4826 57.2425C79.1244 56.0678 79.0903 54.8167 79.3839 53.6238C79.6775 52.431 80.2877 51.3415 81.1488 50.4727V50.4727ZM86.6283 57.825C87.089 57.6958 87.5087 57.4485 87.8466 57.1071C87.915 57.0381 87.9782 56.9653 88.039 56.8912C88.4563 56.3721 88.6761 55.7193 88.6586 55.0509C88.6411 54.3825 88.3875 53.7424 87.9435 53.2462C87.4995 52.7501 86.8945 52.4305 86.2376 52.3452C85.5808 52.2599 84.9153 52.4145 84.3614 52.7811C83.8076 53.1477 83.4018 53.7022 83.2173 54.3444C83.0328 54.9865 83.0819 55.6742 83.3555 56.2831C83.6292 56.892 84.1094 57.382 84.7096 57.6648C85.3098 57.9475 85.9903 58.0043 86.6283 57.825Z" fill="#6C66DD"/>
<path d="M96.3165 12.9044C96.3165 12.5046 96.4738 12.1211 96.7539 11.8383C97.0339 11.5556 97.4138 11.3967 97.8098 11.3967C98.2059 11.3967 98.5858 11.5556 98.8658 11.8383C99.1459 12.1211 99.3032 12.5046 99.3032 12.9044V76.4502C99.3032 76.6482 99.2646 76.8442 99.1895 77.0271C99.1145 77.2101 99.0045 77.3763 98.8658 77.5163C98.7272 77.6563 98.5625 77.7673 98.3813 77.8431C98.2002 77.9189 98.006 77.9579 97.8098 77.9579C97.6137 77.9579 97.4195 77.9189 97.2384 77.8431C97.0572 77.7673 96.8925 77.6563 96.7539 77.5163C96.6152 77.3763 96.5052 77.2101 96.4302 77.0271C96.3551 76.8442 96.3165 76.6482 96.3165 76.4502V13.3423" fill="#3F3D56"/>
<path d="M77.2671 12.3412C79.8314 7.44426 84.0818 3.66393 89.2168 1.71319C94.3518 -0.237552 100.016 -0.223867 105.142 1.75166C110.268 3.72719 114.5 7.52801 117.041 12.4372C119.582 17.3465 120.256 23.0248 118.936 28.4012C117.616 33.7775 114.393 38.4804 109.874 41.6226C105.356 44.7649 99.8551 46.1294 94.409 45.4588C88.9629 44.7881 83.9481 42.1287 80.3104 37.9822C76.6727 33.8356 74.6636 28.4885 74.6621 22.9493C74.6606 19.2517 75.5549 15.6098 77.2671 12.3412V12.3412ZM92.5478 31.137C94.3294 32.1523 96.3926 32.5469 98.4186 32.26C100.445 31.973 102.321 31.0203 103.757 29.5493C105.193 28.0782 106.109 26.1705 106.364 24.1211C106.619 22.0717 106.198 19.9946 105.166 18.2109C104.135 16.4271 102.55 15.0359 100.657 14.2523C98.7645 13.4687 96.6687 13.3363 94.6938 13.8756C92.719 14.4149 90.975 15.5958 89.7313 17.2358C88.4877 18.8759 87.8137 20.8838 87.8135 22.9493C87.8086 24.6161 88.2449 26.254 89.0772 27.6935C89.9096 29.133 91.1077 30.3218 92.5478 31.137H92.5478Z" fill="#6C66DD"/>
<path opacity="0.2" d="M97.189 44.1798C103.025 44.1797 108.631 41.8865 112.821 37.7858C117.012 33.6852 119.457 28.099 119.638 22.2101C119.646 22.4554 119.65 22.7017 119.65 22.9488C119.651 25.9273 119.071 28.8767 117.942 31.6287C116.814 34.3806 115.159 36.8812 113.074 38.9875C110.988 41.0939 108.511 42.7647 105.786 43.9047C103.06 45.0447 100.139 45.6314 97.189 45.6314C94.2389 45.6314 91.3177 45.0447 88.5922 43.9047C85.8667 42.7647 83.3903 41.0939 81.3045 38.9875C79.2187 36.8812 77.5644 34.3806 76.4359 31.6287C75.3074 28.8767 74.727 25.9273 74.7277 22.9488C74.7277 22.7013 74.7317 22.4548 74.7396 22.2092C74.9212 28.0982 77.366 33.6847 81.5563 37.7855C85.7465 41.8864 91.3532 44.1797 97.189 44.1798V44.1798Z" fill="black"/>
<path opacity="0.2" d="M97.1242 11.6338C99.3407 11.6339 101.508 12.2976 103.35 13.541C105.193 14.7844 106.63 16.5516 107.478 18.6191C108.326 20.6867 108.548 22.9617 108.116 25.1566C107.683 27.3514 106.616 29.3676 105.048 30.95C103.481 32.5324 101.484 33.61 99.3102 34.0466C97.1362 34.4833 94.8828 34.2592 92.8349 33.4029C90.787 32.5466 89.0366 31.0964 87.8051 29.2357C86.5735 27.375 85.9161 25.1874 85.916 22.9496C85.9193 19.9495 87.1012 17.0732 89.2024 14.9518C91.3037 12.8304 94.1526 11.6371 97.1242 11.6338V11.6338ZM92.548 31.1372C94.3296 32.1525 96.3929 32.5472 98.4189 32.2602C100.445 31.9732 102.321 31.0206 103.757 29.5495C105.193 28.0784 106.109 26.1708 106.364 24.1214C106.619 22.072 106.198 19.9949 105.167 18.2111C104.135 16.4273 102.551 15.0361 100.658 14.2526C98.7648 13.469 96.6689 13.3366 94.6941 13.8758C92.7192 14.4151 90.9752 15.596 89.7316 17.2361C88.488 18.8762 87.814 20.8841 87.8138 22.9496C87.8088 24.6164 88.2451 26.2543 89.0774 27.6938C89.9098 29.1332 91.108 30.3221 92.548 31.1372V31.1372Z" fill="black"/>
<path d="M77.2667 12.0688V15.8411C77.2665 16.1165 77.348 16.3857 77.5006 16.614C77.6533 16.8422 77.8701 17.0191 78.1233 17.1219C78.3764 17.2246 78.6542 17.2485 78.9209 17.1904C79.1875 17.1324 79.4309 16.9951 79.6196 16.7961V17.226C79.6196 17.6606 79.7906 18.0774 80.095 18.3847C80.3994 18.692 80.8122 18.8647 81.2427 18.8647C81.6731 18.8647 82.086 18.692 82.3904 18.3847C82.6947 18.0774 82.8657 17.6606 82.8657 17.226V16.8678C83.0621 17.0461 83.3054 17.1631 83.5663 17.2046C83.8271 17.2461 84.0943 17.2104 84.3354 17.1017C84.5766 16.9931 84.7813 16.8162 84.9249 16.5924C85.0685 16.3687 85.1448 16.1077 85.1444 15.8411L85.2095 11.8315V10.9067C85.2098 10.7587 85.2682 10.6168 85.3719 10.5122C85.4757 10.4076 85.6163 10.3488 85.7629 10.3488C85.9096 10.3488 86.0502 10.4076 86.1539 10.5122C86.2577 10.6168 86.3161 10.7587 86.3163 10.9067V11.8315L86.3814 15.1838C86.3814 15.5499 86.5255 15.901 86.7819 16.1598C87.0383 16.4187 87.386 16.5641 87.7487 16.5641C88.1113 16.5641 88.459 16.4187 88.7154 16.1598C88.9718 15.901 89.1159 15.5499 89.1159 15.1838L89.2832 11.8315V10.1179C89.2832 9.87507 89.3787 9.64218 89.5488 9.47047C89.7189 9.29876 89.9496 9.20229 90.1901 9.20229C90.4306 9.20229 90.6613 9.29876 90.8314 9.47047C91.0015 9.64218 91.097 9.87507 91.097 10.1179V11.8315L91.1992 15.1838C91.199 15.4708 91.2875 15.7508 91.4524 15.9847C91.6173 16.2186 91.8504 16.3947 92.1191 16.4885C92.3879 16.5822 92.6789 16.589 92.9517 16.5078C93.2244 16.4267 93.4653 16.2616 93.6407 16.0356C93.8569 16.3147 94.1714 16.4989 94.5187 16.5498C94.866 16.6007 95.2194 16.5145 95.5053 16.3091V17.226C95.5053 17.6606 95.6763 18.0774 95.9807 18.3847C96.2851 18.692 96.6979 18.8647 97.1284 18.8647C97.5588 18.8647 97.9717 18.692 98.2761 18.3847C98.5805 18.0774 98.7515 17.6606 98.7515 17.226V14.395C98.7513 14.7108 98.8585 15.017 99.0551 15.2627C99.2516 15.5083 99.5257 15.6784 99.8315 15.7447C100.137 15.8109 100.456 15.7692 100.735 15.6266C101.014 15.4839 101.237 15.249 101.365 14.9609V17.226C101.365 17.6606 101.536 18.0774 101.84 18.3847C102.145 18.692 102.557 18.8647 102.988 18.8647C103.418 18.8647 103.831 18.692 104.136 18.3847C104.44 18.0774 104.611 17.6606 104.611 17.226V11.8315H104.62V17.226C104.62 17.6606 104.791 18.0774 105.095 18.3847C105.4 18.692 105.813 18.8647 106.243 18.8647C106.674 18.8647 107.086 18.692 107.391 18.3847C107.695 18.0774 107.866 17.6606 107.866 17.226V14.98C107.998 15.2644 108.222 15.495 108.501 15.6336C108.78 15.7722 109.097 15.8106 109.401 15.7424C109.704 15.6742 109.976 15.5035 110.17 15.2586C110.365 15.0136 110.471 14.709 110.47 14.395V11.8315H110.61V16.4373C110.61 16.8719 110.781 17.2887 111.085 17.596C111.39 17.9033 111.802 18.0759 112.233 18.0759C112.663 18.0759 113.076 17.9033 113.381 17.596C113.685 17.2887 113.856 16.8719 113.856 16.4373V14.395C113.856 14.5764 113.891 14.756 113.96 14.9237C114.028 15.0913 114.129 15.2436 114.256 15.3719C114.383 15.5003 114.534 15.6021 114.7 15.6715C114.866 15.741 115.043 15.7767 115.223 15.7767C115.403 15.7767 115.581 15.741 115.747 15.6715C115.913 15.6021 116.063 15.5003 116.19 15.3719C116.317 15.2436 116.418 15.0913 116.487 14.9237C116.555 14.756 116.591 14.5764 116.59 14.395V11.3563C114.585 7.84417 111.684 4.9387 108.19 2.94215C104.696 0.945598 100.735 -0.0690885 96.7204 0.00365343C92.7058 0.0763954 88.7838 1.23391 85.3626 3.35577C81.9413 5.47763 79.1457 8.48631 77.2667 12.0688V12.0688Z" fill="#E6E6E6"/>
<path opacity="0.2" d="M106.243 18.0759C106.456 18.0759 106.667 18.0336 106.864 17.9512C107.061 17.8689 107.24 17.7482 107.391 17.596C107.542 17.4438 107.661 17.2632 107.743 17.0644C107.824 16.8655 107.866 16.6525 107.866 16.4373V17.2918C107.866 17.7264 107.695 18.1432 107.391 18.4505C107.086 18.7578 106.674 18.9304 106.243 18.9304C105.813 18.9304 105.4 18.7578 105.095 18.4505C104.791 18.1432 104.62 17.7264 104.62 17.2918V16.4373C104.62 16.6525 104.662 16.8655 104.744 17.0644C104.825 17.2632 104.945 17.4438 105.095 17.596C105.246 17.7482 105.425 17.8689 105.622 17.9512C105.819 18.0336 106.03 18.0759 106.243 18.0759Z" fill="black"/>
<path opacity="0.2" d="M102.988 18.0759C103.201 18.0759 103.412 18.0336 103.609 17.9512C103.806 17.8689 103.985 17.7482 104.135 17.596C104.286 17.4438 104.406 17.2632 104.487 17.0644C104.569 16.8655 104.611 16.6525 104.611 16.4373V17.2918C104.611 17.7264 104.44 18.1432 104.135 18.4505C103.831 18.7578 103.418 18.9304 102.988 18.9304C102.557 18.9304 102.144 18.7578 101.84 18.4505C101.536 18.1432 101.365 17.7264 101.365 17.2918V16.4373C101.365 16.6525 101.407 16.8655 101.488 17.0644C101.57 17.2632 101.689 17.4438 101.84 17.596C101.991 17.7482 102.17 17.8689 102.367 17.9512C102.564 18.0336 102.775 18.0759 102.988 18.0759V18.0759Z" fill="black"/>
<path opacity="0.2" d="M107.866 14.1912C107.998 14.4756 108.222 14.7062 108.501 14.8448C108.78 14.9834 109.097 15.0218 109.401 14.9536C109.704 14.8854 109.976 14.7147 110.17 14.4698C110.365 14.2248 110.47 13.9202 110.47 13.6062V14.4607C110.47 14.7747 110.365 15.0793 110.17 15.3243C109.976 15.5693 109.704 15.7399 109.401 15.8081C109.097 15.8763 108.78 15.8379 108.501 15.6993C108.222 15.5607 107.998 15.3301 107.866 15.0457V14.1912Z" fill="black"/>
<path opacity="0.2" d="M104.611 11.0427H104.62V11.8972H104.611V11.0427Z" fill="black"/>
<path opacity="0.2" d="M113.856 13.6062C113.856 13.9721 114 14.3228 114.257 14.5814C114.513 14.8399 114.861 14.9852 115.223 14.9852C115.585 14.9852 115.933 14.8399 116.189 14.5814C116.446 14.3228 116.59 13.9721 116.59 13.6062V14.4607C116.59 14.8266 116.446 15.1773 116.189 15.4359C115.933 15.6944 115.585 15.8397 115.223 15.8397C114.861 15.8397 114.513 15.6944 114.257 15.4359C114 15.1773 113.856 14.8266 113.856 14.4607V13.6062Z" fill="black"/>
<path opacity="0.2" d="M110.471 11.0427H110.61V11.8972H110.471V11.0427Z" fill="black"/>
<path opacity="0.2" d="M112.233 17.2871C112.446 17.2871 112.657 17.2447 112.854 17.1624C113.051 17.0801 113.23 16.9594 113.381 16.8072C113.531 16.655 113.651 16.4744 113.732 16.2755C113.814 16.0767 113.856 15.8636 113.856 15.6484V16.5029C113.856 16.9375 113.685 17.3543 113.381 17.6617C113.076 17.969 112.663 18.1416 112.233 18.1416C111.802 18.1416 111.39 17.969 111.085 17.6617C110.781 17.3543 110.61 16.9375 110.61 16.5029V15.6484C110.61 15.8636 110.652 16.0767 110.733 16.2755C110.815 16.4744 110.934 16.655 111.085 16.8072C111.236 16.9594 111.415 17.0801 111.612 17.1624C111.809 17.2447 112.02 17.2871 112.233 17.2871V17.2871Z" fill="black"/>
<path opacity="0.2" d="M97.1284 18.0759C97.3415 18.0759 97.5526 18.0336 97.7495 17.9512C97.9465 17.8689 98.1254 17.7482 98.2761 17.596C98.4268 17.4438 98.5464 17.2632 98.628 17.0644C98.7095 16.8655 98.7515 16.6525 98.7515 16.4373V17.2918C98.7515 17.7264 98.5805 18.1432 98.2761 18.4505C97.9717 18.7578 97.5589 18.9304 97.1284 18.9304C96.6979 18.9304 96.2851 18.7578 95.9807 18.4505C95.6763 18.1432 95.5053 17.7264 95.5053 17.2918V16.4373C95.5053 16.6525 95.5473 16.8655 95.6288 17.0644C95.7104 17.2632 95.8299 17.4438 95.9807 17.596C96.1314 17.7482 96.3103 17.8689 96.5072 17.9512C96.7042 18.0336 96.9152 18.0759 97.1284 18.0759Z" fill="black"/>
<path opacity="0.2" d="M85.2096 10.1178C85.2096 9.96961 85.2679 9.8275 85.3717 9.72272C85.4755 9.61795 85.6162 9.55908 85.763 9.55908C85.9098 9.55908 86.0505 9.61795 86.1543 9.72272C86.2581 9.8275 86.3164 9.96961 86.3164 10.1178V10.9723C86.3165 10.8988 86.3023 10.8261 86.2745 10.7582C86.2468 10.6903 86.206 10.6286 86.1546 10.5767C86.1032 10.5247 86.0422 10.4835 85.975 10.4553C85.9078 10.4272 85.8358 10.4127 85.763 10.4127C85.6903 10.4127 85.6182 10.4272 85.551 10.4553C85.4838 10.4835 85.4228 10.5247 85.3714 10.5767C85.32 10.6286 85.2793 10.6903 85.2515 10.7582C85.2237 10.8261 85.2095 10.8988 85.2096 10.9723V10.1178Z" fill="black"/>
<path opacity="0.2" d="M98.7514 13.6062C98.7513 13.922 98.8585 14.2282 99.055 14.4739C99.2516 14.7195 99.5256 14.8896 99.8315 14.9559C100.137 15.0221 100.456 14.9804 100.735 14.8378C101.014 14.6951 101.237 14.4602 101.365 14.1721V15.0266C101.237 15.3147 101.014 15.5496 100.735 15.6923C100.456 15.8349 100.137 15.8766 99.8315 15.8104C99.5256 15.7441 99.2516 15.574 99.055 15.3284C98.8585 15.0827 98.7513 14.7765 98.7514 14.4607V13.6062Z" fill="black"/>
<path opacity="0.2" d="M87.7487 15.7753C87.9282 15.7753 88.106 15.7397 88.2719 15.6703C88.4378 15.6009 88.5885 15.4993 88.7155 15.3711C88.8424 15.2429 88.9431 15.0907 89.0119 14.9232C89.0806 14.7558 89.1159 14.5763 89.1159 14.395L89.2832 11.0427V11.8972L89.1159 15.2495C89.1159 15.6156 88.9718 15.9667 88.7154 16.2255C88.459 16.4844 88.1113 16.6298 87.7487 16.6298C87.3861 16.6298 87.0383 16.4844 86.7819 16.2255C86.5255 15.9667 86.3815 15.6156 86.3815 15.2495L86.3163 11.8972V11.0427L86.3815 14.395C86.3814 14.5763 86.4168 14.7558 86.4855 14.9232C86.5542 15.0907 86.6549 15.2429 86.7819 15.3711C86.9088 15.4993 87.0595 15.6009 87.2254 15.6703C87.3913 15.7397 87.5691 15.7753 87.7487 15.7753V15.7753Z" fill="black"/>
<path opacity="0.2" d="M78.6338 16.4326C78.8181 16.4327 79.0004 16.395 79.1698 16.3219C79.3393 16.2489 79.4922 16.1418 79.6195 16.0073V16.4372C79.6195 16.8718 79.7905 17.2886 80.0949 17.5959C80.3993 17.9032 80.8121 18.0759 81.2426 18.0759C81.6731 18.0759 82.0859 17.9032 82.3903 17.5959C82.6947 17.2886 82.8657 16.8718 82.8657 16.4372V16.079C83.062 16.2573 83.3053 16.3743 83.5662 16.4158C83.827 16.4573 84.0942 16.4216 84.3354 16.3129C84.5765 16.2043 84.7813 16.0274 84.9249 15.8036C85.0684 15.5799 85.1447 15.3189 85.1444 15.0523L85.2095 11.0427V11.8972L85.1444 15.9068C85.1447 16.1734 85.0684 16.4344 84.9249 16.6581C84.7813 16.8819 84.5765 17.0588 84.3354 17.1674C84.0942 17.2761 83.827 17.3118 83.5662 17.2703C83.3053 17.2288 83.062 17.1118 82.8657 16.9335V17.2917C82.8657 17.7263 82.6947 18.1431 82.3903 18.4504C82.0859 18.7578 81.6731 18.9304 81.2426 18.9304C80.8121 18.9304 80.3993 18.7578 80.0949 18.4504C79.7905 18.1431 79.6195 17.7263 79.6195 17.2917V16.8619C79.4308 17.0608 79.1875 17.1981 78.9208 17.2562C78.6541 17.3142 78.3763 17.2903 78.1232 17.1876C77.8701 17.0848 77.6532 16.9079 77.5006 16.6797C77.3479 16.4514 77.2664 16.1822 77.2666 15.9068V15.0523C77.2666 15.2336 77.302 15.4131 77.3707 15.5806C77.4394 15.748 77.5401 15.9002 77.667 16.0284C77.794 16.1566 77.9447 16.2582 78.1106 16.3276C78.2765 16.397 78.4543 16.4326 78.6338 16.4326V16.4326Z" fill="black"/>
<path opacity="0.2" d="M92.5665 15.7753C92.7736 15.7753 92.9779 15.7278 93.164 15.6362C93.3501 15.5446 93.5132 15.4115 93.6408 15.2468C93.857 15.5259 94.1715 15.7101 94.5188 15.761C94.8661 15.812 95.2194 15.7257 95.5054 15.5203V16.3748C95.2194 16.5802 94.8661 16.6665 94.5188 16.6155C94.1715 16.5646 93.857 16.3804 93.6408 16.1013C93.4654 16.3273 93.2245 16.4924 92.9518 16.5735C92.679 16.6547 92.388 16.6479 92.1192 16.5542C91.8505 16.4604 91.6174 16.2843 91.4525 16.0504C91.2876 15.8166 91.1991 15.5366 91.1993 15.2495L91.0971 11.8972V11.0427L91.1993 14.395C91.1993 14.5763 91.2346 14.7558 91.3033 14.9232C91.372 15.0907 91.4727 15.2429 91.5997 15.3711C91.7267 15.4993 91.8774 15.6009 92.0433 15.6703C92.2092 15.7397 92.387 15.7753 92.5665 15.7753Z" fill="black"/>
<path opacity="0.2" d="M89.2833 9.32919C89.2833 9.08636 89.3789 8.85347 89.549 8.68175C89.719 8.51004 89.9497 8.41357 90.1903 8.41357C90.4308 8.41357 90.6615 8.51004 90.8315 8.68175C91.0016 8.85347 91.0972 9.08636 91.0972 9.32919V10.1837C91.0972 9.94086 91.0016 9.70797 90.8315 9.53625C90.6615 9.36454 90.4308 9.26807 90.1903 9.26807C89.9497 9.26807 89.719 9.36454 89.549 9.53625C89.3789 9.70797 89.2833 9.94086 89.2833 10.1837V9.32919Z" fill="black"/>
<path d="M104.448 9.49805H104.774V11.2728H104.448V9.49805Z" fill="#3F3D56"/>
<path d="M98.2961 8.54492H98.6216V10.3196H98.2961V8.54492Z" fill="#3F3D56"/>
<path d="M106.109 15.5125H106.434V17.2872H106.109V15.5125Z" fill="#3F3D56"/>
<path d="M92.8114 12.4114L93.0791 12.2244L94.0793 13.6838L93.8116 13.8708L92.8114 12.4114Z" fill="#3F3D56"/>
<path d="M110.049 9.6075L110.251 9.86523L108.873 10.9664L108.671 10.7087L110.049 9.6075Z" fill="#3F3D56"/>
<path d="M90.9084 2.96858L91.1104 3.22632L89.7318 4.32752L89.5298 4.06978L90.9084 2.96858Z" fill="#3F3D56"/>
<path d="M113.631 11.4478L113.833 11.7056L112.454 12.8068L112.252 12.549L113.631 11.4478Z" fill="#3F3D56"/>
<path d="M103.244 5.32422H103.569V7.09894H103.244V5.32422Z" fill="white"/>
<path d="M112.163 14.4607H112.489V16.2354H112.163V14.4607Z" fill="white"/>
<path d="M96.9284 2.76074H97.2539V4.53547H96.9284V2.76074Z" fill="white"/>
<path d="M95.1192 8.97575L95.4102 8.82837L96.1985 10.4146L95.9075 10.562L95.1192 8.97575Z" fill="white"/>
<path d="M96.6168 15.549L96.9077 15.4016L97.696 16.9879L97.4051 17.1353L96.6168 15.549Z" fill="white"/>
<path d="M101.092 11.9416L101.308 12.1875L99.9923 13.3648L99.7763 13.1189L101.092 11.9416Z" fill="white"/>
<path d="M107.537 4.25115L107.753 4.49707L106.438 5.67441L106.222 5.42849L107.537 4.25115Z" fill="white"/>
<path d="M86.1175 7.20891L86.3335 7.45483L85.0182 8.63217L84.8022 8.38625L86.1175 7.20891Z" fill="white"/>
<path d="M93.995 1.42473L94.2109 1.67065L92.8956 2.84799L92.6796 2.60207L93.995 1.42473Z" fill="white"/>
<path d="M100.77 8.54492H101.095V10.3196H100.77V8.54492Z" fill="#FF6584"/>
<path d="M82.4049 9.66579L82.7046 9.53735L83.3916 11.1709L83.0919 11.2994L82.4049 9.66579Z" fill="#FF6584"/>
<path d="M107.286 11.4082L107.568 11.5725L106.689 13.1095L106.407 12.9451L107.286 11.4082Z" fill="#FF6584"/>
<path d="M88.6658 10.1592L88.9478 10.3235L88.0688 11.8604L87.7869 11.6961L88.6658 10.1592Z" fill="#FF6584"/>
<path d="M100.254 3.65208L100.536 3.81641L99.6572 5.35337L99.3753 5.18905L100.254 3.65208Z" fill="#FF6584"/>
<path d="M86.452 3.32322L86.7339 3.48755L85.855 5.0245L85.5731 4.86018L86.452 3.32322Z" fill="#FF6584"/>
<path d="M104.356 1.87718L104.638 2.0415L103.759 3.57846L103.477 3.41414L104.356 1.87718Z" fill="#FF6584"/>
<path d="M92.6315 4.99561H92.957V6.77033H92.6315V4.99561Z" fill="#FF6584"/>
<path d="M111.382 7.95337H111.708V9.72809H111.382V7.95337Z" fill="#FF6584"/>
<path opacity="0.2" d="M90.3302 59.7146C91.5603 58.4727 92.2633 56.7962 92.2904 55.0401C92.3175 53.284 91.6665 51.5862 90.4754 50.3062C90.5282 50.3562 90.5805 50.4073 90.6321 50.4593C91.2543 51.087 91.7479 51.8322 92.0847 52.6525C92.4216 53.4727 92.595 54.352 92.5952 55.24C92.5954 56.1279 92.4223 57.0072 92.0858 57.8277C91.7493 58.6481 91.256 59.3935 90.6341 60.0214C90.0122 60.6493 89.2738 61.1473 88.4612 61.4871C87.6486 61.8268 86.7776 62.0016 85.8981 62.0014C85.0186 62.0012 84.1477 61.8261 83.3352 61.486C82.5228 61.1459 81.7846 60.6476 81.1629 60.0194C81.1113 59.9673 81.0606 59.9144 81.011 59.861C82.2789 61.0637 83.9605 61.7209 85.7 61.6936C87.4394 61.6663 89.1001 60.9565 90.3302 59.7146V59.7146Z" fill="black"/>
<path opacity="0.2" d="M83.2506 52.5943C83.7715 52.068 84.4353 51.7095 85.1581 51.5642C85.8808 51.4188 86.63 51.4932 87.3109 51.7778C87.9918 52.0624 88.5738 52.5445 88.9833 53.1631C89.3928 53.7817 89.6113 54.509 89.6113 55.253C89.6113 55.997 89.3928 56.7243 88.9833 57.3429C88.5738 57.9615 87.9918 58.4436 87.3109 58.7282C86.63 59.0128 85.8808 59.0872 85.1581 58.9418C84.4353 58.7965 83.7715 58.438 83.2506 57.9117C82.5536 57.2058 82.1622 56.2497 82.1622 55.253C82.1622 54.2563 82.5536 53.3002 83.2506 52.5943V52.5943ZM83.9211 57.107C84.4418 57.6324 85.1479 57.9275 85.8841 57.9275C86.6202 57.9275 87.3263 57.6324 87.847 57.107C87.9153 57.0381 87.9785 56.9652 88.0393 56.8912C88.3773 56.4704 88.5873 55.9597 88.6439 55.4209C88.7004 54.8821 88.6009 54.3384 88.3576 53.8555C88.1143 53.3726 87.7376 52.9712 87.273 52.7001C86.8084 52.4289 86.2759 52.2995 85.74 52.3276C85.2041 52.3557 84.6877 52.5401 84.2534 52.8583C83.8191 53.1766 83.4856 53.6152 83.2931 54.1209C83.1006 54.6267 83.0575 55.1779 83.169 55.7079C83.2805 56.2379 83.5417 56.7239 83.9211 57.107V57.107Z" fill="black"/>
<path d="M79.3487 57.1071L80.1363 57.9022C80.1937 57.9603 80.2671 57.9997 80.3469 58.0153C80.4268 58.031 80.5094 58.0221 80.5842 57.9899C80.659 57.9577 80.7226 57.9036 80.7667 57.8346C80.8108 57.7656 80.8334 57.6849 80.8316 57.6028L80.9214 57.6934C81.0121 57.785 81.1352 57.8365 81.2635 57.8365C81.3918 57.8365 81.5149 57.785 81.6056 57.6934C81.6964 57.6018 81.7473 57.4776 81.7473 57.348C81.7473 57.2185 81.6964 57.0942 81.6056 57.0026L81.5308 56.9271C81.6094 56.9229 81.6852 56.8958 81.7488 56.849C81.8125 56.8022 81.8613 56.7379 81.8895 56.6636C81.9176 56.5894 81.9238 56.5085 81.9074 56.4308C81.8909 56.3531 81.8525 56.2819 81.7968 56.2257L80.9734 55.3667L80.7803 55.1718C80.7494 55.1405 80.732 55.0982 80.732 55.054C80.732 55.0098 80.7494 54.9675 80.7803 54.9362C80.8112 54.905 80.8532 54.8875 80.8969 54.8875C80.9407 54.8875 80.9827 54.905 81.0136 54.9362L81.2067 55.1312L81.9203 55.8239C81.9967 55.9011 82.1004 55.9445 82.2085 55.9445C82.3166 55.9445 82.4203 55.9011 82.4967 55.8239C82.5731 55.7468 82.6161 55.6421 82.6161 55.533C82.6161 55.4238 82.5731 55.3192 82.4967 55.242L81.8321 54.4998L81.4743 54.1386C81.424 54.0873 81.3958 54.018 81.3959 53.9458C81.3961 53.8737 81.4246 53.8045 81.4751 53.7534C81.5257 53.7024 81.5942 53.6736 81.6657 53.6735C81.7372 53.6733 81.8058 53.7018 81.8566 53.7526L82.2144 54.1138L82.9358 54.7987C83.2594 54.605 83.605 54.4514 83.9651 54.3414C84.0248 54.2811 84.0644 54.2036 84.0784 54.1195L84.2699 54.3128C84.3606 54.4044 84.4837 54.4558 84.612 54.4558C84.7403 54.4558 84.8634 54.4044 84.9541 54.3128C85.0449 54.2211 85.0958 54.0969 85.0958 53.9673C85.0958 53.8378 85.0449 53.7135 84.9541 53.6219L84.3631 53.0252C84.429 53.0918 84.5155 53.1335 84.6082 53.1435C84.7009 53.1534 84.7942 53.131 84.8725 53.0798C84.9508 53.0287 85.0094 52.952 85.0384 52.8626C85.0674 52.7731 85.0652 52.6763 85.0321 52.5883L85.505 53.0658C85.5957 53.1574 85.7188 53.2089 85.8471 53.2089C85.9755 53.2089 86.0985 53.1574 86.1893 53.0658C86.28 52.9742 86.331 52.8499 86.331 52.7204C86.331 52.5908 86.28 52.4666 86.1893 52.375L85.063 51.2379L85.0649 51.2359L86.1912 52.373C86.2819 52.4646 86.405 52.5161 86.5333 52.5161C86.6616 52.5161 86.7847 52.4646 86.8754 52.373C86.9662 52.2814 87.0171 52.1572 87.0171 52.0276C87.0171 51.8981 86.9662 51.7738 86.8754 51.6822L86.4065 51.2088C86.4936 51.2407 86.589 51.2417 86.6767 51.2115C86.7645 51.1814 86.8394 51.1219 86.8892 51.0429C86.9389 50.9639 86.9605 50.8702 86.9503 50.7772C86.9402 50.6841 86.8989 50.5974 86.8333 50.5313L86.2981 49.9909L86.3275 49.9613L87.2891 50.9321C87.3798 51.0237 87.5029 51.0752 87.6312 51.0752C87.7595 51.0752 87.8826 51.0237 87.9733 50.9321C88.064 50.8405 88.115 50.7162 88.115 50.5867C88.115 50.4571 88.064 50.3329 87.9733 50.2413L87.5469 49.8108C87.6234 49.888 87.727 49.9313 87.8351 49.9313C87.9432 49.9313 88.0469 49.888 88.1233 49.8108C88.1997 49.7336 88.2427 49.629 88.2427 49.5198C88.2427 49.4107 88.1997 49.306 88.1233 49.2289L87.4889 48.5883C86.3329 48.2748 85.1149 48.2796 83.9614 48.6024C82.808 48.9253 81.7613 49.5542 80.9303 50.4239C80.0992 51.2936 79.5142 52.3722 79.2361 53.5476C78.9579 54.7229 78.9968 55.952 79.3487 57.1071V57.1071Z" fill="#E6E6E6"/>
<path opacity="0.2" d="M86.7106 52.2067C86.7556 52.1613 86.7912 52.1075 86.8155 52.0482C86.8399 51.9889 86.8524 51.9254 86.8524 51.8613C86.8524 51.7971 86.8399 51.7336 86.8155 51.6743C86.7912 51.6151 86.7556 51.5612 86.7106 51.5159L86.889 51.696C86.9798 51.7876 87.0308 51.9118 87.0308 52.0414C87.0308 52.171 86.9798 52.2952 86.889 52.3868C86.7983 52.4784 86.6752 52.5299 86.5469 52.5299C86.4186 52.5299 86.2955 52.4784 86.2048 52.3868L86.0264 52.2067C86.0713 52.2521 86.1247 52.288 86.1834 52.3126C86.2421 52.3371 86.305 52.3498 86.3685 52.3498C86.4321 52.3498 86.495 52.3371 86.5537 52.3126C86.6124 52.288 86.6657 52.2521 86.7106 52.2067V52.2067Z" fill="black"/>
<path opacity="0.2" d="M86.0246 52.8996C86.0695 52.8542 86.1052 52.8004 86.1295 52.7411C86.1538 52.6818 86.1663 52.6183 86.1663 52.5542C86.1663 52.49 86.1538 52.4265 86.1295 52.3672C86.1052 52.308 86.0695 52.2541 86.0246 52.2087L86.203 52.3889C86.2479 52.4342 86.2836 52.4881 86.3079 52.5473C86.3322 52.6066 86.3447 52.6701 86.3447 52.7343C86.3447 52.7984 86.3322 52.8619 86.3079 52.9212C86.2836 52.9805 86.2479 53.0343 86.203 53.0797C86.1581 53.125 86.1047 53.161 86.046 53.1856C85.9873 53.2101 85.9244 53.2228 85.8609 53.2228C85.7973 53.2228 85.7344 53.2101 85.6757 53.1856C85.617 53.161 85.5637 53.125 85.5188 53.0797L85.3404 52.8996C85.3853 52.9449 85.4386 52.9809 85.4973 53.0055C85.556 53.03 85.6189 53.0426 85.6825 53.0426C85.746 53.0426 85.8089 53.03 85.8676 53.0055C85.9263 52.9809 85.9797 52.9449 86.0246 52.8996V52.8996Z" fill="black"/>
<path opacity="0.2" d="M86.2421 51.0425C86.3293 51.0744 86.4246 51.0754 86.5123 51.0452C86.6001 51.0151 86.675 50.9556 86.7248 50.8766C86.7745 50.7977 86.7961 50.7039 86.7859 50.6109C86.7758 50.5179 86.7345 50.4311 86.6689 50.365L86.8473 50.5451C86.9129 50.6112 86.9542 50.698 86.9643 50.791C86.9745 50.884 86.9529 50.9778 86.9032 51.0567C86.8534 51.1357 86.7785 51.1952 86.6907 51.2254C86.603 51.2555 86.5077 51.2545 86.4205 51.2226L86.2421 51.0425Z" fill="black"/>
<path opacity="0.2" d="M84.9002 51.0696L85.0786 51.2498L85.0767 51.2517L84.8983 51.0716L84.9002 51.0696Z" fill="black"/>
<path opacity="0.2" d="M87.3822 49.6446C87.42 49.6829 87.465 49.7132 87.5144 49.7338C87.5639 49.7545 87.6169 49.7652 87.6704 49.7652C87.7239 49.7652 87.7769 49.7545 87.8263 49.7338C87.8758 49.7132 87.9207 49.6829 87.9586 49.6446C87.9964 49.6064 88.0264 49.5611 88.0469 49.5112C88.0674 49.4612 88.0779 49.4077 88.0779 49.3537C88.0779 49.2997 88.0674 49.2462 88.0469 49.1962C88.0264 49.1463 87.9964 49.101 87.9586 49.0627L88.137 49.2429C88.2134 49.32 88.2563 49.4247 88.2563 49.5338C88.2563 49.6429 88.2134 49.7476 88.137 49.8248C88.0605 49.9019 87.9569 49.9453 87.8488 49.9453C87.7407 49.9453 87.637 49.9019 87.5606 49.8248L87.3822 49.6446Z" fill="black"/>
<path opacity="0.2" d="M86.1629 49.795L86.3413 49.9751L86.3119 50.0047L86.1336 49.8246L86.1629 49.795Z" fill="black"/>
<path opacity="0.2" d="M87.8088 50.7658C87.8537 50.7204 87.8894 50.6666 87.9137 50.6073C87.938 50.548 87.9505 50.4845 87.9505 50.4204C87.9505 50.3562 87.938 50.2927 87.9137 50.2334C87.8894 50.1742 87.8537 50.1203 87.8088 50.075L87.9872 50.2551C88.0321 50.3004 88.0678 50.3543 88.0921 50.4135C88.1164 50.4728 88.1289 50.5363 88.1289 50.6005C88.1289 50.6646 88.1164 50.7282 88.0921 50.7874C88.0678 50.8467 88.0321 50.9005 87.9872 50.9459C87.9423 50.9913 87.8889 51.0272 87.8302 51.0518C87.7715 51.0763 87.7086 51.089 87.6451 51.089C87.5815 51.089 87.5186 51.0763 87.4599 51.0518C87.4012 51.0272 87.3479 50.9913 87.3029 50.9459L87.1245 50.7658C87.1695 50.8111 87.2228 50.8471 87.2815 50.8717C87.3402 50.8962 87.4031 50.9089 87.4667 50.9089C87.5302 50.9089 87.5931 50.8962 87.6518 50.8717C87.7105 50.8471 87.7639 50.8111 87.8088 50.7658V50.7658Z" fill="black"/>
<path opacity="0.2" d="M84.7898 54.1464C84.8347 54.101 84.8703 54.0472 84.8946 53.9879C84.919 53.9287 84.9315 53.8651 84.9315 53.801C84.9315 53.7368 84.919 53.6733 84.8946 53.614C84.8703 53.5548 84.8347 53.5009 84.7898 53.4556L84.9681 53.6357C85.0131 53.681 85.0487 53.7349 85.073 53.7942C85.0973 53.8534 85.1099 53.917 85.1099 53.9811C85.1099 54.0453 85.0973 54.1088 85.073 54.168C85.0487 54.2273 85.0131 54.2812 84.9681 54.3265C84.9232 54.3719 84.8699 54.4079 84.8112 54.4324C84.7525 54.457 84.6896 54.4696 84.626 54.4696C84.5625 54.4696 84.4996 54.457 84.4409 54.4324C84.3822 54.4079 84.3288 54.3719 84.2839 54.3265L84.1055 54.1464C84.1504 54.1918 84.2038 54.2278 84.2625 54.2523C84.3212 54.2769 84.3841 54.2895 84.4476 54.2895C84.5112 54.2895 84.5741 54.2769 84.6328 54.2523C84.6915 54.2278 84.7448 54.1918 84.7898 54.1464Z" fill="black"/>
<path opacity="0.2" d="M80.6156 55.0055C80.5847 54.9743 80.5673 54.9319 80.5673 54.8877C80.5673 54.8436 80.5847 54.8012 80.6156 54.77C80.6466 54.7387 80.6885 54.7212 80.7323 54.7212C80.776 54.7212 80.818 54.7387 80.8489 54.77L81.0273 54.9501C80.9964 54.9189 80.9544 54.9013 80.9107 54.9013C80.8669 54.9013 80.825 54.9189 80.794 54.9501C80.7631 54.9813 80.7457 55.0237 80.7457 55.0679C80.7457 55.112 80.7631 55.1544 80.794 55.1856L80.6156 55.0055Z" fill="black"/>
<path opacity="0.2" d="M84.1983 52.859C84.2642 52.9256 84.3507 52.9673 84.4434 52.9773C84.5361 52.9872 84.6294 52.9648 84.7077 52.9136C84.786 52.8625 84.8446 52.7858 84.8736 52.6964C84.9026 52.6069 84.9004 52.5101 84.8673 52.4221L85.0457 52.6022C85.0788 52.6902 85.081 52.787 85.052 52.8765C85.023 52.9659 84.9644 53.0426 84.8861 53.0938C84.8078 53.1449 84.7145 53.1673 84.6218 53.1574C84.5291 53.1475 84.4426 53.1057 84.3767 53.0391L84.1983 52.859Z" fill="black"/>
<path opacity="0.2" d="M82.3321 55.6576C82.37 55.6194 82.4 55.5741 82.4205 55.5242C82.441 55.4742 82.4515 55.4207 82.4515 55.3667C82.4515 55.3126 82.441 55.2591 82.4205 55.2092C82.4 55.1593 82.37 55.1139 82.3321 55.0757L81.6675 54.3335L81.8459 54.5136L82.5105 55.2558C82.5484 55.2941 82.5784 55.3394 82.5989 55.3893C82.6193 55.4393 82.6299 55.4928 82.6299 55.5468C82.6299 55.6008 82.6193 55.6543 82.5989 55.7043C82.5784 55.7542 82.5484 55.7996 82.5105 55.8378C82.4727 55.876 82.4277 55.9063 82.3783 55.927C82.3288 55.9476 82.2758 55.9583 82.2223 55.9583C82.1688 55.9583 82.1158 55.9476 82.0663 55.927C82.0169 55.9063 81.972 55.876 81.9341 55.8378L81.2205 55.145L81.0421 54.9649L81.7557 55.6576C81.7936 55.6959 81.8385 55.7262 81.8879 55.7469C81.9374 55.7675 81.9904 55.7782 82.0439 55.7782C82.0974 55.7782 82.1504 55.7675 82.1999 55.7469C82.2493 55.7262 82.2943 55.6959 82.3321 55.6576V55.6576Z" fill="black"/>
<path opacity="0.2" d="M80.548 57.7359C80.5869 57.6967 80.6175 57.65 80.6379 57.5985C80.6584 57.5471 80.6683 57.492 80.667 57.4365L80.7568 57.5271C80.8017 57.5725 80.855 57.6085 80.9137 57.633C80.9724 57.6576 81.0354 57.6702 81.0989 57.6702C81.1624 57.6702 81.2254 57.6576 81.2841 57.633C81.3428 57.6085 81.3961 57.5725 81.441 57.5271C81.486 57.4818 81.5216 57.4279 81.5459 57.3687C81.5702 57.3094 81.5827 57.2459 81.5827 57.1817C81.5827 57.1176 81.5702 57.0541 81.5459 56.9948C81.5216 56.9355 81.486 56.8817 81.441 56.8363L81.3662 56.7608C81.4448 56.7566 81.5206 56.7295 81.5842 56.6827C81.6479 56.636 81.6967 56.5716 81.7249 56.4974C81.753 56.4231 81.7592 56.3423 81.7428 56.2645C81.7263 56.1868 81.6879 56.1156 81.6322 56.0595L80.8088 55.2004L80.9872 55.3806L81.8106 56.2396C81.8663 56.2957 81.9047 56.3669 81.9212 56.4447C81.9376 56.5224 81.9314 56.6033 81.9033 56.6775C81.8751 56.7517 81.8263 56.8161 81.7626 56.8628C81.699 56.9096 81.6232 56.9367 81.5446 56.9409L81.6194 57.0164C81.7102 57.108 81.7611 57.2323 81.7611 57.3618C81.7611 57.4914 81.7102 57.6156 81.6194 57.7072C81.5287 57.7989 81.4056 57.8503 81.2773 57.8503C81.149 57.8503 81.0259 57.7989 80.9352 57.7073L80.8454 57.6166C80.8472 57.6987 80.8246 57.7795 80.7805 57.8485C80.7364 57.9174 80.6728 57.9715 80.598 58.0037C80.5232 58.0359 80.4406 58.0448 80.3607 58.0292C80.2809 58.0135 80.2075 57.9741 80.1501 57.916L79.9717 57.7359C80.0095 57.7742 80.0544 57.8045 80.1039 57.8251C80.1533 57.8458 80.2063 57.8565 80.2598 57.8565C80.3134 57.8565 80.3664 57.8458 80.4158 57.8251C80.4653 57.8045 80.5102 57.7742 80.548 57.7359V57.7359Z" fill="black"/>
<path opacity="0.2" d="M83.3477 54.6324C83.3402 54.5705 83.3467 54.5078 83.3669 54.4488C83.387 54.3899 83.4201 54.3364 83.4638 54.2924C83.5074 54.2483 83.5604 54.2149 83.6188 54.1945C83.6771 54.1742 83.7393 54.1676 83.8005 54.1751C83.8602 54.1149 83.8999 54.0373 83.9139 53.9532L84.0923 54.1333C83.9413 54.1761 83.8065 54.2637 83.7055 54.3848C83.6046 54.506 83.542 54.655 83.5261 54.8125C83.4882 54.8507 83.4433 54.881 83.3938 54.9017C83.3444 54.9224 83.2914 54.933 83.2379 54.933C83.1843 54.933 83.1313 54.9224 83.0819 54.9017C83.0324 54.881 82.9875 54.8507 82.9497 54.8125L82.2282 54.1276L82.0498 53.9475L82.7713 54.6324C82.8091 54.6706 82.854 54.7009 82.9035 54.7216C82.9529 54.7423 83.0059 54.7529 83.0595 54.7529C83.113 54.7529 83.166 54.7423 83.2154 54.7216C83.2649 54.7009 83.3098 54.6706 83.3477 54.6324V54.6324Z" fill="black"/>
<path opacity="0.2" d="M81.3099 53.9724C81.2846 53.947 81.2645 53.9169 81.2508 53.8838C81.2371 53.8506 81.23 53.8151 81.2299 53.7791C81.2298 53.7432 81.2368 53.7076 81.2504 53.6744C81.264 53.6411 81.2839 53.611 81.3091 53.5856C81.3343 53.5601 81.3642 53.54 81.3971 53.5263C81.43 53.5126 81.4652 53.5055 81.5008 53.5056C81.5364 53.5057 81.5716 53.5129 81.6045 53.5267C81.6373 53.5406 81.6671 53.5608 81.6922 53.5863L81.8706 53.7665C81.8455 53.741 81.8157 53.7207 81.7829 53.7068C81.75 53.693 81.7148 53.6858 81.6792 53.6857C81.6436 53.6857 81.6084 53.6927 81.5755 53.7064C81.5426 53.7201 81.5127 53.7403 81.4875 53.7657C81.4623 53.7911 81.4424 53.8213 81.4288 53.8545C81.4152 53.8877 81.4082 53.9233 81.4083 53.9592C81.4084 53.9952 81.4155 54.0307 81.4292 54.0639C81.4429 54.0971 81.463 54.1272 81.4883 54.1525L81.3099 53.9724Z" fill="black"/>
<path d="M84.5417 50.7807L84.6104 50.7114L84.9809 51.0855L84.9123 51.1548L84.5417 50.7807Z" fill="#3F3D56"/>
<path d="M83.0456 51.8891L83.1143 51.8198L83.4848 52.1939L83.4162 52.2632L83.0456 51.8891Z" fill="#3F3D56"/>
<path d="M81.5647 51.0737L81.6333 51.0044L82.0038 51.3785L81.9352 51.4478L81.5647 51.0737Z" fill="#3F3D56"/>
<path d="M86.1472 51.695L86.2158 51.6257L86.5864 51.9998L86.5177 52.0691L86.1472 51.695Z" fill="#3F3D56"/>
<path d="M82.697 53.8713L82.7144 53.7749L83.2299 53.8697L83.2125 53.9661L82.697 53.8713Z" fill="#3F3D56"/>
<path d="M80.5427 52.9199L80.5601 52.8235L81.0756 52.9183L81.0582 53.0146L80.5427 52.9199Z" fill="#3F3D56"/>
<path d="M85.7449 49.6117L85.8413 49.623L85.7806 50.1485L85.6843 50.1372L85.7449 49.6117Z" fill="#3F3D56"/>
<path d="M86.8841 49.2377L86.9805 49.249L86.9198 49.7745L86.8234 49.7632L86.8841 49.2377Z" fill="#3F3D56"/>
<path d="M83.4162 50.1572L83.4849 50.0879L83.8554 50.462L83.7868 50.5312L83.4162 50.1572Z" fill="white"/>
<path d="M80.5891 52.06L80.6577 51.9907L81.0282 52.3648L80.9596 52.4341L80.5891 52.06Z" fill="white"/>
<path d="M79.5124 54.7783L79.5811 54.709L79.9516 55.0831L79.883 55.1523L79.5124 54.7783Z" fill="white"/>
<path d="M87.2038 50.185L87.2725 50.1157L87.643 50.4898L87.5744 50.5591L87.2038 50.185Z" fill="white"/>
<path d="M82.466 52.656L82.4966 52.563L82.9939 52.7296L82.9634 52.8226L82.466 52.656Z" fill="white"/>
<path d="M84.154 53.7229L84.1846 53.6299L84.6819 53.7965L84.6514 53.8895L84.154 53.7229Z" fill="white"/>
<path d="M84.3441 52.01L84.4409 52.0159L84.4095 52.544L84.3126 52.5381L84.3441 52.01Z" fill="white"/>
<path d="M84.097 49.0173L84.1938 49.0232L84.1624 49.5513L84.0655 49.5454L84.097 49.0173Z" fill="white"/>
<path d="M83.5671 51.3627L83.6357 51.2935L84.0063 51.6675L83.9377 51.7368L83.5671 51.3627Z" fill="#FF6584"/>
<path d="M80.3362 55.9838L80.4048 55.9146L80.7753 56.2886L80.7067 56.3579L80.3362 55.9838Z" fill="#FF6584"/>
<path d="M79.7976 53.6733L79.8662 53.604L80.2368 53.9781L80.1681 54.0473L79.7976 53.6733Z" fill="#FF6584"/>
<path d="M85.5386 50.5793L85.6323 50.554L85.768 51.065L85.6742 51.0903L85.5386 50.5793Z" fill="#FF6584"/>
<path d="M82.437 50.4409L82.5308 50.4155L82.6664 50.9266L82.5727 50.9519L82.437 50.4409Z" fill="#FF6584"/>
<path d="M82.9307 49.1938L83.0244 49.1685L83.16 49.6795L83.0663 49.7048L82.9307 49.1938Z" fill="#FF6584"/>
<path d="M85.6809 48.9794L85.7495 48.9102L86.12 49.2842L86.0514 49.3535L85.6809 48.9794Z" fill="#FF6584"/>
<path d="M15.6161 28.1249C15.6161 27.8365 15.7295 27.56 15.9315 27.3561C16.1335 27.1522 16.4074 27.0376 16.693 27.0376C16.9787 27.0376 17.2526 27.1522 17.4546 27.3561C17.6566 27.56 17.77 27.8365 17.77 28.1249V76.8706C17.77 77.159 17.6566 77.4355 17.4546 77.6394C17.2526 77.8434 16.9787 77.9579 16.693 77.9579C16.4074 77.9579 16.1335 77.8434 15.9315 77.6394C15.7295 77.4355 15.6161 77.159 15.6161 76.8706V28.4407" fill="#3F3D56"/>
<path d="M1.87804 30.712C3.77009 27.1095 6.92652 24.3503 10.7287 22.9751C14.5309 21.5998 18.7048 21.7078 22.4322 23.2778C26.1597 24.8478 29.172 27.7666 30.8789 31.4622C32.5857 35.1578 32.864 39.3637 31.6592 43.2557H29.6493C29.2455 43.2557 28.9143 43.7096 28.9143 44.2655H28.5454C28.1402 44.2655 27.809 44.7195 27.809 45.2754C27.809 45.8299 28.1402 46.2852 28.5454 46.2852H28.9143C28.9151 46.3696 28.9237 46.4538 28.9398 46.5367H27.2571C26.8519 46.5367 26.5207 46.992 26.5207 47.5465C26.5207 48.1024 26.8519 48.5564 27.2571 48.5564H28.8645C26.3483 51.7405 22.7458 53.8621 18.7619 54.5062C14.7781 55.1502 10.6996 54.2702 7.32443 52.0385C3.94929 49.8067 1.52043 46.3838 0.513112 42.4394C-0.494206 38.4951 -0.00749226 34.3132 1.87802 30.712H1.87804ZM12.8982 44.2682C13.9053 44.8424 15.0426 45.143 16.1992 45.1408C16.4307 45.1407 16.6621 45.1289 16.8925 45.1055C18.4848 44.9375 19.9651 44.2003 21.0662 43.0271C22.1674 41.8538 22.8168 40.3218 22.8973 38.7075C22.9778 37.0933 22.484 35.5031 21.5051 34.2242C20.5262 32.9452 19.1267 32.0617 17.5592 31.7331C15.9917 31.4046 14.3595 31.6526 12.9572 32.4324C11.5549 33.2123 10.475 34.4725 9.91233 35.9857C9.34967 37.4989 9.34136 39.1654 9.88892 40.6842C10.4365 42.203 11.5038 43.4742 12.8982 44.2682V44.2682Z" fill="#6C66DD"/>
<path opacity="0.2" d="M26.5647 47.2066C26.5355 47.0958 26.5207 46.9816 26.5206 46.8668C26.5206 46.3115 26.852 45.8572 27.2569 45.8572H27.9457C27.9972 45.9771 28.0804 46.0804 28.1862 46.1557C28.292 46.2311 28.4163 46.2756 28.5455 46.2843H28.9136C28.9144 46.3691 28.9232 46.4537 28.9399 46.5368H27.2569C26.9389 46.5368 26.6671 46.8174 26.5647 47.2066Z" fill="black"/>
<path opacity="0.2" d="M28.5453 44.2653C28.2274 44.2653 27.9555 44.5459 27.8531 44.9351C27.8239 44.8243 27.8091 44.7101 27.809 44.5953C27.809 44.04 28.1404 43.5857 28.5453 43.5857H28.9135C28.9135 43.0304 29.2448 42.576 29.6498 42.576H31.6592C32.1174 41.0934 32.3638 39.5524 32.391 37.9995C32.3936 38.1204 32.397 38.2411 32.397 38.3627C32.3984 40.022 32.1496 41.6719 31.6592 43.2556H29.6498C29.2448 43.2556 28.9135 43.71 28.9135 44.2653H28.5453Z" fill="black"/>
<path opacity="0.2" d="M16.1988 54.037C18.4847 54.0395 20.7451 53.5522 22.8307 52.6074C24.9162 51.6626 26.7795 50.2818 28.2973 48.5561H28.8652C26.7716 51.2081 23.9131 53.1373 20.6855 54.0767C17.4579 55.016 14.0209 54.9192 10.8503 53.7995C7.67961 52.6798 4.93217 50.5926 2.98828 47.8269C1.04438 45.0612 0.000190089 41.7538 0.000251826 38.3625C0.000251826 38.2602 0.00309534 38.1587 0.00495179 38.0569C0.101638 42.3283 1.85022 46.392 4.87662 49.3784C7.90302 52.3649 11.9669 54.037 16.1988 54.037Z" fill="black"/>
<path opacity="0.2" d="M16.1993 30.2253C17.7934 30.2256 19.3515 30.7031 20.6768 31.5974C22.002 32.4917 23.0349 33.7626 23.6447 35.2496C24.2545 36.7365 24.4139 38.3726 24.1028 39.9509C23.7916 41.5293 23.0239 42.9791 21.8967 44.117C20.7694 45.2549 19.3333 46.0297 17.7699 46.3436C16.2064 46.6575 14.5859 46.4963 13.1133 45.8803C11.6406 45.2644 10.3819 44.2214 9.49635 42.8833C8.61078 41.5451 8.13812 39.9719 8.13812 38.3626C8.14065 36.205 8.99081 34.1365 10.5021 32.611C12.0133 31.0855 14.0623 30.2275 16.1993 30.2253V30.2253ZM12.8984 44.2681C13.9054 44.8423 15.0428 45.1429 16.1993 45.1407C16.4309 45.1406 16.6623 45.1288 16.8926 45.1054C18.4849 44.9374 19.9652 44.2002 21.0664 43.027C22.1675 41.8537 22.817 40.3217 22.8975 38.7074C22.9779 37.0932 22.4842 35.503 21.5053 34.2241C20.5264 32.9451 19.1268 32.0616 17.5593 31.733C15.9918 31.4045 14.3596 31.6525 12.9573 32.4323C11.5551 33.2122 10.4751 34.4724 9.91247 35.9856C9.34981 37.4988 9.34151 39.1653 9.88906 40.6841C10.4366 42.2029 11.5039 43.4741 12.8984 44.2681Z" fill="black"/>
<path d="M1.87809 30.4403V33.1608C1.87795 33.3594 1.9367 33.5535 2.04679 33.7181C2.15689 33.8828 2.3133 34.0103 2.49584 34.0844C2.67838 34.1585 2.87871 34.1757 3.07103 34.1339C3.26336 34.092 3.43886 33.993 3.57494 33.8495V34.1595C3.57494 34.473 3.69827 34.7736 3.91778 34.9952C4.1373 35.2168 4.43503 35.3413 4.74547 35.3413C5.05591 35.3413 5.35363 35.2168 5.57315 34.9952C5.79266 34.7736 5.91599 34.473 5.91599 34.1595V33.9012C6.05758 34.0298 6.23306 34.1142 6.42118 34.1441C6.6093 34.1741 6.80199 34.1483 6.9759 34.0699C7.14981 33.9916 7.29748 33.864 7.40103 33.7026C7.50458 33.5412 7.55957 33.353 7.55932 33.1608L7.60627 30.2692V29.6022C7.60627 29.4953 7.64833 29.3928 7.72317 29.3173C7.79802 29.2417 7.89952 29.1993 8.00537 29.1993C8.11121 29.1993 8.21273 29.2417 8.28757 29.3173C8.36242 29.3928 8.40446 29.4953 8.40446 29.6022V30.2692L8.45142 32.6867C8.45142 32.9507 8.5553 33.2039 8.74021 33.3906C8.92512 33.5773 9.17592 33.6822 9.43742 33.6822C9.69892 33.6822 9.94971 33.5773 10.1346 33.3906C10.3195 33.2039 10.4234 32.9507 10.4234 32.6867L10.5441 30.2692V29.0334C10.5441 28.8582 10.613 28.6903 10.7357 28.5664C10.8583 28.4426 11.0247 28.373 11.1981 28.373C11.3716 28.373 11.538 28.4426 11.6606 28.5664C11.7833 28.6903 11.8522 28.8582 11.8522 29.0334V30.2692L11.9259 32.6867C11.9257 32.8938 11.9896 33.0957 12.1085 33.2643C12.2274 33.433 12.3955 33.56 12.5893 33.6276C12.7831 33.6952 12.993 33.7001 13.1897 33.6416C13.3864 33.5831 13.5601 33.464 13.6866 33.3011C13.8425 33.5023 14.0693 33.6351 14.3198 33.6719C14.5703 33.7086 14.8251 33.6464 15.0313 33.4983V34.1595C15.0313 34.473 15.1546 34.7735 15.3742 34.9952C15.5937 35.2168 15.8914 35.3413 16.2018 35.3413C16.5123 35.3413 16.81 35.2168 17.0295 34.9952C17.249 34.7735 17.3724 34.473 17.3724 34.1595V32.1179C17.3723 32.3456 17.4496 32.5665 17.5913 32.7436C17.7331 32.9208 17.9307 33.0435 18.1513 33.0912C18.3718 33.139 18.6019 33.1089 18.8032 33.0061C19.0044 32.9032 19.1646 32.7338 19.257 32.526V34.1595C19.2574 34.4727 19.3808 34.773 19.6003 34.9944C19.8198 35.2157 20.1173 35.34 20.4276 35.34C20.7378 35.34 21.0353 35.2157 21.2548 34.9944C21.4743 34.773 21.5977 34.4727 21.5981 34.1595V30.2692H21.6047V34.1595C21.6047 34.473 21.728 34.7735 21.9475 34.9952C22.167 35.2168 22.4647 35.3413 22.7752 35.3413C23.0856 35.3413 23.3833 35.2168 23.6029 34.9952C23.8224 34.7735 23.9457 34.473 23.9457 34.1595V32.5398C24.0407 32.7449 24.2021 32.9112 24.4033 33.0111C24.6045 33.1111 24.8335 33.1388 25.0524 33.0896C25.2713 33.0404 25.467 32.9173 25.6073 32.7407C25.7476 32.564 25.8239 32.3443 25.8238 32.1179V30.2692H25.9243V33.5907C25.9243 33.9041 26.0476 34.2047 26.2671 34.4263C26.4866 34.648 26.7843 34.7725 27.0948 34.7725C27.4052 34.7725 27.703 34.648 27.9225 34.4263C28.142 34.2047 28.2653 33.9041 28.2653 33.5907V32.1179C28.2653 32.3819 28.3692 32.6351 28.5541 32.8218C28.739 33.0085 28.9898 33.1134 29.2513 33.1134C29.5128 33.1134 29.7636 33.0085 29.9485 32.8218C30.1334 32.6351 30.2373 32.3819 30.2373 32.1179V29.9264C28.7912 27.3936 26.6993 25.2982 24.1792 23.8584C21.6591 22.4185 18.8028 21.6867 15.9076 21.7392C13.0124 21.7917 10.184 22.6264 7.71665 24.1567C5.24932 25.6869 3.23322 27.8567 1.87809 30.4403V30.4403Z" fill="#E6E6E6"/>
<path opacity="0.2" d="M22.7753 34.7726C22.929 34.7726 23.0812 34.742 23.2232 34.6827C23.3653 34.6233 23.4943 34.5362 23.603 34.4265C23.7117 34.3167 23.7979 34.1865 23.8567 34.0431C23.9155 33.8997 23.9458 33.746 23.9458 33.5908V34.2071C23.9458 34.5205 23.8225 34.8211 23.603 35.0427C23.3835 35.2643 23.0857 35.3888 22.7753 35.3888C22.4648 35.3888 22.1671 35.2643 21.9476 35.0427C21.7281 34.8211 21.6048 34.5205 21.6048 34.2071V33.5908C21.6047 33.746 21.635 33.8997 21.6938 34.0431C21.7527 34.1865 21.8389 34.3167 21.9476 34.4265C22.0563 34.5362 22.1853 34.6233 22.3273 34.6827C22.4693 34.742 22.6216 34.7726 22.7753 34.7726V34.7726Z" fill="black"/>
<path opacity="0.2" d="M20.4276 34.7726C20.5813 34.7726 20.7336 34.742 20.8756 34.6827C21.0176 34.6233 21.1466 34.5362 21.2553 34.4265C21.364 34.3167 21.4502 34.1865 21.5091 34.0431C21.5679 33.8997 21.5982 33.746 21.5981 33.5908V34.2071C21.5981 34.5205 21.4748 34.8211 21.2553 35.0427C21.0358 35.2643 20.7381 35.3888 20.4276 35.3888C20.1172 35.3888 19.8195 35.2643 19.5999 35.0427C19.3804 34.8211 19.2571 34.5205 19.2571 34.2071V33.5908C19.2571 33.746 19.2874 33.8997 19.3462 34.0431C19.405 34.1865 19.4912 34.3167 19.5999 34.4265C19.7086 34.5362 19.8377 34.6233 19.9797 34.6827C20.1217 34.742 20.2739 34.7726 20.4276 34.7726Z" fill="black"/>
<path opacity="0.2" d="M23.9456 31.971C24.0406 32.1761 24.202 32.3423 24.4032 32.4423C24.6045 32.5423 24.8334 32.57 25.0523 32.5208C25.2713 32.4716 25.467 32.3485 25.6072 32.1718C25.7475 31.9952 25.8239 31.7755 25.8237 31.5491V32.1653C25.8239 32.3917 25.7475 32.6114 25.6072 32.7881C25.467 32.9648 25.2713 33.0878 25.0523 33.137C24.8334 33.1862 24.6045 33.1585 24.4032 33.0585C24.202 32.9586 24.0406 32.7923 23.9456 32.5872V31.971Z" fill="black"/>
<path opacity="0.2" d="M21.5979 29.7004H21.6045V30.3167H21.5979V29.7004Z" fill="black"/>
<path opacity="0.2" d="M28.2653 31.5491C28.2653 31.8131 28.3692 32.0663 28.5541 32.253C28.739 32.4397 28.9898 32.5445 29.2513 32.5445C29.5128 32.5445 29.7636 32.4397 29.9485 32.253C30.1334 32.0663 30.2373 31.8131 30.2373 31.5491V32.1653C30.2373 32.4293 30.1334 32.6825 29.9485 32.8692C29.7636 33.0559 29.5128 33.1608 29.2513 33.1608C28.9898 33.1608 28.739 33.0559 28.5541 32.8692C28.3692 32.6825 28.2653 32.4293 28.2653 32.1653V31.5491Z" fill="black"/>
<path opacity="0.2" d="M25.8238 29.7004H25.9243V30.3167H25.8238V29.7004Z" fill="black"/>
<path opacity="0.2" d="M27.0946 34.2037C27.2483 34.2037 27.4005 34.1732 27.5426 34.1138C27.6846 34.0544 27.8136 33.9674 27.9223 33.8576C28.031 33.7479 28.1172 33.6176 28.1761 33.4742C28.2349 33.3308 28.2651 33.1772 28.2651 33.022V33.6382C28.2651 33.9516 28.1418 34.2522 27.9223 34.4738C27.7028 34.6955 27.4051 34.82 27.0946 34.82C26.7842 34.82 26.4865 34.6955 26.2669 34.4738C26.0474 34.2522 25.9241 33.9516 25.9241 33.6382V33.022C25.9241 33.1772 25.9544 33.3308 26.0132 33.4742C26.072 33.6176 26.1582 33.7479 26.2669 33.8576C26.3756 33.9674 26.5047 34.0544 26.6467 34.1138C26.7887 34.1732 26.9409 34.2037 27.0946 34.2037V34.2037Z" fill="black"/>
<path opacity="0.2" d="M16.2015 34.7726C16.3553 34.7726 16.5075 34.742 16.6495 34.6827C16.7915 34.6233 16.9206 34.5362 17.0293 34.4265C17.138 34.3167 17.2242 34.1865 17.283 34.0431C17.3418 33.8997 17.3721 33.746 17.3721 33.5908V34.2071C17.3721 34.5205 17.2487 34.8211 17.0292 35.0427C16.8097 35.2643 16.512 35.3888 16.2015 35.3888C15.8911 35.3888 15.5934 35.2643 15.3739 35.0427C15.1543 34.8211 15.031 34.5205 15.031 34.2071V33.5908C15.031 33.746 15.0613 33.8997 15.1201 34.0431C15.1789 34.1865 15.2651 34.3167 15.3738 34.4265C15.4825 34.5362 15.6116 34.6233 15.7536 34.6827C15.8956 34.742 16.0478 34.7726 16.2015 34.7726Z" fill="black"/>
<path opacity="0.2" d="M7.60609 29.0333C7.60609 28.9264 7.64813 28.824 7.72298 28.7484C7.79783 28.6728 7.89934 28.6304 8.00519 28.6304C8.11104 28.6304 8.21256 28.6728 8.2874 28.7484C8.36225 28.824 8.4043 28.9264 8.4043 29.0333V29.6495C8.4043 29.5427 8.36225 29.4402 8.2874 29.3646C8.21256 29.2891 8.11104 29.2466 8.00519 29.2466C7.89934 29.2466 7.79783 29.2891 7.72298 29.3646C7.64813 29.4402 7.60609 29.5427 7.60609 29.6495V29.0333Z" fill="black"/>
<path opacity="0.2" d="M17.3727 31.5491C17.3726 31.7768 17.4499 31.9977 17.5916 32.1748C17.7334 32.3519 17.931 32.4746 18.1516 32.5224C18.3721 32.5702 18.6022 32.5401 18.8034 32.4372C19.0047 32.3344 19.1649 32.1649 19.2573 31.9572V32.5734C19.1649 32.7812 19.0047 32.9506 18.8034 33.0535C18.6022 33.1563 18.3721 33.1864 18.1516 33.1386C17.931 33.0909 17.7334 32.9682 17.5916 32.791C17.4499 32.6139 17.3726 32.393 17.3727 32.1653V31.5491Z" fill="black"/>
<path opacity="0.2" d="M9.43777 33.1135C9.56726 33.1135 9.69548 33.0878 9.81511 33.0377C9.93475 32.9877 10.0435 32.9144 10.135 32.8219C10.2266 32.7295 10.2992 32.6198 10.3487 32.499C10.3983 32.3782 10.4238 32.2487 10.4238 32.118L10.5444 29.7004V30.3167L10.4238 32.7342C10.4238 32.9983 10.3199 33.2515 10.135 33.4381C9.95006 33.6248 9.69927 33.7297 9.43777 33.7297C9.17627 33.7297 8.92548 33.6248 8.74057 33.4381C8.55566 33.2515 8.45177 32.9983 8.45177 32.7342L8.40482 30.3167V29.7004L8.45177 32.118C8.45176 32.2487 8.47725 32.3782 8.52679 32.499C8.57634 32.6198 8.64897 32.7295 8.74053 32.8219C8.83209 32.9144 8.94079 32.9877 9.06042 33.0377C9.18006 33.0878 9.30828 33.1135 9.43777 33.1135V33.1135Z" fill="black"/>
<path opacity="0.2" d="M2.86426 33.5875C2.99713 33.5876 3.12862 33.5604 3.2508 33.5077C3.37299 33.455 3.48331 33.3778 3.57511 33.2808V33.5908C3.57511 33.9043 3.69844 34.2048 3.91795 34.4265C4.13747 34.6481 4.4352 34.7726 4.74564 34.7726C5.05608 34.7726 5.3538 34.6481 5.57332 34.4265C5.79283 34.2048 5.91616 33.9043 5.91616 33.5908V33.3325C6.05775 33.4611 6.23323 33.5454 6.42135 33.5754C6.60947 33.6053 6.80216 33.5796 6.97607 33.5012C7.14998 33.4229 7.29765 33.2953 7.4012 33.1339C7.50475 32.9725 7.55974 32.7843 7.55949 32.592L7.60645 29.7004V30.3167L7.55949 33.2083C7.55974 33.4006 7.50475 33.5888 7.4012 33.7501C7.29765 33.9115 7.14998 34.0391 6.97607 34.1175C6.80216 34.1958 6.60947 34.2216 6.42135 34.1916C6.23323 34.1617 6.05775 34.0773 5.91616 33.9487V34.2071C5.91616 34.5205 5.79283 34.8211 5.57332 35.0427C5.3538 35.2643 5.05608 35.3888 4.74564 35.3888C4.4352 35.3888 4.13747 35.2643 3.91795 35.0427C3.69844 34.8211 3.57511 34.5205 3.57511 34.2071V33.897C3.43903 34.0405 3.26353 34.1395 3.0712 34.1814C2.87888 34.2233 2.67855 34.206 2.49601 34.1319C2.31347 34.0579 2.15706 33.9303 2.04696 33.7657C1.93687 33.601 1.87812 33.4069 1.87826 33.2083V32.592C1.87824 32.7228 1.90373 32.8522 1.95328 32.973C2.00282 33.0938 2.07545 33.2035 2.16701 33.296C2.25857 33.3884 2.36727 33.4617 2.4869 33.5118C2.60654 33.5618 2.73477 33.5875 2.86426 33.5875V33.5875Z" fill="black"/>
<path opacity="0.2" d="M12.9118 33.1135C13.0611 33.1135 13.2085 33.0792 13.3427 33.0131C13.477 32.9471 13.5945 32.8511 13.6865 32.7323C13.8425 32.9336 14.0693 33.0664 14.3197 33.1032C14.5702 33.1399 14.825 33.0777 15.0312 32.9295V33.5458C14.825 33.6939 14.5702 33.7561 14.3197 33.7194C14.0693 33.6827 13.8425 33.5499 13.6865 33.3486C13.56 33.5115 13.3863 33.6306 13.1897 33.6891C12.993 33.7477 12.7831 33.7428 12.5893 33.6752C12.3954 33.6075 12.2274 33.4805 12.1084 33.3119C11.9895 33.1432 11.9257 32.9413 11.9258 32.7342L11.8521 30.3167V29.7004L11.9258 32.118C11.9258 32.2487 11.9513 32.3782 12.0009 32.499C12.0504 32.6198 12.123 32.7295 12.2146 32.8219C12.3062 32.9144 12.4149 32.9877 12.5345 33.0377C12.6541 33.0877 12.7823 33.1135 12.9118 33.1135V33.1135Z" fill="black"/>
<path opacity="0.2" d="M10.544 28.4645C10.544 28.2894 10.6129 28.1214 10.7355 27.9976C10.8582 27.8738 11.0245 27.8042 11.198 27.8042C11.3715 27.8042 11.5378 27.8738 11.6605 27.9976C11.7831 28.1214 11.8521 28.2894 11.8521 28.4645V29.0808C11.8521 28.9056 11.7831 28.7377 11.6605 28.6139C11.5378 28.49 11.3715 28.4204 11.198 28.4204C11.0245 28.4204 10.8582 28.49 10.7355 28.6139C10.6129 28.7377 10.544 28.9056 10.544 29.0808V28.4645Z" fill="black"/>
<path d="M21.4806 28.5864H21.7153V29.8663H21.4806V28.5864Z" fill="#3F3D56"/>
<path d="M17.0436 27.8992H17.2783V29.1791H17.0436V27.8992Z" fill="#3F3D56"/>
<path d="M4.64852 28.6575H4.8833V29.9374H4.64852V28.6575Z" fill="#3F3D56"/>
<path d="M22.6778 32.9238H22.9126V34.2037H22.6778V32.9238Z" fill="#3F3D56"/>
<path d="M13.0882 30.6873L13.2812 30.5525L14.0025 31.605L13.8095 31.7399L13.0882 30.6873Z" fill="#3F3D56"/>
<path d="M25.5203 28.6652L25.666 28.8511L24.6718 29.6452L24.5262 29.4594L25.5203 28.6652Z" fill="#3F3D56"/>
<path d="M11.7161 23.8776L11.8618 24.0635L10.8677 24.8576L10.722 24.6718L11.7161 23.8776Z" fill="#3F3D56"/>
<path d="M28.1029 29.9931L28.2485 30.179L27.2544 30.9731L27.1087 30.7872L28.1029 29.9931Z" fill="#3F3D56"/>
<path d="M20.6119 25.5764H20.8467V26.8563H20.6119V25.5764Z" fill="white"/>
<path d="M27.0445 32.1653H27.2793V33.4452H27.0445V32.1653Z" fill="white"/>
<path d="M16.0577 23.7275H16.2925V25.0074H16.0577V23.7275Z" fill="white"/>
<path d="M4.78914 31.7388H5.02393V33.0187H4.78914V31.7388Z" fill="white"/>
<path d="M14.7531 28.2098L14.9629 28.1035L15.5314 29.2475L15.3216 29.3538L14.7531 28.2098Z" fill="white"/>
<path d="M15.8326 32.95L16.0425 32.8438L16.611 33.9877L16.4012 34.094L15.8326 32.95Z" fill="white"/>
<path d="M2.87415 30.817L3.08398 30.7107L3.65249 31.8547L3.44266 31.961L2.87415 30.817Z" fill="white"/>
<path d="M19.0601 30.3485L19.2158 30.5259L18.2672 31.3749L18.1115 31.1976L19.0601 30.3485Z" fill="white"/>
<path d="M23.708 24.8024L23.8638 24.9797L22.9152 25.8288L22.7594 25.6515L23.708 24.8024Z" fill="white"/>
<path d="M8.26076 26.9354L8.4165 27.1128L7.46792 27.9619L7.31218 27.7845L8.26076 26.9354Z" fill="white"/>
<path d="M13.9419 22.7641L14.0977 22.9414L13.1491 23.7905L12.9933 23.6131L13.9419 22.7641Z" fill="white"/>
<path d="M18.8277 27.8992H19.0625V29.1791H18.8277V27.8992Z" fill="#FF6584"/>
<path d="M5.58372 28.7074L5.7998 28.6147L6.29521 29.7929L6.07912 29.8855L5.58372 28.7074Z" fill="#FF6584"/>
<path d="M23.5272 29.964L23.7305 30.0825L23.0966 31.1909L22.8933 31.0724L23.5272 29.964Z" fill="#FF6584"/>
<path d="M10.0989 29.0634L10.3022 29.1819L9.66838 30.2903L9.46507 30.1718L10.0989 29.0634Z" fill="#FF6584"/>
<path d="M18.4564 24.3703L18.6597 24.4888L18.0258 25.5972L17.8225 25.4787L18.4564 24.3703Z" fill="#FF6584"/>
<path d="M8.50225 24.1332L8.70557 24.2517L8.07171 25.3601L7.86839 25.2416L8.50225 24.1332Z" fill="#FF6584"/>
<path d="M21.4144 23.0905L21.6177 23.209L20.9838 24.3174L20.7805 24.1989L21.4144 23.0905Z" fill="#FF6584"/>
<path d="M12.9586 25.3394H13.1934V26.6192H12.9586V25.3394Z" fill="#FF6584"/>
<path d="M26.481 27.4724H26.7158V28.7523H26.481V27.4724Z" fill="#FF6584"/>
<path d="M72.309 74.2357C69.1854 74.2357 66.6532 71.6792 66.6532 68.5255C66.6532 65.3719 69.1854 62.8154 72.309 62.8154C75.4327 62.8154 77.9648 65.3719 77.9648 68.5255C77.9648 71.6792 75.4327 74.2357 72.309 74.2357Z" fill="#2F2E41"/>
<path d="M70.1243 75.839L68.4336 75.53L68.982 72.4717L70.6727 72.7807L70.1243 75.839Z" fill="#2F2E41"/>
<path d="M73.5062 76.457L71.8154 76.1479L72.3638 73.0896L74.0546 73.3986L73.5062 76.457Z" fill="#2F2E41"/>
<path d="M72.6083 77.1006C72.0049 76.5847 71.671 75.9812 71.8627 75.7527C72.0543 75.5242 72.6989 75.7573 73.3024 76.2733C73.9058 76.7892 74.2397 77.3927 74.048 77.6212C73.8564 77.8497 73.2118 77.6166 72.6083 77.1006Z" fill="#2F2E41"/>
<path d="M69.2973 76.4956C68.6938 75.9797 68.36 75.3762 68.5517 75.1477C68.7433 74.9192 69.3879 75.1523 69.9913 75.6683C70.5948 76.1843 70.9286 76.7878 70.737 77.0162C70.5453 77.2447 69.9008 77.0116 69.2973 76.4956Z" fill="#2F2E41"/>
<path d="M72.7047 69.0804C71.6371 69.0804 70.7717 68.2066 70.7717 67.1288C70.7717 66.051 71.6371 65.1772 72.7047 65.1772C73.7723 65.1772 74.6377 66.051 74.6377 67.1288C74.6377 68.2066 73.7723 69.0804 72.7047 69.0804Z" fill="white"/>
<path d="M73.4992 67.0799C73.1434 67.0799 72.8549 66.7886 72.8549 66.4293C72.8549 66.0701 73.1434 65.7788 73.4992 65.7788C73.8551 65.7788 74.1436 66.0701 74.1436 66.4293C74.1436 66.7886 73.8551 67.0799 73.4992 67.0799Z" fill="#3F3D56"/>
<path d="M67.8471 62.3135C67.762 60.1996 69.5666 58.409 71.8778 58.3142C74.1889 58.2194 76.1315 59.8563 76.2165 61.9703C76.3016 64.0843 74.695 64.5646 72.3839 64.6594C70.0727 64.7542 67.9321 64.4275 67.8471 62.3135Z" fill="#CFCCE0"/>
<path d="M74.7751 68.1231C74.6656 67.6406 75.8109 66.9638 77.3332 66.6116C78.8555 66.2593 80.1784 66.3648 80.288 66.8473C80.3975 67.3298 79.2522 68.0065 77.7299 68.3588C76.2076 68.7111 74.8847 68.6056 74.7751 68.1231Z" fill="#2F2E41"/>
<path d="M63.6726 69.9871C63.5631 69.5046 64.7083 68.8279 66.2307 68.4756C67.753 68.1233 69.0759 68.2288 69.1854 68.7113C69.295 69.1938 68.1497 69.8706 66.6274 70.2228C65.105 70.5751 63.7821 70.4696 63.6726 69.9871Z" fill="#2F2E41"/>
<path d="M70.7554 70.7758C70.7252 70.9439 70.728 71.1165 70.7639 71.2835C70.7997 71.4506 70.8677 71.6089 70.9642 71.7494C71.0606 71.8898 71.1835 72.0098 71.3258 72.1023C71.4682 72.1948 71.6272 72.2581 71.7938 72.2885C71.9604 72.319 72.1313 72.316 72.2967 72.2797C72.4622 72.2435 72.6189 72.1747 72.758 72.0772C72.8971 71.9798 73.0158 71.8556 73.1074 71.7118C73.1989 71.5681 73.2615 71.4075 73.2916 71.2393C73.4183 70.5322 72.8769 70.282 72.1765 70.154C71.4762 70.0261 70.8822 70.0687 70.7554 70.7758Z" fill="white"/>
<path d="M40.1618 48.7154C39.5902 47.2056 39.5074 45.8347 39.9769 45.6535C40.4464 45.4724 41.2904 46.5495 41.862 48.0593C42.4336 49.5692 42.5164 50.9401 42.0469 51.1213C41.5774 51.3024 40.7334 50.2253 40.1618 48.7154Z" fill="#2F2E41"/>
<path d="M44.3892 75.4807C41.1871 75.4807 38.5913 72.86 38.5913 69.6272C38.5913 66.3944 41.1871 63.7737 44.3892 63.7737C47.5912 63.7737 50.187 66.3944 50.187 69.6272C50.187 72.86 47.5912 75.4807 44.3892 75.4807Z" fill="#2F2E41"/>
<path d="M45.2699 74.2212H47.0312V77.4073H45.2699V74.2212Z" fill="#2F2E41"/>
<path d="M41.7474 74.2212H43.5088V77.4073H41.7474V74.2212Z" fill="#2F2E41"/>
<path d="M45.5634 78.0001C44.7528 78.0001 44.0956 77.7513 44.0956 77.4444C44.0956 77.1375 44.7528 76.8887 45.5634 76.8887C46.3741 76.8887 47.0312 77.1375 47.0312 77.4444C47.0312 77.7513 46.3741 78.0001 45.5634 78.0001Z" fill="#2F2E41"/>
<path d="M42.041 77.9259C41.2303 77.9259 40.5732 77.6771 40.5732 77.3702C40.5732 77.0633 41.2303 76.8145 42.041 76.8145C42.8516 76.8145 43.5088 77.0633 43.5088 77.3702C43.5088 77.6771 42.8516 77.9259 42.041 77.9259Z" fill="#2F2E41"/>
<path d="M44.2426 70.1459C43.1482 70.1459 42.261 69.2502 42.261 68.1453C42.261 67.0405 43.1482 66.1448 44.2426 66.1448C45.3369 66.1448 46.2241 67.0405 46.2241 68.1453C46.2241 69.2502 45.3369 70.1459 44.2426 70.1459Z" fill="white"/>
<path d="M44.2423 68.8122C43.8775 68.8122 43.5818 68.5137 43.5818 68.1454C43.5818 67.7771 43.8775 67.4785 44.2423 67.4785C44.6071 67.4785 44.9028 67.7771 44.9028 68.1454C44.9028 68.5137 44.6071 68.8122 44.2423 68.8122Z" fill="#3F3D56"/>
<path d="M50.0134 64.1836C50.4816 62.0669 48.9851 59.9281 46.6709 59.4064C44.3568 58.8847 42.1013 60.1777 41.6331 62.2944C41.165 64.4111 42.6987 65.1918 45.0128 65.7135C47.327 66.2352 49.5453 66.3004 50.0134 64.1836Z" fill="#CFCCE0"/>
<path d="M46.3706 58.6611C43.1686 58.6611 40.5728 56.0404 40.5728 52.8076C40.5728 49.5748 43.1686 46.9541 46.3706 46.9541C49.5727 46.9541 52.1685 49.5748 52.1685 52.8076C52.1685 56.0404 49.5727 58.6611 46.3706 58.6611Z" fill="#2F2E41"/>
<path d="M47.2518 57.4016H49.0132V60.5877H47.2518V57.4016Z" fill="#2F2E41"/>
<path d="M43.7289 57.4016H45.4902V60.5877H43.7289V57.4016Z" fill="#2F2E41"/>
<path d="M47.5454 61.1805C46.7347 61.1805 46.0776 60.9317 46.0776 60.6248C46.0776 60.3179 46.7347 60.0691 47.5454 60.0691C48.356 60.0691 49.0132 60.3179 49.0132 60.6248C49.0132 60.9317 48.356 61.1805 47.5454 61.1805Z" fill="#2F2E41"/>
<path d="M44.0224 61.1063C43.2118 61.1063 42.5546 60.8575 42.5546 60.5506C42.5546 60.2437 43.2118 59.9949 44.0224 59.9949C44.8331 59.9949 45.4902 60.2437 45.4902 60.5506C45.4902 60.8575 44.8331 61.1063 44.0224 61.1063Z" fill="#2F2E41"/>
<path d="M46.224 53.3263C45.1296 53.3263 44.2425 52.4307 44.2425 51.3258C44.2425 50.2209 45.1296 49.3252 46.224 49.3252C47.3184 49.3252 48.2056 50.2209 48.2056 51.3258C48.2056 52.4307 47.3184 53.3263 46.224 53.3263Z" fill="white"/>
<path d="M46.2242 51.9926C45.8594 51.9926 45.5637 51.6941 45.5637 51.3258C45.5637 50.9575 45.8594 50.6589 46.2242 50.6589C46.589 50.6589 46.8848 50.9575 46.8848 51.3258C46.8848 51.6941 46.589 51.9926 46.2242 51.9926Z" fill="#3F3D56"/>
<path d="M51.9949 47.3641C52.463 45.2474 50.9665 43.1085 48.6524 42.5868C46.3382 42.0651 44.0827 43.3581 43.6146 45.4749C43.1464 47.5916 44.6801 48.3723 46.9942 48.8939C49.3084 49.4156 51.5267 49.4808 51.9949 47.3641Z" fill="#CFCCE0"/>
<path d="M50.2821 51.3457C50.0667 50.8872 51.0648 49.954 52.5114 49.2614C53.958 48.5687 55.3053 48.3788 55.5207 48.8373C55.736 49.2958 54.738 50.229 53.2914 50.9217C51.8448 51.6144 50.4975 51.8042 50.2821 51.3457Z" fill="#2F2E41"/>
<path d="M49.2188 54.9193C49.2188 55.4922 47.7576 56.6235 46.1363 56.6235C44.5151 56.6235 42.9949 55.0106 42.9949 54.4377C42.9949 53.8648 44.5151 54.5488 46.1363 54.5488C47.7576 54.5488 49.2188 54.3464 49.2188 54.9193Z" fill="white"/>
<path d="M29.4398 60.8478C28.9937 60.8478 28.6321 60.4827 28.6321 60.0323C28.6321 59.5819 28.9937 59.2168 29.4398 59.2168C29.8859 59.2168 30.2476 59.5819 30.2476 60.0323C30.2476 60.4827 29.8859 60.8478 29.4398 60.8478Z" fill="#6C66DD"/>
<path d="M27.2396 54.2645C26.7935 54.2645 26.4319 53.8994 26.4319 53.449C26.4319 52.9987 26.7935 52.6335 27.2396 52.6335C27.6857 52.6335 28.0474 52.9987 28.0474 53.449C28.0474 53.8994 27.6857 54.2645 27.2396 54.2645Z" fill="#6C66DD"/>
<path d="M29.2513 50.8995C28.8052 50.8995 28.4436 50.5344 28.4436 50.084C28.4436 49.6337 28.8052 49.2686 29.2513 49.2686C29.6974 49.2686 30.0591 49.6337 30.0591 50.084C30.0591 50.5344 29.6974 50.8995 29.2513 50.8995Z" fill="#6C66DD"/>
<path d="M36.224 72.9127L35.7896 74.4995L32.9736 73.7136L33.4081 72.1268L36.224 72.9127Z" fill="#2F2E41"/>
<path d="M36.0289 74.7795C35.7576 74.7038 35.6998 74.0504 35.8998 73.3201C36.0997 72.5898 36.4817 72.0592 36.753 72.1349C37.0242 72.2106 37.082 72.864 36.8821 73.5943C36.6821 74.3246 36.3001 74.8552 36.0289 74.7795Z" fill="#2F2E41"/>
<path d="M27.335 67.4554C27.1359 65.9725 27.3483 64.7192 27.8094 64.6561C28.2705 64.5931 28.8057 65.744 29.0048 67.2269C29.2038 68.7098 28.9914 69.963 28.5304 70.0261C28.0693 70.0892 27.5341 68.9383 27.335 67.4554Z" fill="#2F2E41"/>
<path d="M28.695 77.8325C25.7306 77.8325 23.3275 75.4063 23.3275 72.4134C23.3275 69.4206 25.7306 66.9944 28.695 66.9944C31.6594 66.9944 34.0625 69.4206 34.0625 72.4134C34.0625 75.4063 31.6594 77.8325 28.695 77.8325Z" fill="#2F2E41"/>
<path d="M36.224 71.9523L35.7896 73.5391L32.9736 72.7532L33.4081 71.1664L36.224 71.9523Z" fill="#2F2E41"/>
<path d="M36.0289 73.8198C35.7576 73.7441 35.6998 73.0907 35.8998 72.3604C36.0997 71.6301 36.4817 71.0995 36.753 71.1752C37.0242 71.2509 37.082 71.9043 36.8821 72.6346C36.6821 73.3649 36.3002 73.8955 36.0289 73.8198Z" fill="#2F2E41"/>
<path d="M27.2856 71.1612C26.2725 71.1612 25.4512 70.332 25.4512 69.3091C25.4512 68.2862 26.2725 67.457 27.2856 67.457C28.2988 67.457 29.1201 68.2862 29.1201 69.3091C29.1201 70.332 28.2988 71.1612 27.2856 71.1612Z" fill="white"/>
<path d="M26.699 69.1085C26.3613 69.1085 26.0876 68.8321 26.0876 68.4911C26.0876 68.1502 26.3613 67.8738 26.699 67.8738C27.0368 67.8738 27.3105 68.1502 27.3105 68.4911C27.3105 68.8321 27.0368 69.1085 26.699 69.1085Z" fill="#3F3D56"/>
<path d="M22.4967 76.1375C20.5104 76.0372 18.9892 74.1615 19.0989 71.948C19.2086 69.7345 20.9078 68.0215 22.8941 68.1219C24.8804 68.2222 25.192 69.7965 25.0823 72.0099C24.9726 74.2234 24.483 76.2379 22.4967 76.1375Z" fill="#CFCCE0"/>
<path d="M30.8888 70.1208C31.2121 70.1472 31.5326 70.0429 31.7797 69.8307C32.0268 69.6186 32.1803 69.3161 32.2065 68.9897C32.2326 68.6633 32.1293 68.3398 31.9192 68.0903C31.7091 67.8408 31.4094 67.6858 31.0861 67.6594C30.4129 67.6044 30.2293 68.144 30.1748 68.8237C30.1203 69.5034 30.2156 70.0658 30.8888 70.1208Z" fill="white"/>
<path d="M29.3497 68.743C29.1506 67.2601 29.363 66.0068 29.8241 65.9437C30.2852 65.8806 30.8203 67.0316 31.0194 68.5145C31.2185 69.9974 31.0061 71.2506 30.545 71.3137C30.0839 71.3768 29.5487 70.2258 29.3497 68.743Z" fill="#2F2E41"/>
<path d="M29.8436 66.1486C29.3975 66.1486 29.0359 65.7834 29.0359 65.3331C29.0359 64.8827 29.3975 64.5176 29.8436 64.5176C30.2897 64.5176 30.6514 64.8827 30.6514 65.3331C30.6514 65.7834 30.2897 66.1486 29.8436 66.1486Z" fill="#6C66DD"/>
<path d="M34.5506 46.5742C34.532 46.4307 34.5441 46.285 34.5861 46.1467C34.628 46.0084 34.6988 45.8807 34.7936 45.7724C34.8885 45.664 35.0052 45.5774 35.136 45.5183C35.2668 45.4593 35.4086 45.4292 35.5518 45.4301H35.8717C35.7943 45.2838 35.7537 45.1204 35.7538 44.9544C35.7545 44.6843 35.8612 44.4255 36.0503 44.2345C36.2395 44.0435 36.4959 43.9358 36.7634 43.9351H40.129C40.3968 43.9351 40.6536 44.0425 40.843 44.2336C41.0323 44.4248 41.1387 44.6841 41.1387 44.9544C41.1387 45.2248 41.0323 45.4841 40.843 45.6752C40.6536 45.8664 40.3968 45.9738 40.129 45.9738H39.8091C39.8866 46.1202 39.9271 46.2835 39.9271 46.4495C39.9263 46.6615 39.8603 46.868 39.7382 47.0405C39.6161 47.2129 39.444 47.3428 39.2455 47.4121C39.2641 47.5556 39.252 47.7013 39.2101 47.8396C39.1681 47.9779 39.0974 48.1056 39.0025 48.214C38.9077 48.3223 38.7909 48.409 38.6601 48.468C38.5293 48.527 38.3875 48.5571 38.2443 48.5562H34.8787C34.6398 48.5564 34.4086 48.471 34.2263 48.3152C34.0439 48.1594 33.9222 47.9434 33.8828 47.7055C33.8435 47.4677 33.8889 47.2234 34.0112 47.0162C34.1335 46.8091 34.3246 46.6524 34.5506 46.5742V46.5742Z" fill="#6C66DD"/>
<path d="M79.7121 53.9392L79.7852 53.8655L80.1794 54.2635L80.1064 54.3372L79.7121 53.9392Z" fill="#3F3D56"/>
</g>
<defs>
<clipPath id="clip0">
<rect width="120" height="78" transform="matrix(-1 0 0 1 120 0)" fill="white"/>
</clipPath>
</defs>
</svg>
