<svg width="290" height="220" viewBox="0 0 290 220" fill="none" xmlns="http://www.w3.org/2000/svg">
<path d="M140.305 194.51C77.8862 189.764 3.4489 141.436 7.23861 91.6745C11.0283 41.9131 83.1217 -4.41068 145.54 0.335796C207.959 5.08227 243.89 98.078 240.1 147.839C236.31 197.601 202.724 199.257 140.305 194.51Z" fill="#EEEEFF"/>
<path d="M145.54 202.503C217.501 202.503 275.837 198.932 275.837 194.526C275.837 190.121 217.501 186.55 145.54 186.55C73.5788 186.55 15.2427 190.121 15.2427 194.526C15.2427 198.932 73.5788 202.503 145.54 202.503Z" fill="#3F3D56"/>
<path opacity="0.1" d="M145.54 199.673C206.835 199.673 256.525 197.311 256.525 194.398C256.525 191.484 206.835 189.123 145.54 189.123C84.2451 189.123 34.5557 191.484 34.5557 194.398C34.5557 197.311 84.2451 199.673 145.54 199.673Z" fill="black"/>
<path d="M54.6408 220C84.8181 220 109.282 217.869 109.282 215.24C109.282 212.611 84.8181 210.48 54.6408 210.48C24.4635 210.48 0 212.611 0 215.24C0 217.869 24.4635 220 54.6408 220Z" fill="#3F3D56"/>
<path opacity="0.1" d="M54.641 218.311C80.3454 218.311 101.183 216.901 101.183 215.163C101.183 213.424 80.3454 212.015 54.641 212.015C28.9366 212.015 8.09912 213.424 8.09912 215.163C8.09912 216.901 28.9366 218.311 54.641 218.311Z" fill="black"/>
<path d="M244.164 41.6842H50.521V193.497H244.164V41.6842Z" fill="#3F3D56"/>
<path d="M145.139 62.4309H97.3676C97.2914 62.431 97.2158 62.4162 97.1454 62.3871C97.0749 62.3581 97.0108 62.3154 96.9569 62.2616C96.9029 62.2078 96.8601 62.1439 96.8309 62.0735C96.8017 62.0032 96.7866 61.9277 96.7866 61.8516C96.7866 61.7754 96.8017 61.7 96.8309 61.6296C96.8601 61.5592 96.9029 61.4953 96.9569 61.4415C97.0108 61.3877 97.0749 61.345 97.1454 61.316C97.2158 61.287 97.2914 61.2721 97.3676 61.2722H145.139C145.293 61.2726 145.44 61.3337 145.548 61.4424C145.657 61.551 145.718 61.6981 145.718 61.8516C145.718 62.005 145.657 62.1522 145.548 62.2608C145.44 62.3694 145.293 62.4306 145.139 62.4309V62.4309Z" fill="#F2F2F2"/>
<path d="M197.433 68.8034H122.297C122.143 68.8034 121.996 68.7423 121.887 68.6337C121.778 68.5251 121.717 68.3777 121.717 68.2241C121.717 68.0704 121.778 67.9231 121.887 67.8144C121.996 67.7058 122.143 67.6447 122.297 67.6447H197.433C197.509 67.6447 197.585 67.6597 197.655 67.6888C197.725 67.718 197.789 67.7606 197.843 67.8144C197.897 67.8682 197.94 67.9321 197.969 68.0024C197.998 68.0726 198.013 68.148 198.013 68.2241C198.013 68.3001 197.998 68.3755 197.969 68.4457C197.94 68.516 197.897 68.5799 197.843 68.6337C197.789 68.6875 197.725 68.7302 197.655 68.7593C197.585 68.7884 197.509 68.8034 197.433 68.8034V68.8034Z" fill="#F2F2F2"/>
<path d="M145.371 75.1758H97.5993C97.4455 75.1758 97.2981 75.1148 97.1893 75.0061C97.0806 74.8975 97.0195 74.7502 97.0195 74.5965C97.0195 74.4429 97.0806 74.2955 97.1893 74.1869C97.2981 74.0782 97.4455 74.0172 97.5993 74.0172H145.371C145.525 74.0172 145.672 74.0782 145.781 74.1869C145.89 74.2955 145.951 74.4429 145.951 74.5965C145.951 74.7502 145.89 74.8975 145.781 75.0061C145.672 75.1148 145.525 75.1758 145.371 75.1758V75.1758Z" fill="#F2F2F2"/>
<path d="M197.433 75.2917H149.661C149.508 75.2917 149.36 75.2306 149.251 75.122C149.143 75.0134 149.082 74.866 149.082 74.7124C149.082 74.5587 149.143 74.4114 149.251 74.3027C149.36 74.1941 149.508 74.1331 149.661 74.1331H197.433C197.587 74.1331 197.734 74.1941 197.843 74.3027C197.952 74.4114 198.013 74.5587 198.013 74.7124C198.013 74.866 197.952 75.0134 197.843 75.122C197.734 75.2306 197.587 75.2917 197.433 75.2917V75.2917Z" fill="#F2F2F2"/>
<path d="M145.487 81.5483H97.7155C97.5617 81.5483 97.4143 81.4872 97.3056 81.3786C97.1968 81.27 97.1357 81.1226 97.1357 80.969C97.1357 80.8153 97.1968 80.668 97.3056 80.5593C97.4143 80.4507 97.5617 80.3896 97.7155 80.3896H145.487C145.641 80.3896 145.788 80.4507 145.897 80.5593C146.006 80.668 146.067 80.8153 146.067 80.969C146.067 81.1226 146.006 81.27 145.897 81.3786C145.788 81.4872 145.641 81.5483 145.487 81.5483V81.5483Z" fill="#F2F2F2"/>
<path d="M145.603 87.9207H97.8317C97.6779 87.9207 97.5305 87.8597 97.4218 87.7511C97.313 87.6424 97.252 87.4951 97.252 87.3414C97.252 87.1878 97.313 87.0404 97.4218 86.9318C97.5305 86.8231 97.6779 86.7621 97.8317 86.7621H145.603C145.757 86.7621 145.905 86.8231 146.013 86.9318C146.122 87.0404 146.183 87.1878 146.183 87.3414C146.183 87.4951 146.122 87.6424 146.013 87.7511C145.905 87.8597 145.757 87.9207 145.603 87.9207V87.9207Z" fill="#F2F2F2"/>
<path d="M167.286 62.5468H153.604C153.45 62.5468 153.302 62.4857 153.194 62.3771C153.085 62.2685 153.024 62.1211 153.024 61.9675C153.024 61.8138 153.085 61.6665 153.194 61.5578C153.302 61.4492 153.45 61.3882 153.604 61.3882H167.286C167.44 61.3882 167.587 61.4492 167.696 61.5578C167.805 61.6665 167.866 61.8138 167.866 61.9675C167.866 62.1211 167.805 62.2685 167.696 62.3771C167.587 62.4857 167.44 62.5468 167.286 62.5468V62.5468Z" fill="#F2F2F2"/>
<path d="M167.286 81.5483H153.604C153.45 81.5483 153.302 81.4872 153.194 81.3786C153.085 81.27 153.024 81.1226 153.024 80.969C153.024 80.8153 153.085 80.668 153.194 80.5593C153.302 80.4507 153.45 80.3896 153.604 80.3896H167.286C167.44 80.3896 167.587 80.4507 167.696 80.5593C167.805 80.668 167.866 80.8153 167.866 80.969C167.866 81.1226 167.805 81.27 167.696 81.3786C167.587 81.4872 167.44 81.5483 167.286 81.5483V81.5483Z" fill="#F2F2F2"/>
<path d="M167.286 87.8049H153.604C153.528 87.805 153.452 87.7902 153.382 87.7611C153.311 87.7321 153.247 87.6894 153.193 87.6356C153.139 87.5818 153.096 87.5179 153.067 87.4475C153.038 87.3772 153.023 87.3017 153.023 87.2256C153.023 87.1494 153.038 87.0739 153.067 87.0036C153.096 86.9332 153.139 86.8693 153.193 86.8155C153.247 86.7617 153.311 86.719 153.382 86.69C153.452 86.6609 153.528 86.6461 153.604 86.6462H167.286C167.362 86.6461 167.438 86.6609 167.508 86.69C167.579 86.719 167.643 86.7617 167.697 86.8155C167.751 86.8693 167.794 86.9332 167.823 87.0036C167.852 87.0739 167.867 87.1494 167.867 87.2256C167.867 87.3017 167.852 87.3772 167.823 87.4475C167.794 87.5179 167.751 87.5818 167.697 87.6356C167.643 87.6894 167.579 87.7321 167.508 87.7611C167.438 87.7902 167.362 87.805 167.286 87.8049V87.8049Z" fill="#F2F2F2"/>
<path d="M190.244 87.8049H176.562C176.408 87.8046 176.261 87.7434 176.153 87.6348C176.044 87.5262 175.983 87.379 175.983 87.2256C175.983 87.0721 176.044 86.925 176.153 86.8164C176.261 86.7077 176.408 86.6466 176.562 86.6462H190.244C190.32 86.6461 190.396 86.6609 190.466 86.69C190.537 86.719 190.601 86.7617 190.655 86.8155C190.709 86.8693 190.752 86.9332 190.781 87.0036C190.81 87.0739 190.825 87.1494 190.825 87.2256C190.825 87.3017 190.81 87.3772 190.781 87.4475C190.752 87.5179 190.709 87.5818 190.655 87.6356C190.601 87.6894 190.537 87.7321 190.466 87.7611C190.396 87.7902 190.32 87.805 190.244 87.8049V87.8049Z" fill="#F2F2F2"/>
<path d="M110.934 68.8034H97.2516C97.0979 68.8034 96.9504 68.7423 96.8417 68.6337C96.733 68.5251 96.6719 68.3777 96.6719 68.2241C96.6719 68.0704 96.733 67.9231 96.8417 67.8144C96.9504 67.7058 97.0979 67.6447 97.2516 67.6447H110.934C111.088 67.6447 111.235 67.7058 111.344 67.8144C111.452 67.9231 111.514 68.0704 111.514 68.2241C111.514 68.3777 111.452 68.5251 111.344 68.6337C111.235 68.7423 111.088 68.8034 110.934 68.8034V68.8034Z" fill="#F2F2F2"/>
<path d="M145.198 156.28H97.4259C97.2722 156.28 97.1247 156.219 97.016 156.11C96.9073 156.002 96.8462 155.854 96.8462 155.701C96.8462 155.547 96.9073 155.4 97.016 155.291C97.1247 155.182 97.2722 155.121 97.4259 155.121H145.198C145.351 155.121 145.499 155.182 145.608 155.291C145.716 155.4 145.777 155.547 145.777 155.701C145.777 155.854 145.716 156.002 145.608 156.11C145.499 156.219 145.351 156.28 145.198 156.28Z" fill="#F2F2F2"/>
<path d="M144.966 169.025H97.194C97.0403 169.025 96.8928 168.964 96.7841 168.855C96.6753 168.747 96.6143 168.599 96.6143 168.446C96.6143 168.292 96.6753 168.145 96.7841 168.036C96.8928 167.927 97.0403 167.866 97.194 167.866H144.966C145.119 167.866 145.267 167.927 145.376 168.036C145.484 168.145 145.545 168.292 145.545 168.446C145.545 168.599 145.484 168.747 145.376 168.855C145.267 168.964 145.119 169.025 144.966 169.025Z" fill="#F2F2F2"/>
<path d="M145.082 175.397H97.31C97.2337 175.397 97.1582 175.383 97.0877 175.354C97.0173 175.325 96.9532 175.282 96.8992 175.228C96.8453 175.174 96.8025 175.11 96.7732 175.04C96.744 174.97 96.729 174.894 96.729 174.818C96.729 174.742 96.744 174.666 96.7732 174.596C96.8025 174.526 96.8453 174.462 96.8992 174.408C96.9532 174.354 97.0173 174.311 97.0877 174.282C97.1582 174.253 97.2337 174.239 97.31 174.239H145.082C145.158 174.239 145.233 174.253 145.304 174.282C145.374 174.311 145.438 174.354 145.492 174.408C145.546 174.462 145.589 174.526 145.618 174.596C145.648 174.666 145.663 174.742 145.663 174.818C145.663 174.894 145.648 174.97 145.618 175.04C145.589 175.11 145.546 175.174 145.492 175.228C145.438 175.282 145.374 175.325 145.304 175.354C145.233 175.383 145.158 175.397 145.082 175.397V175.397Z" fill="#F2F2F2"/>
<path d="M165.488 169.141H151.806C151.653 169.141 151.505 169.08 151.396 168.971C151.288 168.862 151.227 168.715 151.227 168.561C151.227 168.408 151.288 168.26 151.396 168.152C151.505 168.043 151.653 167.982 151.806 167.982H165.488C165.642 167.982 165.79 168.043 165.898 168.152C166.007 168.26 166.068 168.408 166.068 168.561C166.068 168.715 166.007 168.862 165.898 168.971C165.79 169.08 165.642 169.141 165.488 169.141Z" fill="#F2F2F2"/>
<path d="M165.488 175.397H151.806C151.653 175.397 151.505 175.336 151.396 175.228C151.288 175.119 151.227 174.972 151.227 174.818C151.227 174.664 151.288 174.517 151.396 174.408C151.505 174.3 151.653 174.239 151.806 174.239H165.488C165.642 174.239 165.79 174.3 165.898 174.408C166.007 174.517 166.068 174.664 166.068 174.818C166.068 174.972 166.007 175.119 165.898 175.228C165.79 175.336 165.642 175.397 165.488 175.397V175.397Z" fill="#F2F2F2"/>
<path d="M188.447 169.141H174.765C174.611 169.141 174.464 169.08 174.355 168.971C174.246 168.862 174.185 168.715 174.185 168.561C174.185 168.408 174.246 168.26 174.355 168.152C174.464 168.043 174.611 167.982 174.765 167.982H188.447C188.601 167.982 188.748 168.043 188.857 168.152C188.966 168.26 189.027 168.408 189.027 168.561C189.027 168.715 188.966 168.862 188.857 168.971C188.748 169.08 188.601 169.141 188.447 169.141V169.141Z" fill="#F2F2F2"/>
<path d="M197.491 162.652H122.355C122.201 162.652 122.054 162.591 121.945 162.483C121.836 162.374 121.775 162.227 121.775 162.073C121.775 161.919 121.836 161.772 121.945 161.663C122.054 161.555 122.201 161.494 122.355 161.494H197.491C197.645 161.494 197.792 161.555 197.901 161.663C198.01 161.772 198.071 161.919 198.071 162.073C198.071 162.227 198.01 162.374 197.901 162.483C197.792 162.591 197.645 162.652 197.491 162.652V162.652Z" fill="#F2F2F2"/>
<path d="M110.992 162.652H97.3097C97.156 162.652 97.0085 162.591 96.8998 162.483C96.7911 162.374 96.73 162.227 96.73 162.073C96.73 161.919 96.7911 161.772 96.8998 161.663C97.0085 161.555 97.156 161.494 97.3097 161.494H110.992C111.146 161.494 111.293 161.555 111.402 161.663C111.511 161.772 111.572 161.919 111.572 162.073C111.572 162.227 111.511 162.374 111.402 162.483C111.293 162.591 111.146 162.652 110.992 162.652V162.652Z" fill="#F2F2F2"/>
<path d="M197.491 181.886H122.355C122.279 181.886 122.203 181.871 122.133 181.842C122.062 181.813 121.998 181.77 121.944 181.716C121.89 181.663 121.847 181.599 121.818 181.528C121.789 181.458 121.774 181.382 121.774 181.306C121.774 181.23 121.789 181.155 121.818 181.084C121.847 181.014 121.89 180.95 121.944 180.896C121.998 180.842 122.062 180.8 122.133 180.771C122.203 180.742 122.279 180.727 122.355 180.727H197.491C197.645 180.727 197.792 180.788 197.901 180.897C198.01 181.005 198.071 181.153 198.071 181.306C198.071 181.46 198.01 181.607 197.901 181.716C197.792 181.825 197.645 181.886 197.491 181.886V181.886Z" fill="#F2F2F2"/>
<path d="M110.992 181.886H97.31C97.2337 181.886 97.1582 181.871 97.0877 181.842C97.0173 181.813 96.9532 181.77 96.8992 181.716C96.8453 181.663 96.8025 181.599 96.7732 181.528C96.744 181.458 96.729 181.382 96.729 181.306C96.729 181.23 96.744 181.155 96.7732 181.084C96.8025 181.014 96.8453 180.95 96.8992 180.896C96.9532 180.842 97.0173 180.8 97.0877 180.771C97.1582 180.742 97.2337 180.727 97.31 180.727H110.992C111.068 180.727 111.144 180.742 111.214 180.771C111.285 180.8 111.349 180.842 111.403 180.896C111.457 180.95 111.5 181.014 111.529 181.084C111.558 181.155 111.573 181.23 111.573 181.306C111.573 181.382 111.558 181.458 111.529 181.528C111.5 181.599 111.457 181.663 111.403 181.716C111.349 181.77 111.285 181.813 111.214 181.842C111.144 181.871 111.068 181.886 110.992 181.886Z" fill="#F2F2F2"/>
<path d="M133.661 103.215L115.108 121.521L133.661 139.827L137.835 135.656L123.805 121.637L137.951 107.502L133.661 103.215Z" fill="#6C66DD"/>
<path d="M161.024 103.215L179.577 121.521L161.024 139.827L156.85 135.656L170.88 121.637L156.734 107.502L161.024 103.215Z" fill="#6C66DD"/>
<path d="M55.6711 47.8597C56.951 47.8597 57.9886 46.8228 57.9886 45.5439C57.9886 44.2649 56.951 43.2281 55.6711 43.2281C54.3911 43.2281 53.3535 44.2649 53.3535 45.5439C53.3535 46.8228 54.3911 47.8597 55.6711 47.8597Z" fill="#6C66DD"/>
<path d="M61.8512 47.8597C63.1312 47.8597 64.1688 46.8228 64.1688 45.5439C64.1688 44.2649 63.1312 43.2281 61.8512 43.2281C60.5713 43.2281 59.5337 44.2649 59.5337 45.5439C59.5337 46.8228 60.5713 47.8597 61.8512 47.8597Z" fill="#6C66DD"/>
<path d="M68.0309 47.8597C69.3109 47.8597 70.3485 46.8228 70.3485 45.5439C70.3485 44.2649 69.3109 43.2281 68.0309 43.2281C66.751 43.2281 65.7134 44.2649 65.7134 45.5439C65.7134 46.8228 66.751 47.8597 68.0309 47.8597Z" fill="#6C66DD"/>
<path opacity="0.1" d="M244.164 49.4035H50.521V50.1754H244.164V49.4035Z" fill="black"/>
<path d="M290 156.304C290 172.713 280.238 178.442 268.196 178.442C256.153 178.442 246.391 172.713 246.391 156.304C246.391 139.895 268.196 119.02 268.196 119.02C268.196 119.02 290 139.895 290 156.304Z" fill="#EEEEFF"/>
<path d="M267.401 175.932L267.625 162.199L276.918 145.21L267.66 160.045L267.76 153.87L274.165 141.579L267.787 152.236L267.967 141.13L274.826 131.345L267.995 139.384L268.108 119.02L267.399 145.978L267.457 144.866L260.484 134.2L267.346 147.001L266.696 159.404L266.677 159.075L258.638 147.851L266.652 160.238L266.571 161.789L266.556 161.812L266.563 161.94L264.915 193.408H267.117L267.381 177.154L275.377 164.797L267.401 175.932Z" fill="#3F3D56"/>
<path d="M31.5753 193.263C30.9063 193.635 30.2005 193.937 29.4694 194.164C28.1615 194.521 26.7637 194.39 25.4427 194.695C24.9019 194.82 24.3132 195.081 24.1412 195.608C24.0151 195.995 24.1523 196.413 24.2838 196.798C25.7434 201.074 26.6232 205.615 28.9511 209.489C29.9294 211.116 31.1436 212.589 32.5543 213.86C33.0835 214.336 33.6832 214.803 34.3917 214.877C34.7182 214.912 35.048 214.86 35.3478 214.726C35.6477 214.592 35.907 214.382 36.0995 214.116C36.292 213.851 36.411 213.539 36.4443 213.212C36.4777 212.886 36.4244 212.557 36.2896 212.257C36.0809 211.794 35.6929 211.435 35.4427 210.993C35.1713 210.429 35.0122 209.818 34.9742 209.194C34.7442 207.365 34.5226 205.453 35.1568 203.722C35.5822 202.561 36.3625 201.571 37.0125 200.519C37.6625 199.467 38.2026 198.262 38.058 197.034C37.9593 196.196 37.5502 195.429 37.1181 194.704C36.6851 193.978 35.8294 192.026 34.9595 191.784C34.0565 191.532 32.3628 192.86 31.5753 193.263Z" fill="#2F2E41"/>
<path d="M55.3781 208.035C55.3918 208.449 55.334 208.862 55.2074 209.256C54.935 209.975 54.2595 210.467 53.9105 211.152C53.4251 212.104 53.6451 213.255 53.9667 214.274C54.1683 214.913 54.4327 215.578 54.9742 215.973C55.4372 216.26 55.9637 216.428 56.5073 216.464C61.1517 217.106 65.8696 216.738 70.5564 216.872C71.4106 216.897 72.315 216.927 73.0607 216.509C73.8064 216.092 74.2673 215.044 73.7602 214.356C73.3048 213.739 72.4043 213.745 71.6378 213.708C69.6418 213.607 67.7409 212.825 66.2526 211.492C65.9591 211.241 65.7045 210.948 65.4973 210.623C65.3379 210.334 65.2056 210.031 65.1022 209.718C64.4452 207.94 63.6635 206.21 62.7631 204.541C62.5111 204.074 62.2257 203.588 61.7573 203.338C61.4144 203.182 61.0423 203.101 60.6656 203.1C59.4975 203.024 56.4727 202.627 55.5694 203.534C54.7348 204.373 55.3966 206.97 55.3781 208.035Z" fill="#2F2E41"/>
<path d="M62.5662 104.389C66.6869 104.389 70.0274 101.051 70.0274 96.9339C70.0274 92.8163 66.6869 89.4784 62.5662 89.4784C58.4455 89.4784 55.105 92.8163 55.105 96.9339C55.105 101.051 58.4455 104.389 62.5662 104.389Z" fill="#FBBEBE"/>
<path d="M55.8285 103.09C55.3847 104.277 54.632 105.392 53.5366 106.031L63.856 108.135C63.4817 106.63 63.4324 105.062 63.7113 103.537C63.8138 103.167 63.8348 102.78 63.7731 102.402C63.579 101.654 62.7363 101.294 61.9822 101.122C60.0988 100.693 58.4332 100.463 56.683 99.632C56.148 100.547 56.2229 102.035 55.8285 103.09Z" fill="#FBBEBE"/>
<path d="M53.4503 103.24C54.5604 102.738 55.7699 102.493 56.988 102.525C58.2061 102.557 59.4012 102.864 60.4835 103.423C61.8065 104.12 62.902 105.172 63.9783 106.209C64.9703 107.165 66.0286 108.26 66.099 109.636C66.1332 110.302 65.925 110.954 65.8199 111.613C65.631 112.976 65.8711 114.364 66.5069 115.584C67.1427 116.805 68.1427 117.797 69.3683 118.424C70.1881 119.789 70.3573 121.442 70.3699 123.034C70.4175 129.064 68.5135 135.169 69.8728 141.044C70.1919 142.424 70.6869 143.76 70.9626 145.148C71.3197 146.947 71.3021 148.797 71.4889 150.621C71.6915 152.597 72.1337 154.541 72.8056 156.41C72.3565 157.123 71.4219 157.397 70.5802 157.339C69.7385 157.281 68.9514 156.916 68.2003 156.532C64.5635 154.673 61.2325 152.221 57.4657 150.64C54.9737 149.595 52.3189 148.943 49.9013 147.736C47.4838 146.528 45.2354 144.611 44.4962 142.014C44.1766 140.89 44.1569 139.707 44.1394 138.539C44.066 133.621 43.9977 128.649 45.069 123.848C46.0138 119.615 47.835 115.564 48.2323 111.245C48.3616 109.839 48.3644 108.334 49.1506 107.161C50.2617 105.502 52.661 105.073 53.4503 103.24Z" fill="#2F2E41"/>
<path d="M58.3226 97.0391C58.7622 96.4661 59.6102 96.388 60.3125 96.5575C61.0149 96.727 61.6625 97.0887 62.3719 97.2261C62.5331 97.2719 62.7022 97.2835 62.8681 97.2602C63.0341 97.2369 63.1934 97.1792 63.3358 97.0908C63.5838 96.8468 63.7321 96.5194 63.7518 96.1722C64.0003 94.6949 64.0583 93.192 63.9246 91.7C63.8876 91.4907 63.9016 91.2756 63.9654 91.0728C64.1411 90.65 64.6768 90.5493 65.1144 90.4137C65.8364 90.1698 66.4565 89.6926 66.8768 89.0573C67.2971 88.4221 67.4936 87.665 67.4353 86.9057C67.4244 86.5415 67.2712 86.1961 67.0087 85.9432C66.7061 85.6968 66.2825 85.6817 65.8921 85.6786C63.8865 85.6625 61.8808 85.6629 59.8751 85.68C59.1328 85.6863 58.3532 85.7046 57.7097 86.0744C57.2339 86.3478 56.8801 86.7879 56.4529 87.1323C55.3389 88.0306 53.8321 88.2134 52.4768 88.6738C51.8152 88.8621 51.2144 89.2201 50.7341 89.7122C50.2834 90.2268 50.0667 90.9919 50.3497 91.6144C50.4951 91.8739 50.6574 92.1235 50.8356 92.3616C51.6351 93.6389 51.1029 95.2957 51.2222 96.7976C51.3713 98.6729 54.1488 101.715 56.0321 102.159C59.0726 102.875 57.3161 98.2702 58.3226 97.0391Z" fill="#2F2E41"/>
<path d="M54.1105 179.263C54.3024 180.633 54.5484 182.007 54.4827 183.388C54.3908 185.316 53.6949 187.174 53.5663 189.1C53.4702 190.539 53.6924 191.993 53.4925 193.421C53.3645 194.335 53.0661 195.216 52.8814 196.121C52.5889 197.595 52.5971 199.113 52.9057 200.583C53.2142 202.054 53.8167 203.448 54.677 204.68C54.8034 204.891 54.9831 205.065 55.198 205.185C55.4042 205.261 55.6249 205.29 55.8438 205.27C58.0154 205.226 60.1813 205.029 62.3253 204.682C62.4822 204.675 62.6309 204.61 62.7415 204.498C62.7898 204.424 62.8207 204.34 62.8318 204.253C63.2294 202.211 62.3228 200.163 62.0923 198.096C61.8461 195.888 62.3762 193.676 62.9024 191.518C63.141 190.453 63.4391 189.403 63.7953 188.371C64.0496 187.677 64.3568 187.002 64.5772 186.297C64.8894 185.188 65.0796 184.049 65.1443 182.899C65.2973 181.085 65.3784 179.267 65.3875 177.445C65.4395 175.718 65.2957 173.991 64.9588 172.296C64.4752 170.151 63.4849 168.158 62.5032 166.19C61.9783 166.316 61.4856 166.55 61.0566 166.877C59.7916 167.696 58.4708 168.425 57.1039 169.059C56.1855 169.485 54.3945 169.788 53.8116 170.677C53.2368 171.553 53.6076 173.34 53.6515 174.306C53.7269 175.964 53.8799 177.617 54.1105 179.263Z" fill="#2F2E41"/>
<path opacity="0.1" d="M54.1105 179.263C54.3024 180.633 54.5484 182.007 54.4827 183.388C54.3908 185.316 53.6949 187.174 53.5663 189.1C53.4702 190.539 53.6924 191.993 53.4925 193.421C53.3645 194.335 53.0661 195.216 52.8814 196.121C52.5889 197.595 52.5971 199.113 52.9057 200.583C53.2142 202.054 53.8167 203.448 54.677 204.68C54.8034 204.891 54.9831 205.065 55.198 205.185C55.4042 205.261 55.6249 205.29 55.8438 205.27C58.0154 205.226 60.1813 205.029 62.3253 204.682C62.4822 204.675 62.6309 204.61 62.7415 204.498C62.7898 204.424 62.8207 204.34 62.8318 204.253C63.2294 202.211 62.3228 200.163 62.0923 198.096C61.8461 195.888 62.3762 193.676 62.9024 191.518C63.141 190.453 63.4391 189.403 63.7953 188.371C64.0496 187.677 64.3568 187.002 64.5772 186.297C64.8894 185.188 65.0796 184.049 65.1443 182.899C65.2973 181.085 65.3784 179.267 65.3875 177.445C65.4395 175.718 65.2957 173.991 64.9588 172.296C64.4752 170.151 63.4849 168.158 62.5032 166.19C61.9783 166.316 61.4856 166.55 61.0566 166.877C59.7916 167.696 58.4708 168.425 57.1039 169.059C56.1855 169.485 54.3945 169.788 53.8116 170.677C53.2368 171.553 53.6076 173.34 53.6515 174.306C53.7269 175.964 53.8799 177.617 54.1105 179.263Z" fill="black"/>
<path d="M44.0235 150.016C43.0327 152.682 44.4891 155.562 45.7544 158.109C48.8718 164.384 51.0365 171.08 53.1898 177.746C53.351 178.246 53.5122 178.791 53.3324 179.284C53.1771 179.634 52.925 179.933 52.6058 180.145C51.1211 181.272 49.2307 181.673 47.4622 182.263C45.7531 182.832 44.1161 183.599 42.5844 184.547C41.3028 185.341 40.1023 186.257 38.9041 187.171L35.09 190.082C34.843 190.249 34.6273 190.458 34.4525 190.699C34.0846 191.276 34.2353 192.028 34.4184 192.687C34.9035 194.432 35.528 196.135 36.2859 197.78C36.4106 198.141 36.648 198.452 36.9631 198.667C37.5585 198.987 38.2866 198.563 38.7412 198.063C39.1958 197.563 39.589 196.941 40.2299 196.727C40.87 196.513 41.5745 196.772 42.243 196.678C43.3241 196.527 44.042 195.531 44.8213 194.767C48.0054 191.646 53.3215 191.872 56.8242 189.112C57.3305 188.66 57.8666 188.241 58.4287 187.86C59.0209 187.51 59.6924 187.318 60.3067 187.009C62.1754 186.069 63.3501 184.125 63.9794 182.131C64.6087 180.138 64.7881 178.033 65.2404 175.992C65.4741 174.937 65.7819 173.893 65.8859 172.817C65.9527 171.816 65.9309 170.812 65.8207 169.815L64.5568 154.192C64.4539 152.92 64.3508 151.647 64.1511 150.387C60.3975 150.521 56.6466 150.672 52.891 150.716C49.9025 150.751 46.8591 150.96 44.0235 150.016Z" fill="#2F2E41"/>
<path d="M42.6432 153.671C43.1524 154.489 44.3917 154.472 45.2451 154.024C46.0985 153.575 46.7615 152.821 47.6169 152.377C48.7664 151.779 50.1266 151.801 51.4219 151.838C53.4725 151.896 55.5483 151.957 57.5213 152.519C59.562 153.1 61.5486 154.218 63.6587 153.995C64.0259 153.956 64.4274 153.851 64.6272 153.541C64.7443 153.316 64.7994 153.064 64.7868 152.811L64.8558 150.969C64.898 150.65 64.8471 150.326 64.709 150.036C64.5319 149.795 64.2892 149.609 64.0096 149.501C61.0063 148.048 57.5811 147.778 54.2463 147.664C52.5511 147.606 50.8553 147.582 49.1587 147.592C47.719 147.601 45.9906 147.393 44.5909 147.777C42.7123 148.293 41.6902 152.139 42.6432 153.671Z" fill="#2F2E41"/>
<path d="M61.502 105.426C57.5667 105.392 54.0006 102.796 50.0657 102.733C49.5903 102.7 49.114 102.782 48.6771 102.972C48.1288 103.248 47.7683 103.782 47.3518 104.233C46.1883 105.492 44.5035 106.164 43.3082 107.393C42.1874 108.545 41.5641 110.262 42.0066 111.806C42.4491 113.351 44.1191 114.536 45.6835 114.165C46.3138 112.126 47.6147 110.36 49.3753 109.152C50.2914 108.565 51.2568 108.059 52.2607 107.639C54.0293 106.838 56.0069 106.022 57.8532 106.622C58.5341 106.879 59.1762 107.229 59.7611 107.662L62.8393 109.728C62.4806 108.315 62.1581 106.729 61.502 105.426Z" fill="#6C66DD"/>
<path d="M45.2303 112.798C44.7077 113.449 45.4605 114.393 45.3453 115.22C45.2687 115.769 44.8163 116.189 44.6279 116.711C44.4327 117.251 44.5362 117.85 44.4622 118.42C44.3879 118.834 44.278 119.241 44.1338 119.637C43.8023 120.818 43.5709 122.025 43.4421 123.246L42.7533 128.385C42.6338 129.159 42.561 129.939 42.5354 130.721C42.5702 131.306 42.531 131.893 42.419 132.468C42.2665 133.029 41.9288 133.521 41.7016 134.057C41.4744 134.592 41.3691 135.241 41.676 135.735C40.6482 136.591 40.3426 138.271 41.0612 139.398C41.198 139.574 41.3051 139.771 41.378 139.981C41.4177 140.275 41.3692 140.574 41.2385 140.841L40.542 142.695C40.3637 143.17 40.3074 143.892 40.803 144.001C40.3925 144.427 40.0726 144.931 39.8628 145.484C39.761 145.762 39.7306 146.061 39.7743 146.353C39.8181 146.646 39.9346 146.923 40.1132 147.158C40.2862 147.31 40.4336 147.489 40.5495 147.687C40.6176 147.964 40.6 148.255 40.4991 148.522C40.3949 148.927 40.3748 149.349 40.4401 149.762C40.5053 150.175 40.6545 150.57 40.8784 150.924C41.1104 151.272 41.4389 151.545 41.8239 151.71C42.2089 151.875 42.6336 151.924 43.0462 151.852C44.4394 151.538 45.6913 151.042 47.0961 151.3C50.1207 151.855 53.1551 152.411 56.0846 153.346C59.428 154.413 62.6654 155.977 66.1597 156.305C66.3896 156.352 66.6287 156.315 66.8335 156.201C67.0115 156.032 67.1222 155.804 67.145 155.56C67.505 153.874 67.865 152.187 68.225 150.5C68.6602 148.631 68.9917 146.739 69.2178 144.833C69.3407 143.602 69.3758 142.365 69.4107 141.129L69.689 131.292C69.8194 129.842 69.626 128.382 69.1225 127.016L67.5215 121.908C66.6078 118.994 64.5119 116.409 63.7656 113.448C63.2933 111.573 62.9444 109.562 61.6778 108.101C59.8721 106.018 56.7479 105.694 54.0135 106.052C52.7782 106.214 51.5323 106.493 50.4637 107.133C49.2282 107.873 48.3179 109.039 47.4373 110.179C46.7116 111.117 45.9729 111.872 45.2303 112.798Z" fill="#6C66DD"/>
<path d="M51.6152 141.732C51.8405 142.703 52.3136 143.598 52.6032 144.552C53.0885 146.149 53.0473 147.87 53.5316 149.468C53.7348 150.138 54.0293 150.782 54.1752 151.468C54.5154 153.066 54.0187 154.719 53.4018 156.232C52.7849 157.745 52.0336 159.237 51.8333 160.858C51.6923 162 51.8949 163.29 52.7758 164.031C53.6904 164.801 55.0195 164.748 56.2107 164.646C56.6383 164.634 57.0604 164.546 57.4573 164.387C58.3683 163.956 58.7519 162.879 58.9649 161.895C59.6785 158.596 59.4746 155.177 59.2672 151.809L58.7249 143C58.6205 141.304 58.5086 139.573 57.9857 137.945C57.7954 137.353 57.4638 136.156 56.9224 135.777C56.3861 135.403 54.8546 135.386 54.1906 135.355C51.0754 135.209 51.1103 139.554 51.6152 141.732Z" fill="#FBBEBE"/>
<path d="M55.0671 109.208C54.4309 108.875 53.6293 109.019 53.0143 109.39C52.4205 109.796 51.9005 110.3 51.4765 110.882C50.1017 112.558 48.6464 114.483 48.8503 116.641C48.9267 117.45 49.2368 118.216 49.447 119.001C50.3687 122.443 49.3495 126.085 49.4664 129.646C49.534 131.705 49.9822 133.729 50.4285 135.739C50.5196 136.15 50.6655 136.625 51.0627 136.763C51.3611 136.867 51.6834 136.733 51.9787 136.621C53.0789 136.215 54.2608 136.079 55.4245 136.226C56.5882 136.372 57.6994 136.797 58.6643 137.463C59.4021 137.07 59.1256 135.826 58.9602 135.007C58.4688 132.573 59.1359 130.063 59.9461 127.716C60.7562 125.369 61.7256 123.025 61.8598 120.546C62.0119 117.737 61.0799 114.996 60.1603 112.337C59.9596 111.757 59.7402 111.148 59.2748 110.747C58.8764 110.451 58.4198 110.243 57.9351 110.136C56.9583 109.847 55.9694 109.681 55.0671 109.208Z" fill="#2F2E41"/>
</svg>
