<svg width="290" height="219" viewBox="0 0 290 219" fill="none" xmlns="http://www.w3.org/2000/svg">
<path d="M31.048 182.165C31.048 194.448 24.0977 198.737 15.524 198.737C6.95033 198.737 0 194.448 0 182.165C0 169.882 15.524 154.255 15.524 154.255C15.524 154.255 31.048 169.882 31.048 182.165Z" fill="#EEEEFF"/>
<path d="M14.9582 196.858L15.1171 186.578L21.7339 173.86L15.1421 184.965L15.2136 180.343L19.7738 171.142L15.2325 179.12V179.12L15.3611 170.806L20.2442 163.481L15.3812 169.499L15.4614 154.256L14.9567 174.435L14.9982 173.603L10.0336 165.619L14.9186 175.201L14.4559 184.486L14.4424 184.239L8.71875 175.837L14.425 185.11L14.367 186.271L14.3568 186.288L14.3616 186.383L13.1879 209.939H14.756L14.9441 197.772L20.6362 188.522L14.9582 196.858Z" fill="#3F3D56"/>
<path d="M153.447 24.3411C194.205 58.4615 200.918 120.835 168.441 163.655C135.965 206.475 37.0523 234.145 35.8387 179.408C34.6174 124.32 7.63619 72.6958 20.8448 40.0938C41.2555 -10.2844 112.69 -9.7794 153.447 24.3411Z" fill="#EEEEFF"/>
<path d="M45.1675 218.044C69.0586 218.044 88.4262 214.653 88.4262 210.47C88.4262 206.286 69.0586 202.895 45.1675 202.895C21.2763 202.895 1.90869 206.286 1.90869 210.47C1.90869 214.653 21.2763 218.044 45.1675 218.044Z" fill="#3F3D56"/>
<path d="M266.391 211.66C278.156 211.66 287.694 209.99 287.694 207.93C287.694 205.87 278.156 204.2 266.391 204.2C254.625 204.2 245.087 205.87 245.087 207.93C245.087 209.99 254.625 211.66 266.391 211.66Z" fill="#3F3D56"/>
<path d="M290 50.7697H43.0645V190.902H290V50.7697Z" fill="#3F3D56"/>
<path d="M290 39.4077H43.0645V52.3478H290V39.4077Z" fill="#3F3D56"/>
<path d="M49.0721 47.298C50.2335 47.298 51.175 46.3088 51.175 45.0887C51.175 43.8685 50.2335 42.8794 49.0721 42.8794C47.9107 42.8794 46.9692 43.8685 46.9692 45.0887C46.9692 46.3088 47.9107 47.298 49.0721 47.298Z" fill="#6C66DD"/>
<path d="M55.0804 47.298C56.2418 47.298 57.1832 46.3088 57.1832 45.0887C57.1832 43.8685 56.2418 42.8794 55.0804 42.8794C53.919 42.8794 52.9775 43.8685 52.9775 45.0887C52.9775 46.3088 53.919 47.298 55.0804 47.298Z" fill="#6C66DD"/>
<path d="M61.0887 47.298C62.2501 47.298 63.1915 46.3088 63.1915 45.0887C63.1915 43.8685 62.2501 42.8794 61.0887 42.8794C59.9273 42.8794 58.9858 43.8685 58.9858 45.0887C58.9858 46.3088 59.9273 47.298 61.0887 47.298Z" fill="#6C66DD"/>
<path opacity="0.1" d="M290 50.7697H43.0645V52.3477H290V50.7697Z" fill="black"/>
<path opacity="0.3" d="M106 73.0204H57.3335V127.621H106V73.0204Z" fill="#6C66DD"/>
<path d="M109.304 69.233H60.6382V123.834H109.304V69.233Z" fill="#6C66DD"/>
<path opacity="0.3" d="M273.19 72.1448H235.776V114.121H273.19V72.1448Z" fill="#6C66DD"/>
<path d="M275.731 69.233H238.317V111.21H275.731V69.233Z" fill="#6C66DD"/>
<path opacity="0.3" d="M273.19 130.462H235.776V172.438H273.19V130.462Z" fill="#6C66DD"/>
<path d="M275.731 127.55H238.317V169.527H275.731V127.55Z" fill="#6C66DD"/>
<path d="M219.254 69.233H126.428V73.0204H219.254V69.233Z" fill="#6C66DD"/>
<path d="M219.254 80.2794H126.428V84.0668H219.254V80.2794Z" fill="#6C66DD"/>
<path d="M219.254 91.3258H126.428V95.1131H219.254V91.3258Z" fill="#6C66DD"/>
<path d="M219.254 102.372H126.428V106.16H219.254V102.372Z" fill="#6C66DD"/>
<path d="M219.254 113.419H126.428V117.206H219.254V113.419Z" fill="#6C66DD"/>
<path d="M219.254 124.465H126.428V128.252H219.254V124.465Z" fill="#6C66DD"/>
<path d="M219.254 135.512H126.428V139.299H219.254V135.512Z" fill="#6C66DD"/>
<path d="M219.254 146.558H126.428V150.345H219.254V146.558Z" fill="#6C66DD"/>
<path d="M219.254 157.604H126.428V161.392H219.254V157.604Z" fill="#6C66DD"/>
<path d="M219.254 168.651H126.428V172.438H219.254V168.651Z" fill="#6C66DD"/>
<path d="M37.9534 99.0202C41.5205 99.0202 44.4122 95.9822 44.4122 92.2345C44.4122 88.4869 41.5205 85.4489 37.9534 85.4489C34.3863 85.4489 31.4946 88.4869 31.4946 92.2345C31.4946 95.9822 34.3863 99.0202 37.9534 99.0202Z" fill="#A0616A"/>
<path d="M33.7741 95.4277C33.7741 95.4277 33.7741 102.613 32.6343 103.411C31.4945 104.209 41.7526 105.008 41.7526 105.008V95.8269L33.7741 95.4277Z" fill="#A0616A"/>
<path d="M21.2363 135.344C21.2363 135.344 28.455 144.125 29.9747 144.125C31.4944 144.125 33.0141 138.138 33.0141 138.138L25.7955 132.55L21.2363 135.344Z" fill="#A0616A"/>
<path d="M57.3296 95.827L58.4694 87.4447C58.4694 87.4447 59.2292 75.8691 61.5088 78.6632C63.7884 81.4573 62.2687 87.8438 62.2687 87.8438C62.2687 87.8438 63.4085 97.0245 62.2687 98.2219C61.1289 99.4194 57.3296 95.827 57.3296 95.827Z" fill="#A0616A"/>
<path d="M50.8712 140.932L30.355 138.936C30.355 138.936 27.6955 152.108 28.4554 157.297C29.2153 162.486 29.5952 177.255 29.5952 177.255C29.5952 177.255 30.355 203.999 31.4948 205.595C32.6346 207.192 36.4339 206.793 37.5737 207.591C38.7135 208.39 40.6131 205.995 40.6131 205.595C40.6131 205.196 38.3336 205.196 39.4733 202.801C40.6131 200.406 36.4339 193.621 37.5737 190.427C38.7135 187.234 40.6131 182.843 39.4733 181.247C38.3336 179.65 40.2332 159.293 40.2332 159.293C40.2332 159.293 49.7314 173.663 49.7314 180.049C49.7314 186.436 48.9716 201.205 48.5916 202.801C48.2117 204.398 47.8318 204.797 48.5916 205.995C49.3515 207.192 50.1114 208.39 49.7314 208.789C49.3515 209.188 56.5702 208.789 56.5702 206.394C56.5702 203.999 56.1902 203.999 56.9501 202.003C57.71 200.007 58.0899 176.058 58.0899 176.058L50.8712 140.932Z" fill="#2F2E41"/>
<path d="M32.6345 100.617L31.4947 103.012C31.4947 103.012 19.337 107.003 18.957 115.386L29.2151 133.348C29.2151 133.348 29.975 134.545 29.5951 135.344C29.2151 136.142 28.8352 135.743 29.2151 136.94C29.5951 138.138 29.5951 137.739 29.5951 138.537C29.5951 139.335 28.4553 138.936 29.5951 139.335C30.7348 139.734 29.2151 139.335 33.3944 140.533C37.5736 141.73 50.1112 141.331 50.1112 141.331L47.8317 118.18L50.1112 113.39L47.0718 103.81C47.0718 103.81 45.1722 103.411 44.0324 104.209C42.8926 105.008 41.3729 103.411 41.3729 103.411C41.3729 103.411 39.4732 100.617 32.6345 100.617Z" fill="#575A89"/>
<path d="M45.1719 104.209L47.0715 103.81C47.0715 103.81 54.6701 101.415 55.05 99.4195C55.43 97.4237 57.3296 95.0287 57.3296 95.0287C57.3296 95.0287 63.4085 93.4321 63.0286 98.6211C62.6486 103.81 61.1289 105.407 60.3691 106.205C59.6092 107.003 51.2508 113.39 49.731 113.39C48.2113 113.39 45.1719 104.209 45.1719 104.209Z" fill="#575A89"/>
<path d="M19.7169 113.789L18.957 115.386L18.5771 129.755C18.5771 129.755 16.2975 131.352 17.4373 132.15C18.5771 132.949 21.2366 136.541 21.9965 136.541C22.7563 136.541 26.9355 134.545 26.9355 133.747C26.9355 132.949 26.1757 125.764 26.1757 125.764L19.7169 113.789Z" fill="#575A89"/>
<path d="M33.774 205.596C33.774 205.596 33.774 209.587 33.3941 210.385C33.0142 211.184 32.2543 215.175 34.5339 215.175C35.8398 215.195 37.1349 214.923 38.3332 214.377C38.3332 214.377 38.3332 211.982 39.473 211.583C40.6128 211.184 43.2722 207.991 42.1325 207.192C40.9927 206.394 38.7131 205.596 38.7131 205.596L33.774 205.596Z" fill="#2F2E41"/>
<path d="M50.1108 207.591C50.1108 207.591 47.8312 213.18 50.1108 213.579C52.3904 213.978 55.4298 213.579 55.8097 212.78C56.1897 211.982 56.9495 211.184 57.7094 211.583C58.4692 211.982 64.928 207.192 62.6485 206.394C61.2924 205.917 59.8253 205.917 58.4693 206.394L56.1897 205.196L50.1108 207.591Z" fill="#2F2E41"/>
<path d="M38.7697 99.7138C38.8776 99.7068 38.9829 99.6762 39.0789 99.6241C39.2336 99.4932 39.3363 99.3065 39.367 99.1003L40.143 96.2122C40.4374 95.1163 40.9103 93.8363 41.9714 93.6046C42.1939 93.5889 42.4113 93.5281 42.6117 93.4255C42.728 93.3105 42.8193 93.1705 42.8793 93.015C42.9394 92.8595 42.9667 92.6922 42.9595 92.5246L43.2919 88.7916C43.3818 87.7824 43.4671 86.7329 43.132 85.7824C42.6377 84.3802 41.2824 83.457 39.8819 83.1916C38.4813 82.9262 37.0384 83.2231 35.6751 83.6522C33.607 84.3031 31.4654 85.4236 30.567 87.486C30.0468 88.68 30.0148 90.0415 30.0843 91.3526C30.1559 92.7026 30.3347 94.0787 30.9252 95.2801C31.2536 95.9011 31.6347 96.4897 32.064 97.0385C32.7054 97.9106 33.492 99.6157 34.5535 99.9411C35.7501 100.308 37.5572 99.8793 38.7697 99.7138Z" fill="#2F2E41"/>
<path d="M249.37 184.454C249.37 196.456 256.537 206.168 265.394 206.168Z" fill="#2F2E41"/>
<path d="M265.395 206.168C265.395 194.031 273.392 184.21 283.276 184.21Z" fill="#6C66DD"/>
<path d="M255.177 185.542C255.177 196.943 259.747 206.168 265.395 206.168Z" fill="#6C66DD"/>
<path d="M265.395 206.168C265.395 190.66 274.639 178.11 286.063 178.11Z" fill="#2F2E41"/>
<path d="M262.023 206.321C262.023 206.321 264.296 206.248 264.981 205.735C265.666 205.223 268.476 204.611 268.646 205.433C268.816 206.255 272.061 209.52 269.496 209.542C266.93 209.563 263.534 209.122 262.851 208.684C262.167 208.247 262.023 206.321 262.023 206.321Z" fill="#A8A8A8"/>
<path opacity="0.2" d="M269.542 209.256C266.976 209.277 263.58 208.836 262.897 208.398C262.376 208.065 262.169 206.87 262.099 206.318C262.051 206.32 262.023 206.321 262.023 206.321C262.023 206.321 262.167 208.247 262.851 208.684C263.534 209.122 266.93 209.563 269.496 209.542C270.236 209.535 270.492 209.258 270.478 208.848C270.375 209.096 270.093 209.251 269.542 209.256Z" fill="black"/>
</svg>
