<svg width="80" height="26" viewBox="0 0 80 26" fill="none" xmlns="http://www.w3.org/2000/svg">
<path d="M2.07196 26C1.64529 26 1.32529 25.8507 1.11196 25.552C0.94129 25.2107 0.855957 24.912 0.855957 24.656V1.42399C0.855957 1.12532 0.94129 0.826653 1.11196 0.527987C1.32529 0.22932 1.64529 0.0799866 2.07196 0.0799866H2.51996C3.37329 0.0799866 3.79996 0.527987 3.79996 1.42399V24.656C3.79996 25.552 3.37329 26 2.51996 26H2.07196Z" fill="#6C66DD"/>
<path d="M18.922 26C18.3673 26 18.0046 25.808 17.834 25.424C16.9806 25.808 16.106 26 15.21 26H12.906C11.2846 26 10.0046 25.5093 9.06596 24.528C8.16996 23.504 7.72196 22.16 7.72196 20.496V12.688C7.72196 11.024 8.16996 9.70132 9.06596 8.71999C10.0046 7.69599 11.2846 7.18399 12.906 7.18399H19.306C19.7326 7.18399 20.0526 7.31199 20.266 7.56799C20.4793 7.82399 20.586 8.12265 20.586 8.46399V24.656C20.586 25.04 20.4793 25.36 20.266 25.616C20.0526 25.872 19.7326 26 19.306 26H18.922ZM17.77 12.112C17.77 11.728 17.7486 11.5147 17.706 11.472V11.088C17.7486 10.9173 17.706 10.7253 17.578 10.512C17.4926 10.2987 17.194 10.1707 16.682 10.128C16.6393 10.0853 16.5326 10.064 16.362 10.064C16.234 10.064 16.1486 10.0853 16.106 10.128C15.9353 10.128 15.6153 10.1493 15.146 10.192C14.7193 10.192 13.9726 10.1707 12.906 10.128C11.37 10.128 10.602 10.9813 10.602 12.688V20.432C10.602 22.1813 11.37 23.056 12.906 23.056H15.146C16.8526 23.056 17.706 22.2453 17.706 20.624C17.706 17.8933 17.706 15.9093 17.706 14.672C17.7486 13.4347 17.77 12.5813 17.77 12.112Z" fill="#6C66DD"/>
<path d="M24.8665 5.58399C24.7385 5.58399 24.6105 5.43465 24.4825 5.13599C24.3971 4.83732 24.3545 4.53865 24.3545 4.23999V1.48799C24.3545 1.14665 24.3971 0.847987 24.4825 0.591988C24.6105 0.293321 24.7385 0.143988 24.8665 0.143988H26.6585C26.8291 0.143988 26.9571 0.293321 27.0425 0.591988C27.1705 0.847987 27.2345 1.14665 27.2345 1.48799V4.23999C27.2345 4.53865 27.1705 4.83732 27.0425 5.13599C26.9571 5.43465 26.8291 5.58399 26.6585 5.58399H24.8665ZM24.8665 26C24.7385 26 24.6105 25.8507 24.4825 25.552C24.3971 25.2533 24.3545 24.9547 24.3545 24.656V7.95199C24.3545 7.61065 24.3971 7.31199 24.4825 7.05599C24.6105 6.75732 24.7385 6.60799 24.8665 6.60799H26.6585C26.8291 6.60799 26.9571 6.75732 27.0425 7.05599C27.1705 7.31199 27.2345 7.61065 27.2345 7.95199V24.656C27.2345 24.9547 27.1705 25.2533 27.0425 25.552C26.9571 25.8507 26.8291 26 26.6585 26H24.8665Z" fill="#6C66DD"/>
<path d="M32.447 26C32.0203 26 31.7003 25.8507 31.487 25.552C31.3163 25.2107 31.231 24.912 31.231 24.656V1.42399C31.231 1.12532 31.3163 0.826653 31.487 0.527987C31.7003 0.22932 32.0203 0.0799866 32.447 0.0799866H32.895C33.7483 0.0799866 34.175 0.527987 34.175 1.42399V24.656C34.175 25.552 33.7483 26 32.895 26H32.447Z" fill="#6C66DD"/>
<path d="M45.137 26C43.601 26 42.3423 25.5093 41.361 24.528C40.3796 23.504 39.889 22.16 39.889 20.496V9.87199H38.673C38.3743 9.87199 38.097 9.76532 37.841 9.55199C37.585 9.33865 37.457 9.01865 37.457 8.59199V8.14399C37.457 7.80265 37.5636 7.50399 37.777 7.24799C37.9903 6.99199 38.289 6.86399 38.673 6.86399H39.889V5.00799C39.889 4.70932 39.9956 4.41065 40.209 4.11199C40.4223 3.77065 40.7423 3.59999 41.169 3.59999H41.617C42.0863 3.59999 42.385 3.79199 42.513 4.17599C42.6836 4.51732 42.769 4.79465 42.769 5.00799V6.86399H45.905C46.3316 6.86399 46.6303 6.99199 46.801 7.24799C47.0143 7.50399 47.121 7.80265 47.121 8.14399V8.59199C47.121 9.01865 46.993 9.33865 46.737 9.55199C46.481 9.76532 46.2036 9.87199 45.905 9.87199H42.769V20.496C42.769 22.16 43.5583 22.992 45.137 22.992H46.225C46.609 22.992 46.9076 23.12 47.121 23.376C47.3343 23.632 47.441 23.9307 47.441 24.272V24.72C47.441 25.1467 47.313 25.4667 47.057 25.68C46.801 25.8933 46.5236 26 46.225 26H45.137Z" fill="#6C66DD"/>
<path d="M55.0935 26C53.4721 26 52.1921 25.5093 51.2535 24.528C50.3575 23.504 49.9095 22.16 49.9095 20.496V12.688C49.9095 11.024 50.3575 9.70132 51.2535 8.71999C52.1921 7.69599 53.4721 7.18399 55.0935 7.18399H57.7815C59.3601 7.18399 60.6188 7.69599 61.5575 8.71999C62.4961 9.70132 62.9655 11.024 62.9655 12.688V20.496C62.9655 22.16 62.4961 23.504 61.5575 24.528C60.6188 25.5093 59.3601 26 57.7815 26H55.0935ZM60.0215 12.688C60.0215 10.9813 59.2748 10.128 57.7815 10.128H55.0935C53.5575 10.128 52.7895 10.9813 52.7895 12.688V20.432C52.7895 22.1813 53.5575 23.056 55.0935 23.056H57.7815C59.2748 23.056 60.0215 22.1813 60.0215 20.432V12.688Z" fill="#6C66DD"/>
<path d="M77.867 26C77.483 26 77.1843 25.872 76.971 25.616C76.7576 25.36 76.651 25.04 76.651 24.656V12.688C76.651 10.9813 75.9043 10.128 74.411 10.128H72.107C70.443 10.128 69.611 10.9387 69.611 12.56V24.656C69.611 25.04 69.5043 25.36 69.291 25.616C69.0776 25.872 68.779 26 68.395 26H67.947C67.5203 26 67.2003 25.8507 66.987 25.552C66.8163 25.2533 66.731 24.9547 66.731 24.656V8.46399C66.731 8.20799 66.8163 7.93066 66.987 7.63199C67.2003 7.33332 67.5203 7.18399 67.947 7.18399H68.395C68.907 7.18399 69.2696 7.37599 69.483 7.75999C70.123 7.37599 70.9976 7.18399 72.107 7.18399H74.411C75.9896 7.18399 77.2483 7.69599 78.187 8.71999C79.1256 9.70132 79.595 11.024 79.595 12.688V24.656C79.595 25.04 79.4883 25.36 79.275 25.616C79.0616 25.872 78.7416 26 78.315 26H77.867Z" fill="#6C66DD"/>
</svg>
