<svg width="90" height="27" viewBox="0 0 90 27" fill="none" xmlns="http://www.w3.org/2000/svg">
<path d="M2.921 27H1.256C0.910667 27 0.738 26.8273 0.738 26.482V1.507C0.738 1.16167 0.910667 0.989 1.256 0.989H2.921C3.26633 0.989 3.439 1.16167 3.439 1.507V26.482C3.439 26.8273 3.26633 27 2.921 27ZM15.749 27H13.825C12.123 27 10.7787 26.519 9.79202 25.557C8.83002 24.595 8.34902 23.2507 8.34902 21.524V13.606C8.34902 11.8793 8.83002 10.535 9.79202 9.573C10.7787 8.611 12.123 8.13 13.825 8.13H21.854C22.1993 8.13 22.372 8.30267 22.372 8.648V26.482C22.372 26.8273 22.1993 27 21.854 27H20.189C19.8437 27 19.671 26.8273 19.671 26.482V25.039H19.523C18.9063 26.3463 17.6483 27 15.749 27ZM19.671 21.228V10.831C19.671 10.609 19.5477 10.498 19.301 10.498H14.121C12.0737 10.498 11.05 11.571 11.05 13.717V21.413C11.05 23.559 12.0737 24.632 14.121 24.632H16.23C17.34 24.632 18.191 24.336 18.783 23.744C19.375 23.152 19.671 22.3133 19.671 21.228ZM27.6569 5.022V1.544C27.6569 1.19867 27.8173 1.026 28.1379 1.026H29.8399C30.1853 1.026 30.3579 1.19867 30.3579 1.544V5.022C30.3579 5.36733 30.1853 5.54 29.8399 5.54H28.1379C27.8173 5.54 27.6569 5.36733 27.6569 5.022ZM27.6569 26.482V8.648C27.6569 8.30267 27.8173 8.13 28.1379 8.13H29.8399C30.1853 8.13 30.3579 8.30267 30.3579 8.648V26.482C30.3579 26.8273 30.1853 27 29.8399 27H28.1749C27.8296 27 27.6569 26.8273 27.6569 26.482ZM38.006 27H36.341C35.9956 27 35.823 26.8273 35.823 26.482V1.507C35.823 1.16167 35.9956 0.989 36.341 0.989H38.006C38.3513 0.989 38.524 1.16167 38.524 1.507V26.482C38.524 26.8273 38.3513 27 38.006 27ZM44.507 10.498H42.472C42.1266 10.498 41.954 10.3377 41.954 10.017V8.648C41.954 8.30267 42.1266 8.13 42.472 8.13H44.507C44.7536 8.13 44.877 8.019 44.877 7.797V4.615C44.877 4.26967 45.0496 4.097 45.395 4.097H47.06C47.3806 4.097 47.541 4.26967 47.541 4.615V7.797C47.541 8.019 47.6766 8.13 47.948 8.13H51.87C52.24 8.13 52.425 8.30267 52.425 8.648V10.017C52.425 10.3377 52.24 10.498 51.87 10.498H47.948C47.6766 10.498 47.541 10.609 47.541 10.831V21.487C47.541 23.5837 48.6263 24.632 50.797 24.632H52.24C52.61 24.632 52.795 24.8047 52.795 25.15V26.519C52.795 26.8397 52.61 27 52.24 27H50.464C48.762 27 47.4053 26.5313 46.394 25.594C45.3826 24.632 44.877 23.3 44.877 21.598V10.831C44.877 10.609 44.7536 10.498 44.507 10.498ZM64.9914 27H61.8094C60.1074 27 58.7631 26.519 57.7764 25.557C56.8144 24.595 56.3334 23.2507 56.3334 21.524V13.606C56.3334 11.8793 56.8144 10.535 57.7764 9.573C58.7631 8.611 60.1074 8.13 61.8094 8.13H64.9914C66.6934 8.13 68.0254 8.611 68.9874 9.573C69.9741 10.535 70.4674 11.8793 70.4674 13.606V21.524C70.4674 23.2507 69.9741 24.595 68.9874 25.557C68.0254 26.519 66.6934 27 64.9914 27ZM62.1054 24.632H64.6954C66.7674 24.632 67.8034 23.5713 67.8034 21.45V13.68C67.8034 11.5587 66.7674 10.498 64.6954 10.498H62.1054C60.0334 10.498 58.9974 11.5587 58.9974 13.68V21.45C58.9974 23.5713 60.0334 24.632 62.1054 24.632ZM77.3864 27H75.7214C75.3761 27 75.2034 26.8273 75.2034 26.482V8.648C75.2034 8.30267 75.3761 8.13 75.7214 8.13H77.3864C77.7317 8.13 77.9044 8.30267 77.9044 8.648V10.091H78.0524C78.6691 8.78367 79.9271 8.13 81.8264 8.13H83.8984C85.5757 8.13 86.8831 8.611 87.8204 9.573C88.7577 10.535 89.2264 11.8793 89.2264 13.606V26.482C89.2264 26.8273 89.0537 27 88.7084 27H87.0434C86.6981 27 86.5254 26.8273 86.5254 26.482V13.717C86.5254 11.571 85.4894 10.498 83.4174 10.498H81.3454C80.2354 10.498 79.3844 10.794 78.7924 11.386C78.2004 11.978 77.9044 12.8167 77.9044 13.902V26.482C77.9044 26.8273 77.7317 27 77.3864 27Z" fill="#6C66DD"/>
</svg>
