<svg width="290" height="172" viewBox="0 0 290 172" fill="none" xmlns="http://www.w3.org/2000/svg">
<path d="M151.521 162.381C177.127 162.381 197.884 161.041 197.884 159.388C197.884 157.735 177.127 156.395 151.521 156.395C125.916 156.395 105.158 157.735 105.158 159.388C105.158 161.041 125.916 162.381 151.521 162.381Z" fill="#F2F2F2"/>
<path d="M73.1329 171.859C85.0934 171.859 94.7893 171.233 94.7893 170.461C94.7893 169.689 85.0934 169.063 73.1329 169.063C61.1724 169.063 51.4766 169.689 51.4766 170.461C51.4766 171.233 61.1724 171.859 73.1329 171.859Z" fill="#F2F2F2"/>
<path d="M243.637 155.497C269.243 155.497 290 154.158 290 152.505C290 150.852 269.243 149.512 243.637 149.512C218.032 149.512 197.274 150.852 197.274 152.505C197.274 154.158 218.032 155.497 243.637 155.497Z" fill="#F2F2F2"/>
<path d="M2.06055 147.716H278.616" stroke="#2F2E41" stroke-width="2" stroke-miterlimit="10"/>
<path d="M278.561 0.0280762H55.897V147.567H278.561V0.0280762Z" fill="#3F3D56"/>
<path d="M55.897 10.8194H278.561" stroke="#2F2E41" stroke-width="2" stroke-miterlimit="10"/>
<path d="M62.7613 8.10834C64.2774 8.10834 65.5065 6.90246 65.5065 5.41493C65.5065 3.92741 64.2774 2.72153 62.7613 2.72153C61.2452 2.72153 60.0161 3.92741 60.0161 5.41493C60.0161 6.90246 61.2452 8.10834 62.7613 8.10834Z" fill="#6C66DD"/>
<path d="M70.9971 8.25796C72.5132 8.25796 73.7423 7.05208 73.7423 5.56456C73.7423 4.07703 72.5132 2.87115 70.9971 2.87115C69.481 2.87115 68.252 4.07703 68.252 5.56456C68.252 7.05208 69.481 8.25796 70.9971 8.25796Z" fill="#6C66DD"/>
<path d="M79.2315 8.40756C80.7476 8.40756 81.9767 7.20168 81.9767 5.71416C81.9767 4.22663 80.7476 3.02075 79.2315 3.02075C77.7154 3.02075 76.4863 4.22663 76.4863 5.71416C76.4863 7.20168 77.7154 8.40756 79.2315 8.40756Z" fill="#6C66DD"/>
<path opacity="0.3" d="M257.669 20.8271H69.7769V56.7392H257.669V20.8271Z" fill="#6C66DD"/>
<path opacity="0.3" d="M69.7769 56.7392L257.669 20.8271" stroke="#6C66DD" stroke-width="2" stroke-miterlimit="10"/>
<path opacity="0.3" d="M257.669 56.7392L69.7769 20.8271" stroke="#6C66DD" stroke-width="2" stroke-miterlimit="10"/>
<path opacity="0.3" d="M114.615 79.4835H69.7769V137.242H114.615V79.4835Z" fill="#6C66DD"/>
<path opacity="0.3" d="M257.666 79.4835H212.829V137.242H257.666V79.4835Z" fill="#6C66DD"/>
<path opacity="0.3" d="M186.143 79.4835H141.305V137.242H186.143V79.4835Z" fill="#6C66DD"/>
<path opacity="0.3" d="M69.7769 79.4835L114.615 137.242" stroke="#6C66DD" stroke-width="2" stroke-miterlimit="10"/>
<path opacity="0.3" d="M114.615 79.4835L69.7769 137.242" stroke="#6C66DD" stroke-width="2" stroke-miterlimit="10"/>
<path opacity="0.3" d="M141.454 79.4835L186.291 137.242" stroke="#6C66DD" stroke-width="2" stroke-miterlimit="10"/>
<path opacity="0.3" d="M186.291 79.4835L141.454 137.242" stroke="#6C66DD" stroke-width="2" stroke-miterlimit="10"/>
<path opacity="0.3" d="M212.829 79.4835L257.666 137.242" stroke="#6C66DD" stroke-width="2" stroke-miterlimit="10"/>
<path opacity="0.3" d="M257.666 79.4835L212.829 137.242" stroke="#6C66DD" stroke-width="2" stroke-miterlimit="10"/>
<path d="M282.679 20.8271H94.7876V56.7392H282.679V20.8271Z" fill="#6C66DD"/>
<path d="M266.207 93.2498H221.37V151.008H266.207V93.2498Z" fill="#6C66DD"/>
<path d="M259.652 100.881H227.93V104.472H259.652V100.881Z" fill="#3F3D56"/>
<path d="M259.652 108.662H227.93V112.253H259.652V108.662Z" fill="#3F3D56"/>
<path d="M259.652 116.443H227.93V120.034H259.652V116.443Z" fill="#3F3D56"/>
<path d="M259.652 124.224H227.93V127.815H259.652V124.224Z" fill="#3F3D56"/>
<path d="M259.652 132.005H227.93V135.596H259.652V132.005Z" fill="#3F3D56"/>
<path d="M259.652 139.786H227.93V143.377H259.652V139.786Z" fill="#3F3D56"/>
<path d="M125.595 87.2646H80.7573V145.023H125.595V87.2646Z" fill="#6C66DD"/>
<path d="M119.035 106.567H87.3135V110.158H119.035V106.567Z" fill="#3F3D56"/>
<path d="M119.035 114.348H87.3135V117.939H119.035V114.348Z" fill="#3F3D56"/>
<path d="M119.035 122.129H87.3135V125.72H119.035V122.129Z" fill="#3F3D56"/>
<path d="M197.832 41.8863C197.832 48.6104 193.758 50.9582 188.732 50.9582C188.615 50.9582 188.499 50.9569 188.383 50.9544C188.15 50.9495 187.919 50.9386 187.692 50.9234C183.156 50.6084 179.632 48.1399 179.632 41.8863C179.632 35.4146 188.061 27.2484 188.694 26.6441L188.695 26.643C188.72 26.6196 188.732 26.6082 188.732 26.6082C188.732 26.6082 197.832 35.1622 197.832 41.8863Z" fill="#3F3D56"/>
<path d="M188.4 49.9295L191.728 45.3666L188.391 50.4305L188.383 50.9544C188.15 50.9495 187.919 50.9386 187.691 50.9234L188.05 44.196L188.047 44.1438L188.053 44.134L188.087 43.4986L184.742 38.4222L188.098 43.0221L188.105 43.157L188.376 38.0741L185.513 32.8285L188.411 37.1819L188.694 26.644L188.695 26.6081V26.6429L188.648 34.9527L191.499 31.6584L188.636 35.6686L188.561 40.2195L191.222 35.8519L188.549 40.8892L188.507 43.4192L192.372 37.3402L188.493 44.3021L188.4 49.9295Z" fill="#6C66DD"/>
<path d="M25.0844 55.8649C29.0318 55.8649 32.2318 52.7252 32.2318 48.8522C32.2318 44.9793 29.0318 41.8396 25.0844 41.8396C21.137 41.8396 17.937 44.9793 17.937 48.8522C17.937 52.7252 21.137 55.8649 25.0844 55.8649Z" fill="#2F2E41"/>
<path d="M21.3184 53.5209C21.3184 53.5209 21.426 57.8496 20.9955 57.9552C20.5651 58.0607 26.9139 59.75 26.9139 59.75L27.5596 53.8376L21.3184 53.5209Z" fill="#A0616A"/>
<path d="M71.4638 90.4732C71.4638 90.4732 76.1985 90.4732 76.3061 89.9453C76.4137 89.4174 77.3822 94.274 77.3822 94.274L75.4452 94.9075C75.4452 94.9075 71.7866 93.3238 71.4638 93.3238C71.141 93.3238 71.4638 90.4732 71.4638 90.4732Z" fill="#A0616A"/>
<path d="M76.6293 92.3735C76.6293 92.3735 75.7685 89.5229 74.6924 89.4174C74.6924 89.4174 78.351 87.0946 78.4586 86.3556C78.5662 85.6165 79.8575 83.7161 80.3956 84.3496C80.9336 84.9831 80.9336 95.013 79.9651 96.0688C78.9967 97.1245 74.6924 94.5848 74.6924 94.5848C74.6924 94.5848 77.3826 93.4293 76.6293 92.3735Z" fill="#2F2E41"/>
<path d="M18.1977 132.81L17.3369 137.35L21.3183 137.983V132.81H18.1977Z" fill="#A0616A"/>
<path d="M18.199 136.822C18.199 136.822 17.5534 134.816 17.123 135.133C16.6925 135.449 16.0469 137.455 16.1545 137.983C16.2621 138.511 17.0153 142.629 16.6925 143.368C16.3697 144.107 18.3066 147.907 20.7816 147.591C23.2566 147.274 23.0414 145.162 23.0414 145.162L22.1805 141.89L21.8577 136.716C21.8577 136.716 19.0599 136.294 18.199 136.822Z" fill="#2F2E41"/>
<path d="M22.5796 44.3733C24.213 44.3733 25.5372 43.0741 25.5372 41.4715C25.5372 39.8689 24.213 38.5697 22.5796 38.5697C20.9462 38.5697 19.6221 39.8689 19.6221 41.4715C19.6221 43.0741 20.9462 44.3733 22.5796 44.3733Z" fill="#2F2E41"/>
<path d="M18.6381 39.8997C18.6382 39.1824 18.9089 38.4906 19.3982 37.9576C19.8875 37.4246 20.5605 37.0883 21.2876 37.0136C21.1853 37.0031 21.0824 36.9979 20.9795 36.9979C20.1951 36.9979 19.4429 37.3036 18.8882 37.8478C18.3336 38.392 18.022 39.1301 18.022 39.8997C18.022 40.6693 18.3336 41.4073 18.8882 41.9515C19.4429 42.4957 20.1951 42.8014 20.9795 42.8014C21.0824 42.8014 21.1853 42.7962 21.2876 42.7858C20.5605 42.711 19.8874 42.3747 19.3982 41.8417C18.9089 41.3088 18.6382 40.6169 18.6381 39.8997Z" fill="#2F2E41"/>
<path d="M25.0854 56.477C27.5815 56.477 29.6049 54.4917 29.6049 52.0427C29.6049 49.5937 27.5815 47.6085 25.0854 47.6085C22.5894 47.6085 20.5659 49.5937 20.5659 52.0427C20.5659 54.4917 22.5894 56.477 25.0854 56.477Z" fill="#A0616A"/>
<path d="M16.1523 82.8715C16.1523 82.8715 16.3676 88.1504 17.2284 90.8954C18.0893 93.6404 21.1929 113.19 20.5472 114.668C19.9016 116.146 16.5828 132.493 17.336 133.443C18.0893 134.394 21.6403 134.077 21.6403 134.077L26.4656 114.246C26.4656 114.246 25.5142 92.3735 33.4771 91.8456C41.44 91.3177 54.4605 91.001 54.4605 91.001C54.4605 91.001 62.8538 93.4293 66.6201 93.3237C70.3863 93.2181 72.5385 94.2739 72.5385 94.2739L73.1841 89.9452L56.505 86.3555C56.505 86.3555 41.2248 81.1822 32.8315 82.5547C24.4381 83.9272 16.1523 82.8715 16.1523 82.8715Z" fill="#2F2E41"/>
<path d="M22.1791 56.5826C22.1791 56.5826 20.8878 55.8436 20.565 56.5826C20.2422 57.3217 17.9824 57.9551 17.1216 57.3217C16.2607 56.6882 14.1086 57.5328 14.1086 57.5328L11.7412 64.3954C11.7412 64.3954 12.9249 70.3078 14.001 73.5807C15.077 76.8536 15.5074 83.6106 15.077 84.2441C14.6466 84.8775 23.6856 87.4114 28.0975 85.8277C32.5094 84.244 33.4778 82.4492 33.4778 82.4492C33.4778 82.4492 28.6355 75.6922 30.2496 72.5249C31.8637 69.3576 30.5724 65.7679 30.5724 65.7679L31.2181 62.1783L27.5595 60.1723C27.5595 60.1723 27.3442 58.2719 26.4834 58.2719C25.6225 58.2719 22.1791 56.5826 22.1791 56.5826Z" fill="#D0CDE1"/>
<path d="M29.6067 62.2839H31.2208C31.6686 62.695 32.0023 63.2111 32.1905 63.7837C32.3788 64.3563 32.4154 64.9665 32.2969 65.5568C31.8665 67.5628 29.9253 74.2132 29.9253 74.2132L28.3154 70.0967L29.6067 62.2839Z" fill="#D0CDE1"/>
<path d="M34.2384 79.2391C34.2384 79.2391 37.4587 82.6604 35.0913 84.4552C32.724 86.25 32.1406 80.3377 32.1406 80.3377L34.2384 79.2391Z" fill="#A0616A"/>
<path d="M29.6067 72.1026L30.36 75.0588L31.6513 77.3815C31.6513 77.3815 36.0631 80.2321 36.0631 81.2879C36.0631 81.2879 34.1262 78.8596 31.6513 81.2879L29.4453 76.0618L29.6067 72.1026Z" fill="#D0CDE1"/>
<path d="M25.9122 50.2672C28.6345 50.2672 30.8414 48.968 30.8414 47.3654C30.8414 45.7628 28.6345 44.4636 25.9122 44.4636C23.1898 44.4636 20.9829 45.7628 20.9829 47.3654C20.9829 48.968 23.1898 50.2672 25.9122 50.2672Z" fill="#2F2E41"/>
<path d="M16.1523 47.6085C16.1523 47.6085 19.5958 45.7081 20.9947 47.0806C22.3936 48.4531 16.798 50.5647 16.798 50.5647L16.1523 47.6085Z" fill="#A0616A"/>
<path d="M14.8624 58.0607L14.1092 57.5328C14.1092 57.5328 13.2483 56.2659 12.4951 56.6882C11.7418 57.1105 7.32995 55.1045 7.32995 55.1045C7.32995 55.1045 8.94406 55.8436 8.94406 54.5766C8.94406 53.3097 9.15928 53.5208 10.2353 53.5208C11.3114 53.5208 11.3114 54.0487 11.7418 53.3097C12.1723 52.5706 11.957 52.1483 12.7103 52.5706C13.4635 52.9929 14.3244 52.6762 14.5396 52.3595C14.7548 52.0428 18.6287 51.5149 18.6287 51.5149C18.6287 51.5149 17.1222 47.1862 16.7994 46.8694C16.4766 46.5527 8.19083 50.1423 8.19083 50.1423C8.19083 50.1423 -2.24706 52.993 0.443119 56.2659C3.1333 59.5388 12.8179 64.501 12.8179 64.501L14.8624 58.0607Z" fill="#D0CDE1"/>
<path d="M176.228 101.629H131.39V159.388H176.228V101.629Z" fill="#6C66DD"/>
<path d="M163.875 110.757H143.744V130.509H163.875V110.757Z" fill="#3F3D56"/>
<path d="M171.5 134.698H136.118V137.093H171.5V134.698Z" fill="#3F3D56"/>
<path d="M171.5 141.282H136.118V143.676H171.5V141.282Z" fill="#3F3D56"/>
<path d="M171.5 147.866H136.118V150.26H171.5V147.866Z" fill="#3F3D56"/>
<path d="M80.1081 164.306C80.1081 168.669 77.4643 170.193 74.2027 170.193C74.1272 170.193 74.0517 170.192 73.9764 170.191C73.8253 170.187 73.6756 170.18 73.5277 170.17C70.5842 169.966 68.2974 168.364 68.2974 164.306C68.2974 160.106 73.7674 154.807 74.1782 154.414L74.179 154.414C74.1948 154.399 74.2027 154.391 74.2027 154.391C74.2027 154.391 80.1081 159.942 80.1081 164.306Z" fill="#6C66DD"/>
<path d="M73.9874 169.525L76.1472 166.564L73.982 169.851L73.9762 170.191C73.8251 170.187 73.6754 170.18 73.5275 170.17L73.7603 165.805L73.7585 165.771L73.7625 165.764L73.7844 165.352L71.6138 162.058L73.7913 165.043L73.7963 165.13L73.9722 161.832L72.1139 158.428L73.9949 161.253L74.178 154.414L74.1788 154.391V154.414L74.1482 159.806L75.9982 157.668L74.1406 160.271L74.0917 163.224L75.8191 160.39L74.0845 163.659L74.0572 165.301L76.5649 161.356L74.0478 165.874L73.9874 169.525Z" fill="#3F3D56"/>
</svg>
