<svg width="631" height="380" viewBox="0 0 631 380" fill="none" xmlns="http://www.w3.org/2000/svg">
<path d="M329.702 359.039C385.321 359.039 430.409 356.076 430.409 352.421C430.409 348.766 385.321 345.803 329.702 345.803C274.084 345.803 228.996 348.766 228.996 352.421C228.996 356.076 274.084 359.039 329.702 359.039Z" fill="#F2F2F2"/>
<path d="M159.429 380C185.409 380 206.47 378.616 206.47 376.909C206.47 375.201 185.409 373.817 159.429 373.817C133.449 373.817 112.389 375.201 112.389 376.909C112.389 378.616 133.449 380 159.429 380Z" fill="#F2F2F2"/>
<path d="M529.788 343.817C585.407 343.817 630.495 340.854 630.495 337.199C630.495 333.544 585.407 330.581 529.788 330.581C474.17 330.581 429.082 333.544 429.082 337.199C429.082 340.854 474.17 343.817 529.788 343.817Z" fill="#F2F2F2"/>
<path d="M5.05664 326.61H605.773" stroke="#2F2E41" stroke-width="2" stroke-miterlimit="10"/>
<path d="M605.65 0H121.994V326.279H605.65V0Z" fill="#3F3D56"/>
<path d="M121.994 23.8647H605.65" stroke="#2F2E41" stroke-width="2" stroke-miterlimit="10"/>
<path d="M136.902 17.8692C140.196 17.8692 142.865 15.2024 142.865 11.9128C142.865 8.62317 140.196 5.95639 136.902 5.95639C133.609 5.95639 130.939 8.62317 130.939 11.9128C130.939 15.2024 133.609 17.8692 136.902 17.8692Z" fill="#6C63D7"/>
<path d="M154.791 18.2001C158.084 18.2001 160.754 15.5334 160.754 12.2437C160.754 8.9541 158.084 6.28732 154.791 6.28732C151.498 6.28732 148.828 8.9541 148.828 12.2437C148.828 15.5334 151.498 18.2001 154.791 18.2001Z" fill="#6C63D7"/>
<path d="M172.68 18.5311C175.973 18.5311 178.643 15.8643 178.643 12.5747C178.643 9.28503 175.973 6.61826 172.68 6.61826C169.386 6.61826 166.717 9.28503 166.717 12.5747C166.717 15.8643 169.386 18.5311 172.68 18.5311Z" fill="#6C63D7"/>
<path opacity="0.3" d="M560.267 45.9968H152.141V125.416H560.267V45.9968Z" fill="#6C63D7"/>
<path opacity="0.3" d="M152.141 125.416L560.267 45.9968" stroke="#6C63D7" stroke-width="2" stroke-miterlimit="10"/>
<path opacity="0.3" d="M560.267 125.416L152.141 45.9968" stroke="#6C63D7" stroke-width="2" stroke-miterlimit="10"/>
<path opacity="0.3" d="M249.534 175.714H152.141V303.446H249.534V175.714Z" fill="#6C63D7"/>
<path opacity="0.3" d="M560.267 175.714H462.873V303.446H560.267V175.714Z" fill="#6C63D7"/>
<path opacity="0.3" d="M404.902 175.714H307.508V303.446H404.902V175.714Z" fill="#6C63D7"/>
<path opacity="0.3" d="M152.141 175.714L249.534 303.446" stroke="#6C63D7" stroke-width="2" stroke-miterlimit="10"/>
<path opacity="0.3" d="M249.534 175.714L152.141 303.446" stroke="#6C63D7" stroke-width="2" stroke-miterlimit="10"/>
<path opacity="0.3" d="M307.838 175.714L405.232 303.446" stroke="#6C63D7" stroke-width="2" stroke-miterlimit="10"/>
<path opacity="0.3" d="M405.232 175.714L307.838 303.446" stroke="#6C63D7" stroke-width="2" stroke-miterlimit="10"/>
<path opacity="0.3" d="M462.873 175.714L560.267 303.446" stroke="#6C63D7" stroke-width="2" stroke-miterlimit="10"/>
<path opacity="0.3" d="M560.267 175.714L462.873 303.446" stroke="#6C63D7" stroke-width="2" stroke-miterlimit="10"/>
<path d="M614.597 45.9968H206.471V125.416H614.597V45.9968Z" fill="#6C63D7"/>
<path d="M578.818 206.158H481.424V333.89H578.818V206.158Z" fill="#6C63D7"/>
<path d="M564.574 223.035H495.67V230.976H564.574V223.035Z" fill="#3F3D56"/>
<path d="M564.574 240.242H495.67V248.184H564.574V240.242Z" fill="#3F3D56"/>
<path d="M564.574 257.449H495.67V265.391H564.574V257.449Z" fill="#3F3D56"/>
<path d="M564.574 274.657H495.67V282.599H564.574V274.657Z" fill="#3F3D56"/>
<path d="M564.574 291.864H495.67V299.806H564.574V291.864Z" fill="#3F3D56"/>
<path d="M564.574 309.072H495.67V317.014H564.574V309.072Z" fill="#3F3D56"/>
<path d="M273.386 192.922H175.992V320.654H273.386V192.922Z" fill="#6C63D7"/>
<path d="M259.141 235.609H190.236V243.551H259.141V235.609Z" fill="#3F3D56"/>
<path d="M259.141 252.817H190.236V260.759H259.141V252.817Z" fill="#3F3D56"/>
<path d="M259.141 270.024H190.236V277.966H259.141V270.024Z" fill="#3F3D56"/>
<path d="M430.298 92.5687C430.298 107.439 421.449 112.631 410.532 112.631C410.279 112.631 410.026 112.628 409.774 112.623C409.269 112.612 408.768 112.588 408.273 112.554C398.42 111.857 390.766 106.398 390.766 92.5687C390.766 78.2566 409.075 60.1973 410.45 58.8607L410.452 58.8584C410.505 58.8066 410.532 58.7813 410.532 58.7813C410.532 58.7813 430.298 77.6984 430.298 92.5687Z" fill="#3F3D56"/>
<path d="M409.812 110.356L417.041 100.265L409.794 111.464L409.775 112.623C409.269 112.612 408.768 112.588 408.273 112.554L409.052 97.6765L409.046 97.5611L409.059 97.5394L409.133 96.1343L401.867 84.908L409.156 95.0805L409.172 95.3788L409.761 84.138L403.541 72.5375L409.837 82.1651L410.45 58.8607L410.453 58.7812V58.8582L410.35 77.2352L416.543 69.9498L410.325 78.8184L410.161 88.8827L415.943 79.2238L410.137 90.3635L410.046 95.9587L418.44 82.5152L410.014 97.9111L409.812 110.356Z" fill="#6C63D7"/>
<path d="M55.0603 123.482C63.6346 123.482 70.5855 116.539 70.5855 107.974C70.5855 99.4087 63.6346 92.4654 55.0603 92.4654C46.486 92.4654 39.5352 99.4087 39.5352 107.974C39.5352 116.539 46.486 123.482 55.0603 123.482Z" fill="#2F2E41"/>
<path d="M46.8854 118.298C46.8854 118.298 47.1191 127.871 46.1842 128.105C45.2492 128.338 59.0397 132.074 59.0397 132.074L60.4421 118.999L46.8854 118.298Z" fill="#A0616A"/>
<path d="M155.808 200.018C155.808 200.018 166.092 200.018 166.326 198.85C166.56 197.683 168.663 208.423 168.663 208.423L164.456 209.824C164.456 209.824 156.509 206.322 155.808 206.322C155.107 206.322 155.808 200.018 155.808 200.018Z" fill="#A0616A"/>
<path d="M167.026 204.22C167.026 204.22 165.156 197.916 162.818 197.683C162.818 197.683 170.765 192.546 170.999 190.912C171.233 189.277 174.038 185.075 175.206 186.475C176.375 187.876 176.375 210.057 174.271 212.392C172.168 214.727 162.818 209.11 162.818 209.11C162.818 209.11 168.662 206.555 167.026 204.22Z" fill="#2F2E41"/>
<path d="M40.108 293.644L38.2383 303.684L46.8864 305.085V293.644H40.108Z" fill="#A0616A"/>
<path d="M40.1075 302.517C40.1075 302.517 38.7051 298.081 37.7701 298.781C36.8352 299.481 35.4328 303.918 35.6665 305.085C35.9002 306.253 37.5364 315.358 36.8352 316.993C36.134 318.627 40.3412 327.033 45.7172 326.332C51.0932 325.632 50.6257 320.962 50.6257 320.962L48.7558 313.724L48.0546 302.283C48.0546 302.283 41.9774 301.349 40.1075 302.517Z" fill="#2F2E41"/>
<path d="M49.6293 98.0686C53.1773 98.0686 56.0535 95.1955 56.0535 91.6513C56.0535 88.1072 53.1773 85.2341 49.6293 85.2341C46.0813 85.2341 43.2051 88.1072 43.2051 91.6513C43.2051 95.1955 46.0813 98.0686 49.6293 98.0686Z" fill="#2F2E41"/>
<path d="M41.063 88.1753C41.0631 86.5891 41.6512 85.0591 42.7139 83.8805C43.7767 82.7019 45.2387 81.9581 46.818 81.7928C46.5957 81.7697 46.3723 81.7581 46.1488 81.7581C44.445 81.7581 42.811 82.4342 41.6062 83.6376C40.4014 84.8411 39.7246 86.4733 39.7246 88.1753C39.7246 89.8773 40.4014 91.5095 41.6062 92.713C42.811 93.9165 44.445 94.5926 46.1488 94.5926C46.3723 94.5925 46.5957 94.5809 46.818 94.5579C45.2387 94.3925 43.7767 93.6488 42.7139 92.4701C41.6512 91.2915 41.0631 89.7615 41.063 88.1753Z" fill="#2F2E41"/>
<path d="M55.067 124.836C60.4887 124.836 64.8839 120.445 64.8839 115.029C64.8839 109.614 60.4887 105.223 55.067 105.223C49.6452 105.223 45.25 109.614 45.25 115.029C45.25 120.445 49.6452 124.836 55.067 124.836Z" fill="#A0616A"/>
<path d="M35.666 183.207C35.666 183.207 36.1335 194.881 38.0034 200.951C39.8733 207.022 46.6147 250.255 45.2123 253.524C43.8099 256.793 36.601 292.944 38.2371 295.045C39.8733 297.147 47.5866 296.446 47.5866 296.446L58.0678 252.59C58.0678 252.59 56.0012 204.22 73.2977 203.053C90.5943 201.885 118.876 201.185 118.876 201.185C118.876 201.185 137.108 206.555 145.289 206.322C153.47 206.088 158.144 208.423 158.144 208.423L159.547 198.85L123.317 190.912C123.317 190.912 90.1268 179.471 71.8953 182.506C53.6638 185.542 35.666 183.207 35.666 183.207Z" fill="#2F2E41"/>
<path d="M48.7565 125.069C48.7565 125.069 45.9516 123.435 45.2504 125.069C44.5492 126.704 39.6407 128.105 37.7708 126.704C35.9009 125.303 31.2262 127.171 31.2262 127.171L26.084 142.347C26.084 142.347 28.6551 155.422 30.9925 162.66C33.3298 169.898 34.2648 184.841 33.3298 186.242C32.3949 187.643 52.0288 193.246 61.612 189.744C71.1952 186.242 73.2989 182.273 73.2989 182.273C73.2989 182.273 62.7807 167.33 66.2868 160.325C69.7928 153.321 66.988 145.382 66.988 145.382L68.3904 137.444L60.4433 133.008C60.4433 133.008 59.9759 128.805 58.106 128.805C56.2361 128.805 48.7565 125.069 48.7565 125.069Z" fill="#D0CDE1"/>
<path d="M64.883 137.677H68.389C69.3616 138.587 70.0865 139.728 70.4954 140.994C70.9043 142.261 70.9838 143.61 70.7264 144.915C69.7914 149.352 65.5749 164.059 65.5749 164.059L62.0781 154.955L64.883 137.677Z" fill="#D0CDE1"/>
<path d="M74.9512 175.174C74.9512 175.174 81.9461 182.74 76.8039 186.709C71.6616 190.678 70.3945 177.603 70.3945 177.603L74.9512 175.174Z" fill="#A0616A"/>
<path d="M64.8819 159.391L66.518 165.929L69.3228 171.066C69.3228 171.066 78.9061 177.37 78.9061 179.704C78.9061 179.704 74.6988 174.334 69.3228 179.704L64.5312 168.147L64.8819 159.391Z" fill="#D0CDE1"/>
<path d="M56.8672 111.103C62.7805 111.103 67.5742 108.23 67.5742 104.686C67.5742 101.141 62.7805 98.2683 56.8672 98.2683C50.9538 98.2683 46.1602 101.141 46.1602 104.686C46.1602 108.23 50.9538 111.103 56.8672 111.103Z" fill="#2F2E41"/>
<path d="M35.666 105.223C35.666 105.223 43.1456 101.02 46.1842 104.056C49.2228 107.091 37.0684 111.761 37.0684 111.761L35.666 105.223Z" fill="#A0616A"/>
<path d="M32.8614 128.338L31.2252 127.171C31.2252 127.171 29.3553 124.369 27.7191 125.303C26.083 126.237 16.4998 121.8 16.4998 121.8C16.4998 121.8 20.0058 123.435 20.0058 120.633C20.0058 117.831 20.4733 118.298 22.8107 118.298C25.148 118.298 25.148 119.466 26.083 117.831C27.0179 116.197 26.5504 115.263 28.1866 116.197C29.8228 117.131 31.6926 116.43 32.1601 115.73C32.6276 115.029 41.0422 113.862 41.0422 113.862C41.0422 113.862 37.7699 104.289 37.0686 103.589C36.3674 102.888 18.3697 110.827 18.3697 110.827C18.3697 110.827 -4.30279 117.131 1.54064 124.369C7.38407 131.607 28.4204 142.581 28.4204 142.581L32.8614 128.338Z" fill="#D0CDE1"/>
<path d="M383.368 224.689H285.975V352.421H383.368V224.689Z" fill="#6C63D7"/>
<path d="M356.534 244.875H312.807V288.555H356.534V244.875Z" fill="#3F3D56"/>
<path d="M373.099 297.821H296.244V303.115H373.099V297.821Z" fill="#3F3D56"/>
<path d="M373.099 312.381H296.244V317.675H373.099V312.381Z" fill="#3F3D56"/>
<path d="M373.099 326.941H296.244V332.235H373.099V326.941Z" fill="#3F3D56"/>
<path d="M174.582 363.297C174.582 372.947 168.84 376.316 161.755 376.316C161.591 376.316 161.427 376.315 161.263 376.311C160.935 376.304 160.61 376.288 160.289 376.266C153.895 375.814 148.928 372.272 148.928 363.297C148.928 354.009 160.809 342.29 161.702 341.423L161.703 341.421C161.738 341.387 161.755 341.371 161.755 341.371C161.755 341.371 174.582 353.647 174.582 363.297Z" fill="#6C63D7"/>
<path d="M161.289 374.84L165.98 368.292L161.277 375.559L161.264 376.311C160.936 376.304 160.611 376.288 160.29 376.267L160.795 366.612L160.791 366.537L160.8 366.523L160.848 365.611L156.133 358.326L160.863 364.927L160.874 365.121L161.256 357.826L157.219 350.298L161.305 356.546L161.703 341.422L161.704 341.371V341.421L161.638 353.347L165.656 348.619L161.621 354.374L161.515 360.905L165.267 354.637L161.5 361.866L161.44 365.497L166.887 356.773L161.42 366.764L161.289 374.84Z" fill="#3F3D56"/>
</svg>
