<svg width="176" height="246" viewBox="0 0 176 246" fill="none" xmlns="http://www.w3.org/2000/svg">
<path d="M55.0603 42.482C63.6346 42.482 70.5855 35.5387 70.5855 26.9737C70.5855 18.4087 63.6346 11.4654 55.0603 11.4654C46.486 11.4654 39.5352 18.4087 39.5352 26.9737C39.5352 35.5387 46.486 42.482 55.0603 42.482Z" fill="#2F2E41"/>
<path d="M46.8854 37.2982C46.8854 37.2982 47.1191 46.8711 46.1842 47.1045C45.2492 47.338 59.0397 51.0738 59.0397 51.0738L60.4421 37.9987L46.8854 37.2982Z" fill="#A0616A"/>
<path d="M155.808 119.018C155.808 119.018 166.092 119.018 166.326 117.85C166.56 116.683 168.663 127.423 168.663 127.423L164.456 128.824C164.456 128.824 156.509 125.322 155.808 125.322C155.107 125.322 155.808 119.018 155.808 119.018Z" fill="#A0616A"/>
<path d="M167.026 123.22C167.026 123.22 165.156 116.916 162.818 116.683C162.818 116.683 170.765 111.546 170.999 109.912C171.233 108.277 174.038 104.075 175.206 105.475C176.375 106.876 176.375 129.057 174.271 131.392C172.168 133.727 162.818 128.11 162.818 128.11C162.818 128.11 168.662 125.555 167.026 123.22Z" fill="#2F2E41"/>
<path d="M40.108 212.644L38.2383 222.684L46.8864 224.085V212.644H40.108Z" fill="#A0616A"/>
<path d="M40.1075 221.517C40.1075 221.517 38.7051 217.081 37.7701 217.781C36.8352 218.481 35.4328 222.918 35.6665 224.085C35.9002 225.253 37.5364 234.358 36.8352 235.993C36.134 237.627 40.3412 246.033 45.7172 245.332C51.0932 244.632 50.6257 239.962 50.6257 239.962L48.7558 232.724L48.0546 221.283C48.0546 221.283 41.9774 220.349 40.1075 221.517Z" fill="#2F2E41"/>
<path d="M49.6293 17.0686C53.1773 17.0686 56.0535 14.1955 56.0535 10.6513C56.0535 7.10718 53.1773 4.23407 49.6293 4.23407C46.0813 4.23407 43.2051 7.10718 43.2051 10.6513C43.2051 14.1955 46.0813 17.0686 49.6293 17.0686Z" fill="#2F2E41"/>
<path d="M41.063 7.17531C41.0631 5.58909 41.6512 4.05911 42.7139 2.88049C43.7767 1.70188 45.2387 0.958133 46.818 0.792756C46.5957 0.769695 46.3723 0.758113 46.1488 0.758057C44.445 0.758057 42.811 1.43417 41.6062 2.63764C40.4014 3.84111 39.7246 5.47335 39.7246 7.17531C39.7246 8.87727 40.4014 10.5095 41.6062 11.713C42.811 12.9165 44.445 13.5926 46.1488 13.5926C46.3723 13.5925 46.5957 13.5809 46.818 13.5579C45.2387 13.3925 43.7767 12.6488 42.7139 11.4701C41.6512 10.2915 41.0631 8.76153 41.063 7.17531Z" fill="#2F2E41"/>
<path d="M55.067 43.8358C60.4887 43.8358 64.8839 39.4453 64.8839 34.0295C64.8839 28.6136 60.4887 24.2232 55.067 24.2232C49.6452 24.2232 45.25 28.6136 45.25 34.0295C45.25 39.4453 49.6452 43.8358 55.067 43.8358Z" fill="#A0616A"/>
<path d="M35.666 102.207C35.666 102.207 36.1335 113.881 38.0034 119.951C39.8733 126.022 46.6147 169.255 45.2123 172.524C43.8099 175.793 36.601 211.944 38.2371 214.045C39.8733 216.147 47.5866 215.446 47.5866 215.446L58.0678 171.59C58.0678 171.59 56.0012 123.22 73.2977 122.053C90.5943 120.885 118.876 120.185 118.876 120.185C118.876 120.185 137.108 125.555 145.289 125.322C153.47 125.088 158.144 127.423 158.144 127.423L159.547 117.85L123.317 109.912C123.317 109.912 90.1268 98.4709 71.8953 101.506C53.6638 104.542 35.666 102.207 35.666 102.207Z" fill="#2F2E41"/>
<path d="M48.7565 44.0693C48.7565 44.0693 45.9516 42.4349 45.2504 44.0693C44.5492 45.7036 39.6407 47.1046 37.7708 45.7037C35.9009 44.3028 31.2262 46.1706 31.2262 46.1706L26.084 61.3471C26.084 61.3471 28.6551 74.4221 30.9925 81.6601C33.3298 88.8981 34.2648 103.841 33.3298 105.242C32.3949 106.643 52.0288 112.246 61.612 108.744C71.1952 105.242 73.2989 101.273 73.2989 101.273C73.2989 101.273 62.7807 86.3298 66.2868 79.3253C69.7928 72.3208 66.988 64.3823 66.988 64.3823L68.3904 56.4439L60.4433 52.0077C60.4433 52.0077 59.9759 47.805 58.106 47.805C56.2361 47.805 48.7565 44.0693 48.7565 44.0693Z" fill="#D0CDE1"/>
<path d="M64.883 56.6774H68.389C69.3616 57.5865 70.0865 58.728 70.4954 59.9943C70.9043 61.2605 70.9838 62.61 70.7264 63.9154C69.7914 68.3516 65.5749 83.0589 65.5749 83.0589L62.0781 73.9552L64.883 56.6774Z" fill="#D0CDE1"/>
<path d="M74.9512 94.1736C74.9512 94.1736 81.9461 101.74 76.8039 105.709C71.6616 109.678 70.3945 96.6031 70.3945 96.6031L74.9512 94.1736Z" fill="#A0616A"/>
<path d="M64.8819 78.3914L66.518 84.9289L69.3228 90.0656C69.3228 90.0656 78.9061 96.3696 78.9061 98.7044C78.9061 98.7044 74.6988 93.3343 69.3228 98.7044L64.5312 87.147L64.8819 78.3914Z" fill="#D0CDE1"/>
<path d="M56.8672 30.1028C62.7805 30.1028 67.5742 27.2297 67.5742 23.6855C67.5742 20.1414 62.7805 17.2683 56.8672 17.2683C50.9538 17.2683 46.1602 20.1414 46.1602 23.6855C46.1602 27.2297 50.9538 30.1028 56.8672 30.1028Z" fill="#2F2E41"/>
<path d="M35.666 24.2232C35.666 24.2232 43.1456 20.0205 46.1842 23.0558C49.2228 26.0911 37.0684 30.7607 37.0684 30.7607L35.666 24.2232Z" fill="#A0616A"/>
<path d="M32.8614 47.3381L31.2252 46.1706C31.2252 46.1706 29.3553 43.3688 27.7191 44.3028C26.083 45.2367 16.4998 40.8005 16.4998 40.8005C16.4998 40.8005 20.0058 42.4349 20.0058 39.6331C20.0058 36.8313 20.4733 37.2983 22.8107 37.2983C25.148 37.2983 25.148 38.4657 26.083 36.8313C27.0179 35.1969 26.5504 34.263 28.1866 35.1969C29.8228 36.1308 31.6926 35.4304 32.1601 34.7299C32.6276 34.0295 41.0422 32.8621 41.0422 32.8621C41.0422 32.8621 37.7699 23.2892 37.0686 22.5888C36.3674 21.8883 18.3697 29.8268 18.3697 29.8268C18.3697 29.8268 -4.30279 36.1308 1.54064 43.3688C7.38407 50.6068 28.4204 61.5806 28.4204 61.5806L32.8614 47.3381Z" fill="#D0CDE1"/>
</svg>
