<svg width="22" height="22" viewBox="0 0 22 22" fill="none" xmlns="http://www.w3.org/2000/svg">
<path d="M16 1.00195H6C3.23858 1.00195 1 3.24053 1 6.00195V16.002C1 18.7634 3.23858 21.002 6 21.002H16C18.7614 21.002 21 18.7634 21 16.002V6.00195C21 3.24053 18.7614 1.00195 16 1.00195Z" stroke="#EEEEFF" stroke-width="0.8" stroke-linecap="round" stroke-linejoin="round"/>
<path d="M14.9997 10.3718C15.1231 11.204 14.981 12.054 14.5935 12.8008C14.206 13.5476 13.5929 14.1532 12.8413 14.5314C12.0898 14.9097 11.2382 15.0414 10.4075 14.9077C9.57683 14.774 8.80947 14.3818 8.21455 13.7869C7.61962 13.192 7.22744 12.4246 7.09377 11.594C6.96011 10.7633 7.09177 9.91166 7.47003 9.16014C7.84829 8.40862 8.45389 7.79551 9.20069 7.40801C9.94749 7.02051 10.7975 6.87835 11.6297 7.00177C12.4786 7.12765 13.2646 7.52323 13.8714 8.13007C14.4782 8.73692 14.8738 9.52284 14.9997 10.3718Z" stroke="#EEEEFF" stroke-width="0.8" stroke-linecap="round" stroke-linejoin="round"/>
<path d="M16.5 5.50195H16.51" stroke="#EEEEFF" stroke-width="0.8" stroke-linecap="round" stroke-linejoin="round"/>
</svg>
