<svg width="20" height="21" viewBox="0 0 20 21" fill="none" xmlns="http://www.w3.org/2000/svg">
<path d="M5.2922 16.9902C6.11788 17.5005 6.98242 17.8643 7.87125 18.0864C8.78436 18.3227 9.73146 18.4077 10.6737 18.351C13.1605 18.2093 15.3558 17.1036 16.8906 15.4215C18.4303 13.7441 19.3094 11.495 19.1637 9.07107L19.1588 9.05217V9.04745C19.0083 6.63769 17.8717 4.51143 16.1524 3.02305C14.4233 1.52994 12.1114 0.674711 9.62461 0.811736L9.60033 0.816461H9.59547C7.12327 0.962937 4.93764 2.06859 3.40284 3.74597C1.86804 5.42336 0.988924 7.67247 1.13463 10.0964V10.12C1.18806 10.9516 1.34834 11.7313 1.61062 12.4684C1.88746 13.2338 2.26631 13.952 2.74715 14.6182C2.82971 14.7316 2.84429 14.8781 2.79086 14.9963L1.20263 18.7715L4.88907 16.9666C5.02021 16.9052 5.17563 16.9146 5.2922 16.9902ZM11.9948 14.7033C10.7077 14.6324 8.96892 13.4464 7.57011 11.9817C6.16645 10.5122 5.07849 8.73087 5.10763 7.48347C5.09792 7.21414 5.13677 6.92591 5.21449 6.62351C5.2922 6.32111 5.40876 6.00926 5.56904 5.68323C5.62247 5.56038 5.68075 5.44698 5.73904 5.33831C5.79246 5.23908 5.86046 5.12568 5.93817 4.99811C5.98674 4.9225 6.0596 4.8658 6.13731 4.83273C6.61815 4.6012 6.98728 4.49725 7.34669 4.54923C7.73039 4.60593 8.04124 4.81855 8.3958 5.23436C8.56579 5.42808 8.72607 5.65488 8.88149 5.91003C9.0272 6.15101 9.1632 6.41561 9.28948 6.69439C9.42062 6.93536 9.44005 7.21414 9.34291 7.51182C9.2652 7.76224 9.10977 8.02684 8.87664 8.29617C8.80864 8.37177 8.72121 8.41902 8.62893 8.4332C8.58522 8.44737 8.54636 8.46627 8.52208 8.4899C8.47837 8.5277 8.43951 8.59385 8.40066 8.68835C8.3958 8.70252 8.39094 8.7167 8.38608 8.72615C8.37151 8.74977 8.42494 8.74977 8.4638 8.83482C8.62893 9.2081 9.04178 9.74203 9.51776 10.2429C9.98888 10.739 10.5037 11.1832 10.8729 11.3722C10.9554 11.4147 10.9506 11.4667 10.9748 11.4572C10.9894 11.4478 11.004 11.443 11.0137 11.4383C11.1157 11.41 11.1837 11.3769 11.2274 11.3438C11.2566 11.3155 11.276 11.2777 11.2954 11.2257C11.3245 11.1359 11.378 11.065 11.4508 11.0178V11.0131C11.7374 10.8099 12.0191 10.6776 12.2814 10.6209C12.5874 10.5595 12.8594 10.5925 13.0925 10.7296C13.379 10.876 13.6413 11.0272 13.8745 11.1879C14.1173 11.3485 14.3359 11.5234 14.5204 11.7029C14.9187 12.0762 15.113 12.3928 15.1421 12.766C15.1664 13.1204 15.0304 13.4701 14.7536 13.9237C14.7099 13.9993 14.6467 14.0512 14.5787 14.0843V14.089C14.467 14.141 14.3456 14.1977 14.2144 14.2497C14.093 14.3017 13.9716 14.3489 13.8599 14.3914C13.515 14.519 13.1848 14.6088 12.8788 14.6608C12.5631 14.7127 12.2619 14.7269 11.9948 14.7033ZM8.19666 11.4147C9.46919 12.7471 10.9943 13.8197 12.0482 13.8717H12.0725C12.2668 13.8953 12.4902 13.8811 12.7331 13.8386C12.9905 13.7961 13.2673 13.7205 13.5588 13.6165C13.6656 13.574 13.7676 13.5362 13.8745 13.489C13.9376 13.4606 14.0056 13.4323 14.0833 13.3945C14.229 13.144 14.297 12.9645 14.2873 12.8275C14.2776 12.681 14.161 12.5251 13.9279 12.2983C13.7773 12.1565 13.5928 12.01 13.3839 11.8683C13.1751 11.7265 12.9419 11.5895 12.6894 11.4667V11.4619C12.6748 11.4572 12.6602 11.4478 12.6456 11.4383C12.6116 11.4147 12.5485 11.4147 12.4659 11.4336C12.3445 11.4572 12.2085 11.5234 12.0531 11.6226C11.99 11.7549 11.9025 11.8683 11.7908 11.9628C11.6548 12.0856 11.4848 12.166 11.2711 12.2321C11.0428 12.3124 10.7709 12.2605 10.4746 12.1093C10.018 11.8777 9.42062 11.3674 8.88635 10.8052C8.35694 10.2476 7.88582 9.62863 7.67697 9.16557C7.54097 8.85845 7.50697 8.57967 7.61868 8.36232C7.70125 8.16859 7.79839 8.01267 7.92467 7.89454C8.03638 7.79059 8.15781 7.71972 8.29866 7.66774C8.41523 7.52127 8.49294 7.38424 8.52694 7.27084C8.55608 7.19052 8.55608 7.12909 8.53665 7.09129C8.52694 7.07711 8.52208 7.06294 8.51237 7.04876C8.40066 6.78416 8.27437 6.54319 8.14809 6.33056C8.01695 6.12266 7.88096 5.93366 7.74011 5.76828C7.5264 5.51786 7.37098 5.39501 7.22041 5.37138C7.0747 5.35248 6.88042 5.40918 6.60843 5.53203C6.57444 5.59346 6.53558 5.65961 6.49672 5.73048C6.43844 5.83916 6.38501 5.93838 6.3413 6.02816C6.21016 6.30694 6.10817 6.57626 6.04503 6.82196C5.98189 7.06294 5.95274 7.27557 5.96246 7.46929V7.48819C5.92846 8.5088 6.91928 10.0775 8.19666 11.4147ZM7.6624 18.8613C6.76386 18.6345 5.8896 18.2754 5.04935 17.7793L0.610081 19.9528C0.503228 20.0095 0.37209 20.0189 0.250665 19.9717C0.0418159 19.8914 -0.0553235 19.6551 0.0321019 19.4519L1.9506 14.8923C1.48434 14.2166 1.11035 13.4937 0.838358 12.7282C0.551797 11.925 0.37209 11.0698 0.318663 10.1673C0.313806 10.1531 0.313806 10.1342 0.313806 10.1153C0.16324 7.48347 1.12006 5.04063 2.79086 3.21205C4.46166 1.38819 6.84157 0.178583 9.5469 0.0179325C9.56147 0.0179325 9.5809 0.0132075 9.60033 0.0132075V0.0179325C12.3057 -0.133268 14.8216 0.797561 16.6964 2.42769C18.5711 4.04838 19.8145 6.36836 19.9797 8.99547C19.9797 9.01437 19.9845 9.03327 19.9845 9.04745V9.05217C20.1351 11.684 19.1783 14.1268 17.5075 15.9554C15.8318 17.784 13.4373 18.9936 10.7174 19.1495C9.69261 19.2062 8.66779 19.1165 7.6624 18.8613Z" fill="#EEEEFF"/>
</svg>
